SplineFontDB: 3.2
FontName: NewestShape-BoldOblique
FullName: Newest Shape Bold Oblique
FamilyName: Newest Shape
Weight: Bold
Copyright: Copyright (c) 2022-2026 by Wojciech Kalinowski "wmk69" with Reserved Font Name "NewestShape-BoldOblique".\nThis Font Software is licensed under the SIL Open Font License, Version 1.1.
Version: 1.0.0; 2022-02-24
ItalicAngle: -12
UnderlinePosition: -80
UnderlineWidth: 320
Ascent: 1638
Descent: 410
InvalidEm: 0
LayerCount: 2
Layer: 0 1 "Warstwa t+AUIA-a" 1
Layer: 1 1 "Plan pierwszy" 0
XUID: [1021 783 23647091 14925010]
StyleMap: 0x0021
FSType: 0
OS2Version: 3
OS2_WeightWidthSlopeOnly: 0
OS2_UseTypoMetrics: 1
CreationTime: 1260698820
ModificationTime: 1645721283
PfmFamily: 33
TTFWeight: 700
TTFWidth: 5
LineGap: 200
VLineGap: 0
Panose: 2 11 8 3 2 2 3 13 2 4
OS2TypoAscent: 2016
OS2TypoAOffset: 0
OS2TypoDescent: -573
OS2TypoDOffset: 0
OS2TypoLinegap: 200
OS2WinAscent: 2016
OS2WinAOffset: 0
OS2WinDescent: 573
OS2WinDOffset: 0
HheadAscent: 2016
HheadAOffset: 0
HheadDescent: -573
HheadDOffset: 0
OS2SubXSize: 1434
OS2SubYSize: 1331
OS2SubXOff: 0
OS2SubYOff: 287
OS2SupXSize: 1434
OS2SupYSize: 1331
OS2SupXOff: 0
OS2SupYOff: 977
OS2StrikeYSize: 102
OS2StrikeYPos: 512
OS2CapHeight: 1510
OS2XHeight: 1100
OS2Vendor: '    '
OS2CodePages: 20000093.00000000
OS2UnicodeRanges: 8000002f.4000204b.00000000.00000000
Lookup: 258 0 0 "'kern' Horizontal Kerning lookup 0" { "'kern' Horizontal Kerning lookup 0-1" [307,0,4] } ['kern' ('DFLT' <'dflt' > 'grek' <'dflt' > 'latn' <'dflt' > ) ]
MarkAttachClasses: 1
DEI: 91125
KernClass2: 75 55 "'kern' Horizontal Kerning lookup 0-1"
 84 A Agrave Aacute Acircumflex Atilde Adieresis Aring Amacron Abreve Aogonek Aringacute
 28 B germandbls uni1E02 uni1E9E
 140 C E AE Ccedilla Egrave Eacute Ecircumflex Edieresis Cacute Ccircumflex Cdotaccent Ccaron Emacron Ebreve Edotaccent Eogonek Ecaron OE AEacute

StartChar: .notdef
Encoding: 65536 -1 0
Width: 904
Flags: W
HStem: 0 188<348 636> 1237 188<571 859>
VStem: 120 664<0 664> 423 664<761 1425>
DStem2: 120 0 308.039 0 0.207912 0.978148<231.296 1303.74> 596.039 0 784 0 0.207912 0.978148<192.2 1264.64>
LayerCount: 2
Fore
SplineSet
120 0 m 1,0,-1
 423 1425 l 1,1,-1
 1087 1425 l 1,2,-1
 784 0 l 1,3,-1
 120 0 l 1,0,-1
348 188 m 1,4,-1
 636 188 l 1,5,-1
 859 1237 l 1,6,-1
 571 1237 l 1,7,-1
 348 188 l 1,4,-1
EndSplineSet
Validated: 1
EndChar

StartChar: exclam
Encoding: 33 33 4
Width: 752
GlyphClass: 2
Flags: W
HStem: -20 368<305.541 516.4> 1490 20G<536.745 853>
VStem: 220 380<62.0605 264.939> 321 312<476 788> 541 312<1198 1510>
DStem2: 215.572 -20 527.572 -20 0.207912 0.978148<571.949 1564.23>
LayerCount: 2
Fore
SplineSet
380 -20 m 128,-1,1
 298 -20 298 -20 254 38 c 0,2,3
 221 81 221 81 220 137 c 0,4,5
 220 150 220 150 222 164 c 0,6,7
 233 245 233 245 295 296 c 0,8,9
 359 348 359 348 440 348 c 0,10,11
 522 348 522 348 566 291 c 0,12,13
 599 248 599 248 600 191 c 0,14,15
 600 178 600 178 598 163 c 0,16,17
 587 82 587 82 524.5 31 c 128,-1,0
 462 -20 462 -20 380 -20 c 128,-1,1
321 476 m 1,18,-1
 541 1510 l 1,19,-1
 853 1510 l 1,20,-1
 633 476 l 1,21,-1
 321 476 l 1,18,-1
EndSplineSet
Validated: 1
EndChar

StartChar: quotedbl
Encoding: 34 34 5
Width: 686
GlyphClass: 2
Flags: W
HStem: 1000 510<340 492 727 879>
VStem: 232 260<1000 1260> 340 260<1250 1510> 619 260<1000 1260> 727 260<1250 1510>
DStem2: 232 1000 492 1000 0.207912 0.978148<54.057 521.31> 619 1000 879 1000 0.207912 0.978148<54.057 521.31>
LayerCount: 2
Fore
SplineSet
727 1510 m 1,0,-1
 987 1510 l 1,1,-1
 879 1000 l 1,2,-1
 619 1000 l 1,3,-1
 727 1510 l 1,0,-1
340 1510 m 1,4,-1
 600 1510 l 1,5,-1
 492 1000 l 1,6,-1
 232 1000 l 1,7,-1
 340 1510 l 1,4,-1
EndSplineSet
Validated: 1
EndChar

StartChar: numbersign
Encoding: 35 35 6
Width: 1462
GlyphClass: 2
Flags: W
HStem: 433 230<313 509 788 907 1186 1384> 831 230<396 594 873 992 1271 1467>
VStem: 457 230<186 416> 695 230<1076 1306> 855 230<188 418> 1093 230<1078 1308>
DStem2: 457 186 687 186 0.207912 0.978148<47.8197 252.414 535.395 659.389 942.37 1145.01> 854.575 186 1084.57 186 0.207912 0.978148<49.8644 252.502 535.484 659.477 942.459 1147.05>
LayerCount: 2
Fore
SplineSet
695 1306 m 1,0,-1
 925 1306 l 1,1,-1
 873 1061 l 1,2,-1
 1041 1061 l 1,3,-1
 1093 1308 l 1,4,-1
 1323 1308 l 1,5,-1
 1271 1061 l 1,6,-1
 1516 1061 l 1,7,-1
 1467 831 l 1,8,-1
 1222 831 l 1,9,-1
 1186 663 l 1,10,-1
 1433 663 l 1,11,-1
 1384 433 l 1,12,-1
 1137 433 l 1,13,-1
 1085 188 l 1,14,-1
 855 188 l 1,15,-1
 907 433 l 1,16,-1
 739 433 l 1,17,-1
 687 186 l 1,18,-1
 457 186 l 1,19,-1
 509 433 l 1,20,-1
 264 433 l 1,21,-1
 313 663 l 1,22,-1
 558 663 l 1,23,-1
 594 831 l 1,24,-1
 347 831 l 1,25,-1
 396 1061 l 1,26,-1
 643 1061 l 1,27,-1
 695 1306 l 1,0,-1
992 831 m 1,28,-1
 824 831 l 1,29,-1
 788 663 l 1,30,-1
 956 663 l 1,31,-1
 992 831 l 1,28,-1
EndSplineSet
Validated: 1
EndChar

StartChar: dollar
Encoding: 36 36 7
Width: 1338
GlyphClass: 2
Flags: W
VStem: 492 316<1038.02 1210.16> 624 150<-180 -30> 1021 150<1540 1690> 1024 329<400.762 623.764>
DStem2: 624 -180 774 -180 0.207912 0.978148<31.1868 163.573 541.321 876.707 1223.65 1452.74 1758.38 1911.68>
LayerCount: 2
Fore
SplineSet
658 -20 m 1,0,1
 283 -20 283 -20 128 274 c 1,2,-1
 409 447 l 1,3,4
 512 280 512 280 722 280 c 1,5,6
 813 710 l 1,7,-1
 783 724 l 2,8,9
 492 860 492 860 492 1089 c 0,10,11
 492 1123 492 1123 498 1159 c 0,12,13
 527 1341 527 1341 700 1454 c 0,14,15
 814 1529 814 1529 987 1530 c 1,16,-1
 1021 1690 l 1,17,-1
 1171 1690 l 1,18,-1
 1133 1513 l 1,19,20
 1299 1471 1299 1471 1406 1323 c 1,21,-1
 1146 1141 l 1,22,23
 1115 1194 1115 1194 1071 1220 c 1,24,-1
 1014 951 l 1,25,-1
 1090 916 l 2,26,27
 1353 795 1353 795 1353 552 c 0,28,29
 1353 505 1353 505 1344 454 c 0,30,31
 1313 274 1313 274 1149 140 c 0,32,33
 1008 25 1008 25 811 -7 c 1,34,-1
 774 -180 l 1,35,-1
 624 -180 l 1,36,-1
 658 -20 l 1,0,1
878 1017 m 1,37,-1
 926 1241 l 1,38,39
 835 1226 835 1226 813 1153 c 0,40,41
 808 1137 808 1137 808 1117 c 0,42,43
 808 1063 808 1063 878 1017 c 1,37,-1
950 647 m 1,44,-1
 880 319 l 1,45,46
 899 329 899 329 917 342 c 0,47,48
 1006 405 1006 405 1021 487 c 0,49,50
 1024 503 1024 503 1024 518 c 0,51,52
 1024 602 1024 602 950 647 c 1,44,-1
EndSplineSet
Validated: 1
EndChar

StartChar: percent
Encoding: 37 37 8
Width: 1727
GlyphClass: 2
Flags: W
HStem: -20 221<1223.77 1405.25> 439 219<1250.36 1433.73> 852 221<613.77 795.245> 1311 219<640.359 823.729>
VStem: 370 224<1098.16 1265> 842 226<1119.38 1276.25> 980 224<226.16 393.002> 1452 226<247.382 404.248>
DStem2: 256 142 435 -20 0.699396 0.714734<9.40504 1941.83>
LayerCount: 2
Fore
SplineSet
435 -20 m 1,0,-1
 256 142 l 1,1,-1
 1614 1530 l 1,2,-1
 1803 1378 l 1,3,-1
 435 -20 l 1,0,-1
1286 -20 m 0,4,5
 1143 -20 1143 -20 1049 88 c 0,6,7
 980 166 980 166 980 268 c 0,8,9
 980 296 980 296 983 320 c 0,10,11
 1003 472 1003 472 1115 562 c 0,12,13
 1235 658 1235 658 1372 658 c 0,14,15
 1515 658 1515 658 1609 550 c 0,16,17
 1678 472 1678 472 1678 370 c 0,18,19
 1678 342 1678 342 1675 318 c 0,20,21
 1655 169 1655 169 1543 76 c 24,22,23
 1428 -20 1428 -20 1286 -20 c 0,4,5
1353 439 m 128,-1,25
 1302 439 1302 439 1259.5 404 c 128,-1,26
 1217 369 1217 369 1207 320 c 0,27,28
 1204 307 1204 307 1204 295 c 0,29,30
 1205 262 1205 262 1225 236 c 0,31,32
 1253 201 1253 201 1303.5 201 c 128,-1,33
 1354 201 1354 201 1396.5 237 c 128,-1,34
 1439 273 1439 273 1449 322 c 0,35,36
 1452 335 1452 335 1452 348 c 0,37,38
 1452 381 1452 381 1432 405 c 0,39,24
 1404 439 1404 439 1353 439 c 128,-1,25
762 1530 m 0,40,41
 905 1530 905 1530 999 1422 c 0,42,43
 1068 1344 1068 1344 1068 1242 c 0,44,45
 1068 1214 1068 1214 1065 1190 c 0,46,47
 1045 1041 1045 1041 933 948 c 24,48,49
 818 852 818 852 676 852 c 0,50,51
 533 852 533 852 439 960 c 0,52,53
 370 1038 370 1038 370 1140 c 0,54,55
 370 1168 370 1168 373 1192 c 0,56,57
 393 1344 393 1344 505 1434 c 0,58,59
 625 1530 625 1530 762 1530 c 0,40,41
743 1311 m 128,-1,61
 692 1311 692 1311 649.5 1276 c 128,-1,62
 607 1241 607 1241 597 1192 c 0,63,64
 594 1179 594 1179 594 1167 c 0,65,66
 595 1134 595 1134 615 1108 c 0,67,68
 643 1073 643 1073 693.5 1073 c 128,-1,69
 744 1073 744 1073 786.5 1109 c 128,-1,70
 829 1145 829 1145 839 1194 c 0,71,72
 842 1207 842 1207 842 1220 c 0,73,74
 842 1253 842 1253 822 1277 c 0,75,60
 794 1311 794 1311 743 1311 c 128,-1,61
EndSplineSet
Validated: 1
EndChar

StartChar: ampersand
Encoding: 38 38 9
Width: 1641
GlyphClass: 2
Flags: W
HStem: -20 289<583.876 945.767> 0 21G<1173.97 1521> 1245 285<826.03 1159.4>
VStem: 216 303<331.134 568> 442 305<972.514 1172.69>
DStem2: 1018 928 827 668 0.471342 -0.881951<118.35 382.591 505.59 513.582 568.994 896.693>
LayerCount: 2
Fore
SplineSet
1521 0 m 1,0,-1
 1184 0 l 1,1,-1
 1037 293 l 1,2,-1
 989 42 l 1,3,4
 850 -20 850 -20 745 -20 c 0,5,6
 477 -20 477 -20 339 119 c 0,7,8
 216 243 216 243 216 414 c 0,9,10
 216 436 216 436 218 459 c 0,11,12
 241 720 241 720 540 834 c 1,13,14
 442 927 442 927 442 1067 c 0,15,16
 442 1096 442 1096 446 1128 c 0,17,18
 471 1310 471 1310 661 1440 c 0,19,20
 793 1530 793 1530 1000 1530 c 0,21,22
 1242 1530 1242 1530 1396 1350 c 1,23,-1
 1135 1160 l 1,24,25
 1076 1245 1076 1245 979 1245 c 0,26,27
 893 1245 893 1245 835 1208 c 0,28,29
 764 1164 764 1164 750 1094 c 0,30,31
 747 1078 747 1078 747 1063 c 0,32,33
 747 1013 747 1013 786 977 c 0,34,35
 840 928 840 928 962 928 c 2,36,-1
 1018 928 l 1,37,-1
 1201 592 l 1,38,39
 1299 744 1299 744 1377 928 c 1,40,-1
 1674 928 l 1,41,42
 1576 698 1576 698 1437 483 c 1,43,-1
 1258 483 l 1,44,-1
 1521 0 l 1,0,-1
827 668 m 1,45,46
 563 668 563 668 523 478 c 0,47,48
 519 457 519 457 519 437 c 0,49,50
 519 373 519 373 566 328 c 0,51,52
 627 269 627 269 762.5 269 c 128,-1,53
 898 269 898 269 1010 344 c 1,54,-1
 827 668 l 1,45,46
EndSplineSet
Validated: 1
EndChar

StartChar: quotesingle
Encoding: 39 39 10
Width: 300
GlyphClass: 2
Flags: W
HStem: 1000 510<341 493>
VStem: 233 260<1000 1260> 341 260<1250 1510>
DStem2: 233 1000 493 1000 0.207912 0.978148<54.057 521.31>
LayerCount: 2
Fore
SplineSet
341 1510 m 1,0,-1
 601 1510 l 1,1,-1
 493 1000 l 1,2,-1
 233 1000 l 1,3,-1
 341 1510 l 1,0,-1
EndSplineSet
Validated: 1
EndChar

StartChar: parenleft
Encoding: 40 40 11
Width: 963
GlyphClass: 2
Flags: W
VStem: 292 296<28.8892 756.462> 914 316<1504 1820>
LayerCount: 2
Fore
SplineSet
777 -309 m 1,0,1
 461 -309 l 1,2,3
 292 31 292 31 292 399 c 0,4,5
 292 575 292 575 331 757 c 0,6,7
 450 1319 450 1319 914 1820 c 1,8,-1
 1230 1820 l 1,9,10
 744 1286 744 1286 631 756 c 0,11,12
 588 554 588 554 588 371 c 0,13,14
 588 -12 588 -12 777 -309 c 1,0,1
EndSplineSet
Validated: 1
EndChar

StartChar: parenright
Encoding: 41 41 12
Width: 963
GlyphClass: 2
Flags: W
VStem: 54 316<-309 7> 696 296<754.538 1482.11>
LayerCount: 2
Fore
SplineSet
370 -309 m 1,0,-1
 54 -309 l 1,1,2
 540 225 540 225 653 755 c 0,3,4
 696 957 696 957 696 1140 c 0,5,6
 696 1523 696 1523 507 1820 c 1,7,-1
 823 1820 l 1,8,9
 992 1480 992 1480 992 1112 c 0,10,11
 992 936 992 936 953 754 c 0,12,13
 834 192 834 192 370 -309 c 1,0,-1
EndSplineSet
Validated: 1
EndChar

StartChar: asterisk
Encoding: 42 42 13
Width: 1153
GlyphClass: 2
Flags: W
HStem: 1490 20G<777.777 1012>
VStem: 590 230<609 839> 782 230<1280 1510>
DStem2: 322 949 399 735 0.897053 0.441923<0 249.52 708.419 958.836> 537 1384 392 1200 0.822148 -0.569274<0 213.724 589.006 803.553> 590 609 820 609 0.207912 0.978148<47.8197 256.742 712.515 921.23>
LayerCount: 2
Fore
SplineSet
782 1510 m 1,0,-1
 1012 1510 l 1,1,-1
 959 1259 l 1,2,-1
 1203 1384 l 1,3,-1
 1282 1170 l 1,4,-1
 1018 1044 l 1,5,-1
 1210 918 l 1,6,-1
 1065 735 l 1,7,-1
 874 860 l 1,8,-1
 820 609 l 1,9,-1
 590 609 l 1,10,-1
 644 860 l 1,11,-1
 399 735 l 1,12,-1
 322 949 l 1,13,-1
 583 1075 l 1,14,-1
 392 1200 l 1,15,-1
 537 1384 l 1,16,-1
 729 1259 l 1,17,-1
 782 1510 l 1,0,-1
EndSplineSet
Validated: 1
EndChar

StartChar: plus
Encoding: 43 43 14
Width: 1193
GlyphClass: 2
Flags: W
HStem: 593 302<310 572 936 1199>
VStem: 503 300<266 566> 706 300<922 1222>
DStem2: 503 266 803 266 0.207912 0.978148<62.3735 334.2 705.281 977.315>
LayerCount: 2
Fore
SplineSet
706 1222 m 1,0,-1
 1006 1222 l 1,1,-1
 936 895 l 1,2,-1
 1263 895 l 1,3,-1
 1199 593 l 1,4,-1
 872 593 l 1,5,-1
 803 266 l 1,6,-1
 503 266 l 1,7,-1
 572 593 l 1,8,-1
 246 593 l 1,9,-1
 310 895 l 1,10,-1
 636 895 l 1,11,-1
 706 1222 l 1,0,-1
EndSplineSet
Validated: 1
EndChar

StartChar: comma
Encoding: 44 44 15
Width: 447
GlyphClass: 2
Flags: W
VStem: 172 262<-51.3184 139.055>
LayerCount: 2
Fore
SplineSet
299 351 m 1,0,1
 434 228 434 228 434 74 c 0,2,3
 434 34 434 34 425 -8 c 0,4,5
 375 -244 375 -244 103 -374 c 1,6,-1
 -9 -138 l 1,7,8
 145 -73 145 -73 166 9 c 0,9,10
 172 31 172 31 172 51 c 0,11,12
 172 119 172 119 104 153 c 1,13,-1
 299 351 l 1,0,1
EndSplineSet
Validated: 1
EndChar

StartChar: hyphen
Encoding: 45 45 16
Width: 1193
GlyphClass: 2
Flags: W
HStem: 593 302<310 1199>
LayerCount: 2
Fore
SplineSet
310 895 m 1,0,-1
 1263 895 l 1,1,-1
 1199 593 l 1,2,-1
 246 593 l 1,3,-1
 310 895 l 1,0,-1
EndSplineSet
Validated: 1
EndChar

StartChar: period
Encoding: 46 46 17
Width: 416
GlyphClass: 2
Flags: W
HStem: -20 368<138.541 349.4>
VStem: 53 380<62.0605 264.939>
LayerCount: 2
Fore
SplineSet
213 -20 m 128,-1,1
 131 -20 131 -20 87 38 c 0,2,3
 54 81 54 81 53 137 c 0,4,5
 53 150 53 150 55 164 c 0,6,7
 66 245 66 245 128 296 c 0,8,9
 192 348 192 348 273 348 c 0,10,11
 355 348 355 348 399 291 c 0,12,13
 432 248 432 248 433 191 c 0,14,15
 433 178 433 178 431 163 c 0,16,17
 420 82 420 82 357.5 31 c 128,-1,0
 295 -20 295 -20 213 -20 c 128,-1,1
EndSplineSet
Validated: 1
EndChar

StartChar: slash
Encoding: 47 47 18
Width: 1175
GlyphClass: 2
Flags: W
DStem2: -21 -144 220 -279 0.557079 0.83046<22.1439 2324.76>
LayerCount: 2
Fore
SplineSet
1275 1786 m 1,0,-1
 1516 1653 l 1,1,-1
 220 -279 l 1,2,-1
 -21 -144 l 1,3,-1
 1275 1786 l 1,0,-1
EndSplineSet
Validated: 1
EndChar

StartChar: one
Encoding: 49 49 19
Width: 825
GlyphClass: 2
Flags: W
HStem: 0 21G<285 609.249> 1210 300<341 527.719>
VStem: 285 320<0 320> 528 332<996.617 1378.5>
DStem2: 285 0 605 0 0.207912 0.978148<66.5317 1182.7>
LayerCount: 2
Fore
SplineSet
285 0 m 1,0,-1
 523 1119 l 2,1,2
 528 1141 528 1141 528 1158 c 0,3,4
 528 1210 528 1210 482 1210 c 2,5,-1
 277 1210 l 1,6,-1
 341 1510 l 1,7,-1
 506 1510 l 2,8,9
 860 1510 860 1510 860 1247 c 0,10,11
 860 1198 860 1198 847 1139 c 2,12,-1
 605 0 l 1,13,-1
 285 0 l 1,0,-1
EndSplineSet
Validated: 1
EndChar

StartChar: two
Encoding: 50 50 20
Width: 1256
GlyphClass: 2
Flags: W
HStem: 0 320<553 1136> 1230 300<688.9 995.437>
VStem: 1038 317<955.395 1178.84>
LayerCount: 2
Fore
SplineSet
70 0 m 1,0,1
 177 499 177 499 755 772 c 0,2,3
 1000 888 1000 888 1033 1045 c 0,4,5
 1038 1068 1038 1068 1038 1088 c 0,6,7
 1038 1143 1038 1143 1003 1180 c 0,8,9
 955 1230 955 1230 855 1230 c 0,10,11
 681 1230 681 1230 547 1061 c 1,12,-1
 337 1236 l 1,13,14
 572 1530 572 1530 893 1530 c 0,15,16
 1120 1530 1120 1530 1250 1382 c 0,17,18
 1355 1263 1355 1263 1355 1091 c 0,19,20
 1355 1071 1355 1071 1354 1049 c 0,21,22
 1330 697 1330 697 849 522 c 0,23,24
 629 442 629 442 553 320 c 1,25,-1
 1204 320 l 1,26,-1
 1136 0 l 1,27,-1
 70 0 l 1,0,1
EndSplineSet
Validated: 1
EndChar

StartChar: three
Encoding: 51 51 21
Width: 1292
GlyphClass: 2
Flags: W
HStem: -20 300<453.941 830.141> 670 302<666 901.75> 1243 287<701.047 957.583>
VStem: 958 321<392.45 618.198 1026.97 1231.58>
LayerCount: 2
Fore
SplineSet
590 -20 m 0,0,1
 314 -20 314 -20 107 174 c 1,2,-1
 371 379 l 1,3,4
 490 280 490 280 632 280 c 0,5,6
 778 280 778 280 868 347 c 0,7,8
 936 397 936 397 953 478 c 0,9,10
 958 502 958 502 958 522 c 0,11,12
 958 670 958 670 702 670 c 2,13,-1
 601 670 l 1,14,-1
 666 972 l 1,15,-1
 767 972 l 2,16,17
 837 972 837 972 895 1011.5 c 128,-1,18
 953 1051 953 1051 967 1111 c 0,19,20
 972 1132 972 1132 972 1150 c 0,21,22
 972 1243 972 1243 843 1243 c 0,23,24
 735 1243 735 1243 646 1152 c 1,25,-1
 470 1340 l 1,26,27
 628 1530 628 1530 857 1530 c 0,28,29
 1053 1530 1053 1530 1173 1409 c 0,30,31
 1271 1309 1271 1309 1271 1172 c 0,32,33
 1271 1159 1271 1159 1270 1146 c 0,34,35
 1259 968 1259 968 1071 869 c 1,36,37
 1170 824 1170 824 1222 745 c 0,38,39
 1279 662 1279 662 1279 546 c 0,40,41
 1279 506 1279 506 1272 463 c 0,42,43
 1241 257 1241 257 1062 116 c 0,44,45
 890 -20 890 -20 590 -20 c 0,0,1
EndSplineSet
Validated: 1
EndChar

StartChar: four
Encoding: 52 52 22
Width: 1268
GlyphClass: 2
Flags: W
HStem: 0 21G<778 1102.25> 255 302<519 712> 1080 20G<1007.75 1332> 1490 20G<768.306 1124>
VStem: 778 320<0 320> 781 343<1167 1510> 1012 320<780 1100>
DStem2: 265 697 519 557 0.535958 0.844245<17.9391 962.925> 778 0 1098 0 0.207912 0.978148<66.5317 1124.61>
LayerCount: 2
Fore
SplineSet
1124 1510 m 1,0,-1
 519 557 l 25,1,-1
 776 557 l 1,2,-1
 712 255 l 1,3,-1
 443 255 l 2,4,5
 169 255 169 255 169 467 c 0,6,7
 169 546 169 546 265 697 c 2,8,-1
 781 1510 l 1,9,-1
 1124 1510 l 1,0,-1
1098 0 m 1,10,-1
 778 0 l 1,11,-1
 1012 1100 l 1,12,-1
 1332 1100 l 1,13,-1
 1098 0 l 1,10,-1
EndSplineSet
Validated: 1
EndChar

StartChar: five
Encoding: 53 53 23
Width: 1320
GlyphClass: 2
Flags: W
HStem: -20 300<499.596 859.833> 669 302<769 926.881> 1210 300<827.038 1314>
VStem: 988 323<397.941 611.535>
LayerCount: 2
Fore
SplineSet
648 -20 m 0,0,1
 309 -20 309 -20 157 174 c 1,2,-1
 421 379 l 1,3,4
 538 280 538 280 674 280 c 0,5,6
 814 280 814 280 901 351 c 0,7,8
 968 406 968 406 985 490 c 0,9,10
 988 507 988 507 988 523 c 0,11,12
 988 585 988 585 934 622 c 0,13,14
 866 669 866 669 722 669 c 2,15,-1
 385 669 l 1,16,-1
 483 1131 l 2,17,18
 563 1510 563 1510 984 1510 c 2,19,-1
 1378 1510 l 1,20,-1
 1314 1210 l 1,21,-1
 920 1210 l 2,22,23
 821 1210 821 1210 803 1128 c 2,24,-1
 769 971 l 1,25,-1
 808 971 l 2,26,27
 1032 971 1032 971 1166 856 c 0,28,29
 1311 732 1311 732 1311 551 c 0,30,31
 1311 534 1311 534 1310 516 c 0,32,33
 1295 309 1295 309 1137 157 c 0,34,35
 952 -20 952 -20 648 -20 c 0,0,1
EndSplineSet
Validated: 1
EndChar

StartChar: six
Encoding: 54 54 24
Width: 1456
GlyphClass: 2
Flags: W
HStem: -20 300<634.661 967.026> 1490 20G<826.5 1429>
VStem: 234 321<357 681.457> 1135 323<440.384 759.528>
LayerCount: 2
Fore
SplineSet
762 -20 m 0,0,1
 512 -20 512 -20 355 162 c 0,2,3
 234 303 234 303 234 492 c 0,4,5
 234 522 234 522 237 552 c 0,6,7
 267 873 267 873 591 1171 c 0,8,9
 697 1269 697 1269 956 1510 c 1,10,-1
 1429 1510 l 1,11,12
 1226 1351 1226 1351 888 1044 c 0,13,14
 591 774 591 774 560 563 c 0,15,16
 555 527 555 527 555 495 c 0,17,18
 555 402 555 402 601 353 c 0,19,20
 669 280 669 280 796 280 c 0,21,22
 917 280 917 280 1014 354 c 0,23,24
 1113 429 1113 429 1131 549 c 0,25,26
 1135 578 1135 578 1135 605 c 0,27,28
 1135 688 1135 688 1096 753 c 0,29,30
 1050 831 1050 831 940 831 c 1,31,-1
 1003 1128 l 1,32,33
 1193 1128 1193 1128 1333 970 c 0,34,35
 1458 829 1458 829 1458 629 c 0,36,37
 1458 590 1458 590 1453 549 c 0,38,39
 1423 291 1423 291 1211 122 c 0,40,41
 1033 -20 1033 -20 762 -20 c 0,0,1
EndSplineSet
Validated: 1
EndChar

StartChar: seven
Encoding: 55 55 25
Width: 1046
GlyphClass: 2
Flags: W
HStem: 0 21G<10 412.009> 1210 300<338 922>
VStem: 10 387<0 387>
DStem2: 10 0 397 0 0.601899 0.798572<232.935 1515.2>
LayerCount: 2
Fore
SplineSet
10 0 m 1,0,-1
 922 1210 l 1,1,-1
 274 1210 l 1,2,-1
 338 1510 l 1,3,-1
 1019 1510 l 2,4,5
 1306 1510 1306 1510 1306 1316 c 0,6,7
 1306 1211 1306 1211 1191 1058 c 2,8,-1
 397 0 l 1,9,-1
 10 0 l 1,0,-1
EndSplineSet
Validated: 1
EndChar

StartChar: eight
Encoding: 56 56 26
Width: 1371
GlyphClass: 2
Flags: W
HStem: -20 300<583.136 928.964> 1238 292<812.137 1061.59>
VStem: 218 307<336.016 565.398> 453 307<1013.02 1185.66> 1044 306<382.563 583.775> 1087 289<1031.5 1200.22>
LayerCount: 2
Fore
SplineSet
730 -20 m 0,0,1
 504 -20 504 -20 352 114 c 0,2,3
 218 232 218 232 218 397 c 0,4,5
 218 420 218 420 221 444 c 0,6,7
 236 587 236 587 372 689 c 1,8,-1
 727 689 l 1,9,10
 558 610 558 610 530 477 c 0,11,12
 525 455 525 455 525 436 c 0,13,14
 525 374 525 374 571 334 c 0,15,16
 632 280 632 280 746 280 c 0,17,18
 863 280 863 280 942 331 c 0,19,20
 1023 383 1023 383 1041 464 c 0,21,22
 1044 479 1044 479 1044 493 c 0,23,24
 1044 580 1044 580 917 634 c 2,25,-1
 743 707 l 2,26,27
 636 752 636 752 558 830 c 0,28,29
 453 935 453 935 453 1078 c 0,30,31
 453 1099 453 1099 455 1121 c 0,32,33
 475 1311 475 1311 639 1423 c 0,34,35
 795 1530 795 1530 977 1530 c 0,36,37
 1172 1530 1172 1530 1294 1395 c 0,38,39
 1376 1304 1376 1304 1376 1182 c 0,40,41
 1376 1159 1376 1159 1372 1134 c 0,42,43
 1360 1035 1360 1035 1269 964 c 1,44,-1
 954 964 l 1,45,46
 1066 1027 1066 1027 1084 1108 c 0,47,48
 1087 1123 1087 1123 1087 1137 c 0,49,50
 1087 1176 1087 1176 1060 1201 c 0,51,52
 1021 1238 1021 1238 953 1238 c 0,53,54
 883 1238 883 1238 826 1203 c 0,55,56
 774 1172 774 1172 763 1120 c 0,57,58
 760 1108 760 1108 760 1097 c 0,59,60
 760 1006 760 1006 925 952 c 0,61,62
 1350 812 1350 812 1350 498 c 0,63,64
 1350 477 1350 477 1348 456 c 0,65,66
 1331 261 1331 261 1169 129 c 0,67,68
 986 -20 986 -20 730 -20 c 0,0,1
EndSplineSet
Validated: 1
EndChar

StartChar: nine
Encoding: 57 57 27
Width: 1456
GlyphClass: 2
Flags: W
HStem: 0 21G<348 950.5> 1230 300<809.974 1142.34>
VStem: 319 323<750.472 1069.62> 1222 321<826.094 1154.23>
LayerCount: 2
Fore
SplineSet
348 0 m 1,0,1
 551 159 551 159 889 466 c 0,2,3
 1186 736 1186 736 1217 947 c 0,4,5
 1222 983 1222 983 1222 1015 c 0,6,7
 1222 1108 1222 1108 1176 1157 c 0,8,9
 1108 1230 1108 1230 981 1230 c 0,10,11
 860 1230 860 1230 763 1156 c 0,12,13
 664 1081 664 1081 646 961 c 0,14,15
 642 932 642 932 642 905 c 0,16,17
 642 822 642 822 681 757 c 0,18,19
 727 679 727 679 837 679 c 1,20,-1
 774 382 l 1,21,22
 584 382 584 382 444 540 c 0,23,24
 319 681 319 681 319 881 c 0,25,26
 319 920 319 920 324 961 c 0,27,28
 354 1219 354 1219 566 1388 c 0,29,30
 744 1530 744 1530 1015 1530 c 0,31,32
 1265 1530 1265 1530 1422 1348 c 0,33,34
 1543 1207 1543 1207 1543 1018 c 0,35,36
 1543 988 1543 988 1540 958 c 0,37,38
 1510 637 1510 637 1186 339 c 0,39,40
 1080 241 1080 241 821 0 c 1,41,-1
 348 0 l 1,0,1
EndSplineSet
Validated: 1
EndChar

StartChar: colon
Encoding: 58 58 28
Width: 417
GlyphClass: 2
Flags: W
HStem: -20 368<139.541 350.4> 583 368<266.541 477.4>
VStem: 54 380<62.0605 264.939> 181 380<665.061 867.939>
LayerCount: 2
Fore
SplineSet
401 951 m 0,0,1
 483 951 483 951 527 894 c 0,2,3
 560 851 560 851 561 794 c 0,4,5
 561 781 561 781 559 766 c 0,6,7
 548 685 548 685 485.5 634 c 128,-1,8
 423 583 423 583 341 583 c 128,-1,9
 259 583 259 583 215 641 c 0,10,11
 182 684 182 684 181 740 c 0,12,13
 181 753 181 753 183 767 c 0,14,15
 194 848 194 848 256 899 c 0,16,17
 320 951 320 951 401 951 c 0,0,1
214 -20 m 128,-1,19
 132 -20 132 -20 88 38 c 0,20,21
 55 81 55 81 54 137 c 0,22,23
 54 150 54 150 56 164 c 0,24,25
 67 245 67 245 129 296 c 0,26,27
 193 348 193 348 274 348 c 0,28,29
 356 348 356 348 400 291 c 0,30,31
 433 248 433 248 434 191 c 0,32,33
 434 178 434 178 432 163 c 0,34,35
 421 82 421 82 358.5 31 c 128,-1,18
 296 -20 296 -20 214 -20 c 128,-1,19
EndSplineSet
Validated: 1
EndChar

StartChar: semicolon
Encoding: 59 59 29
Width: 434
GlyphClass: 2
Flags: W
HStem: 583 368<266.541 477.4>
VStem: 159 262<-51.3184 139.055> 181 380<665.061 867.939>
LayerCount: 2
Fore
SplineSet
401 951 m 0,0,1
 483 951 483 951 527 894 c 0,2,3
 560 851 560 851 561 794 c 0,4,5
 561 781 561 781 559 766 c 0,6,7
 548 685 548 685 485.5 634 c 128,-1,8
 423 583 423 583 341 583 c 128,-1,9
 259 583 259 583 215 641 c 0,10,11
 182 684 182 684 181 740 c 0,12,13
 181 753 181 753 183 767 c 0,14,15
 194 848 194 848 256 899 c 0,16,17
 320 951 320 951 401 951 c 0,0,1
286 351 m 1,18,19
 421 228 421 228 421 74 c 0,20,21
 421 34 421 34 412 -8 c 0,22,23
 362 -244 362 -244 90 -374 c 1,24,-1
 -22 -138 l 1,25,26
 132 -73 132 -73 153 9 c 0,27,28
 159 31 159 31 159 51 c 0,29,30
 159 119 159 119 91 153 c 1,31,-1
 286 351 l 1,18,19
EndSplineSet
Validated: 1
EndChar

StartChar: less
Encoding: 60 60 30
Width: 1234
GlyphClass: 2
Flags: W
DStem2: 650 714 252 619 0.834192 -0.551474<0 579.896> 304 868 650 714 0.881583 0.472029<232.335 966.826>
LayerCount: 2
Fore
SplineSet
1193 1344 m 1,0,-1
 1292 1071 l 1,1,-1
 650 714 l 1,2,-1
 1143 397 l 1,3,-1
 969 145 l 1,4,-1
 252 619 l 1,5,-1
 304 868 l 1,6,-1
 1193 1344 l 1,0,-1
EndSplineSet
Validated: 1
EndChar

StartChar: equal
Encoding: 61 61 31
Width: 1193
GlyphClass: 2
Flags: W
HStem: 370 271<256 1152> 838 271<356 1251>
LayerCount: 2
Fore
SplineSet
256 641 m 1,0,-1
 1209 641 l 1,1,-1
 1152 370 l 1,2,-1
 199 370 l 1,3,-1
 256 641 l 1,0,-1
356 1109 m 1,4,-1
 1309 1109 l 1,5,-1
 1251 838 l 1,6,-1
 298 838 l 1,7,-1
 356 1109 l 1,4,-1
EndSplineSet
Validated: 1
EndChar

StartChar: greater
Encoding: 62 62 32
Width: 1234
GlyphClass: 2
Flags: W
DStem2: 259 418 357 145 0.881583 0.472029<0 734.491> 582 1344 408 1092 0.834192 -0.551474<0 579.896>
LayerCount: 2
Fore
SplineSet
582 1344 m 1,0,-1
 1299 870 l 1,1,-1
 1246 621 l 1,2,-1
 357 145 l 1,3,-1
 259 418 l 1,4,-1
 901 775 l 1,5,-1
 408 1092 l 1,6,-1
 582 1344 l 1,0,-1
EndSplineSet
Validated: 1
EndChar

StartChar: question
Encoding: 63 63 33
Width: 1273
GlyphClass: 2
Flags: W
HStem: -20 368<556.541 767.4> 1230 300<697.629 1010.5>
VStem: 471 380<62.0605 264.939> 578 280<476 756> 1057 322<963.258 1175.84>
LayerCount: 2
Fore
SplineSet
631 -20 m 128,-1,1
 549 -20 549 -20 505 38 c 0,2,3
 472 81 472 81 471 137 c 0,4,5
 471 150 471 150 473 164 c 0,6,7
 484 245 484 245 546 296 c 0,8,9
 610 348 610 348 691 348 c 0,10,11
 773 348 773 348 817 291 c 0,12,13
 850 248 850 248 851 191 c 0,14,15
 851 178 851 178 849 163 c 0,16,17
 838 82 838 82 775.5 31 c 128,-1,0
 713 -20 713 -20 631 -20 c 128,-1,1
887 1530 m 0,18,19
 1130 1530 1130 1530 1264 1383 c 0,20,21
 1379 1257 1379 1257 1379 1089 c 0,22,23
 1379 1079 1379 1079 1378 1060 c 0,24,25
 1366 831 1366 831 1064 674 c 0,26,27
 881 580 881 580 858 476 c 1,28,-1
 578 476 l 1,29,30
 633 726 633 726 883 857 c 0,31,32
 1028 933 1028 933 1052 1042 c 0,33,34
 1057 1065 1057 1065 1057 1085 c 0,35,36
 1057 1140 1057 1140 1021 1177 c 0,37,38
 969 1230 969 1230 872 1230 c 0,39,40
 685 1230 685 1230 564 1063 c 1,41,-1
 353 1236 l 1,42,43
 590 1530 590 1530 887 1530 c 0,18,19
EndSplineSet
Validated: 1
EndChar

StartChar: at
Encoding: 64 64 34
Width: 1556
GlyphClass: 2
Flags: W
HStem: -430 21G<579 693.238> -20 270<950.399 1144.81> 521 266<983.569 1107> 990 269<812.618 1150.35>
VStem: 195 291<-68.2969 213.56> 627 294<289.036 476.312> 1249 291<619.98 896.828>
DStem2: 81.7172 -430 371.08 -430 0.207912 0.978148<574.323 1366.47> 1004.95 -430 1294.66 -430 0.207912 0.978148<704.335 1212.56>
LayerCount: 2
Fore
SplineSet
689 -430 m 1,0,1
 469 -430 469 -430 321 -259 c 0,2,3
 195 -113 195 -113 195 54 c 0,4,5
 195 101 195 101 205 150 c 2,6,-1
 308 651 l 2,7,8
 373 967 373 967 551 1108 c 0,9,10
 741 1259 741 1259 1016 1259 c 0,11,12
 1266 1259 1266 1259 1414 1088 c 0,13,14
 1540 941 1540 941 1540 775 c 0,15,16
 1540 728 1540 728 1530 679 c 2,17,-1
 1463 362 l 2,18,19
 1382 -20 1382 -20 1032 -20 c 0,20,21
 818 -20 818 -20 717 108 c 0,22,23
 627 221 627 221 627 348 c 0,24,25
 627 365 627 365 629 383 c 0,26,27
 648 580 648 580 809 694 c 0,28,29
 941 787 941 787 1163 787 c 1,30,-1
 1107 521 l 1,31,32
 1032 521 1032 521 982 490 c 0,33,34
 926 455 926 455 921 387 c 0,35,36
 921 381 921 381 921 374 c 0,37,38
 921 321 921 321 950 288 c 0,39,40
 984 250 984 250 1058 250 c 0,41,42
 1150 250 1150 250 1175 370 c 2,43,-1
 1240 676 l 2,44,45
 1249 720 1249 720 1249 759 c 0,46,47
 1249 851 1249 851 1196 909 c 0,48,49
 1121 990 1121 990 989 990 c 0,50,51
 850 990 850 990 739 896 c 0,52,53
 630 805 630 805 598 651 c 2,54,-1
 495 153 l 2,55,56
 486 109 486 109 486 70 c 0,57,58
 486 -23 486 -23 539 -80 c 0,59,60
 614 -161 614 -161 746 -161 c 1,61,-1
 689 -430 l 1,0,1
EndSplineSet
Validated: 1
EndChar

StartChar: A
Encoding: 65 65 35
Width: 1822
GlyphClass: 2
Flags: W
HStem: 0 21G<5 351.322 1478.38 1817> 458 302<637.637 1159> 1490 20G<1072.68 1382.83>
VStem: 5 332<0 332> 593 332<820 1152> 1484 333<0 333>
DStem2: 5 0 337 0 0.58246 0.81286<193.377 773.221 1202.41 1202.41> 1377 1510 1155 1170 0.279756 -0.960071<264.318 1479.64>
LayerCount: 2
Fore
SplineSet
5 0 m 1,0,-1
 362 498 l 2,1,2
 550 760 550 760 840 760 c 2,3,-1
 1224 760 l 1,4,-1
 1159 458 l 1,5,-1
 788 458 l 2,6,7
 665 458 665 458 617 391 c 2,8,-1
 337 0 l 1,9,-1
 5 0 l 1,0,-1
1817 0 m 1,10,-1
 1484 0 l 1,11,-1
 1155 1170 l 1,12,-1
 925 820 l 1,13,-1
 593 820 l 1,14,-1
 1087 1510 l 1,15,-1
 1377 1510 l 1,16,-1
 1817 0 l 1,10,-1
EndSplineSet
Validated: 1
EndChar

StartChar: B
Encoding: 66 66 36
Width: 1300
GlyphClass: 2
Flags: W
HStem: -20 300<670 893.75> 0 21G<170 494.257> 684 275<820 955.74> 1246 284<757.513 1007.98>
VStem: 170 320<0 320> 1028 307<399.766 627.428> 1028 283<1029.57 1220.34>
DStem2: 165.749 -20 485.749 -20 0.207912 0.978148<86.9786 1356.37>
LayerCount: 2
Fore
SplineSet
170 0 m 1,0,-1
 416 1159 l 2,1,2
 495 1530 495 1530 915 1530 c 0,3,4
 1112 1530 1112 1530 1231 1395 c 0,5,6
 1311 1305 1311 1305 1311 1183 c 0,7,8
 1311 1157 1311 1157 1307 1129 c 0,9,10
 1284 961 1284 961 1098 850 c 1,11,12
 1213 817 1213 817 1269 740 c 0,13,14
 1335 649 1335 649 1335 536 c 0,15,16
 1335 495 1335 495 1326 450 c 0,17,18
 1285 244 1285 244 1115 119 c 0,19,20
 927 -20 927 -20 606 -20 c 1,21,-1
 670 280 l 1,22,23
 844 280 844 280 925 342 c 128,-1,24
 1006 404 1006 404 1023 484 c 0,25,26
 1028 509 1028 509 1028 530 c 0,27,28
 1028 684 1028 684 761 684 c 1,29,-1
 820 959 l 1,30,31
 890 959 890 959 954 1002 c 0,32,33
 1010 1039 1010 1039 1024 1105 c 0,34,35
 1028 1124 1028 1124 1028 1141 c 0,36,37
 1028 1246 1028 1246 868 1246 c 4,38,39
 755 1246 755 1246 735 1151 c 2,40,-1
 490 0 l 1,41,-1
 170 0 l 1,0,-1
EndSplineSet
Validated: 1
EndChar

StartChar: C
Encoding: 67 67 37
Width: 1503
GlyphClass: 2
Flags: W
HStem: -20 300<721.416 1147.07> 1230 300<900.816 1322.57>
VStem: 223 320<457.68 879.785>
LayerCount: 2
Fore
SplineSet
897 -20 m 0,0,1
 553 -20 553 -20 364 223 c 0,2,3
 223 404 223 404 223 641 c 0,4,5
 223 698 223 698 231 757 c 0,6,7
 277 1096 277 1096 541 1314 c 0,8,9
 804 1530 804 1530 1149 1530 c 0,10,11
 1493 1530 1493 1530 1682 1287 c 1,12,-1
 1430 1098 l 1,13,14
 1325 1230 1325 1230 1124 1230 c 0,15,16
 918 1230 918 1230 754 1100 c 0,17,18
 588 967 588 967 552 755 c 0,19,20
 543 702 543 702 543 645 c 0,21,22
 543 512 543 512 616 412 c 0,23,24
 712 280 712 280 924 280 c 0,25,26
 1135 280 1135 280 1292 410 c 1,27,-1
 1505 196 l 1,28,29
 1242 -20 1242 -20 897 -20 c 0,0,1
EndSplineSet
Validated: 1
EndChar

StartChar: D
Encoding: 68 68 38
Width: 1678
GlyphClass: 2
Flags: W
HStem: -20 300<670 1097.22> 0 21G<170 494.249> 1230 300<758.445 1273.81>
VStem: 170 320<0 320> 1456 320<640.043 1052.32>
DStem2: 165.749 -20 485.749 -20 0.207912 0.978148<86.9786 1337.24>
LayerCount: 2
Fore
SplineSet
170 0 m 1,0,-1
 416 1159 l 2,1,2
 495 1530 495 1530 915 1530 c 2,3,-1
 1102 1530 l 2,4,5
 1446 1530 1446 1530 1635 1287 c 0,6,7
 1776 1106 1776 1106 1776 869 c 0,8,9
 1776 812 1776 812 1768 753 c 0,10,11
 1722 414 1722 414 1458 196 c 0,12,13
 1195 -20 1195 -20 850 -20 c 2,14,-1
 606 -20 l 1,15,-1
 670 280 l 1,16,-1
 877 280 l 2,17,18
 1088 280 1088 280 1245 410 c 0,19,20
 1411 548 1411 548 1447 755 c 0,21,22
 1456 807 1456 807 1456 864 c 0,23,24
 1456 1007 1456 1007 1383 1098 c 0,25,26
 1278 1230 1278 1230 1077 1230 c 2,27,-1
 851 1230 l 2,28,29
 751 1230 751 1230 732 1139 c 2,30,-1
 490 0 l 1,31,-1
 170 0 l 1,0,-1
EndSplineSet
Validated: 1
EndChar

StartChar: E
Encoding: 69 69 39
Width: 1503
GlyphClass: 2
Flags: W
HStem: -20 300<721.416 1147.07> 599 302<702 1298> 1230 300<900.816 1322.57>
VStem: 223 320<457.68 879.785>
LayerCount: 2
Fore
SplineSet
702 901 m 9,0,-1
 1363 901 l 1,1,-1
 1298 599 l 1,2,-1
 637 599 l 17,3,4
 702 901 l 9,0,-1
897 -20 m 0,5,6
 553 -20 553 -20 364 223 c 0,7,8
 223 404 223 404 223 641 c 0,9,10
 223 698 223 698 231 757 c 0,11,12
 277 1096 277 1096 541 1314 c 0,13,14
 804 1530 804 1530 1149 1530 c 0,15,16
 1493 1530 1493 1530 1682 1287 c 1,17,-1
 1430 1098 l 1,18,19
 1325 1230 1325 1230 1124 1230 c 0,20,21
 918 1230 918 1230 754 1100 c 0,22,23
 588 967 588 967 552 755 c 0,24,25
 543 702 543 702 543 645 c 0,26,27
 543 512 543 512 616 412 c 0,28,29
 712 280 712 280 924 280 c 0,30,31
 1135 280 1135 280 1292 410 c 1,32,-1
 1505 196 l 1,33,34
 1242 -20 1242 -20 897 -20 c 0,5,6
EndSplineSet
Validated: 1
EndChar

StartChar: F
Encoding: 70 70 40
Width: 1151
GlyphClass: 2
Flags: W
HStem: 0 21G<170 494.24> 599 302<625.038 1108> 1209 301<754.403 1238>
VStem: 170 320<0 320>
DStem2: 170 0 490 0 0.207912 0.978148<66.5317 669.033 1048.95 1293.68>
LayerCount: 2
Fore
SplineSet
1302 1510 m 1,0,-1
 1238 1209 l 1,1,-1
 847 1209 l 2,2,3
 747 1209 747 1209 727 1113 c 2,4,-1
 694 961 l 1,5,-1
 374 961 l 1,6,-1
 411 1135 l 2,7,8
 491 1510 491 1510 911 1510 c 2,9,-1
 1302 1510 l 1,0,-1
170 0 m 1,10,-1
 281 523 l 2,11,12
 361 901 361 901 782 901 c 2,13,-1
 1173 901 l 1,14,-1
 1108 599 l 1,15,-1
 717 599 l 2,16,17
 617 599 617 599 596 500 c 2,18,-1
 490 0 l 1,19,-1
 170 0 l 1,10,-1
EndSplineSet
Validated: 1
EndChar

StartChar: G
Encoding: 71 71 41
Width: 1677
GlyphClass: 2
Flags: W
HStem: -20 300<725.186 1238.6> 599 302<1092 1313> 1230 300<900.816 1322.57>
VStem: 223 320<457.68 879.355>
LayerCount: 2
Fore
SplineSet
897 -20 m 2,0,1
 553 -20 553 -20 364 223 c 0,2,3
 223 404 223 404 223 641 c 0,4,5
 223 698 223 698 231 757 c 0,6,7
 277 1096 277 1096 541 1314 c 0,8,9
 804 1530 804 1530 1149 1530 c 0,10,11
 1493 1530 1493 1530 1682 1287 c 1,12,-1
 1430 1098 l 1,13,14
 1325 1230 1325 1230 1124 1230 c 0,15,16
 918 1230 918 1230 754 1100 c 0,17,18
 588 966 588 966 552 755 c 0,19,20
 543 702 543 702 543 645 c 0,21,22
 543 513 543 513 616 412 c 0,23,24
 712 280 712 280 924 280 c 2,25,-1
 1146 280 l 2,26,27
 1245 280 1245 280 1263 363 c 2,28,-1
 1313 599 l 1,29,-1
 1027 599 l 1,30,-1
 1092 901 l 1,31,-1
 1698 901 l 1,32,-1
 1582 356 l 2,33,34
 1502 -20 1502 -20 1082 -20 c 2,35,-1
 897 -20 l 2,0,1
EndSplineSet
Validated: 1
EndChar

StartChar: H
Encoding: 72 72 42
Width: 1631
GlyphClass: 2
Flags: W
HStem: 0 21G<170 494.263 1141 1465.25> 599 302<625.038 1148> 1490 20G<486.738 811 1457.75 1782>
VStem: 170 320<0 320> 374 320<961 1281> 491 320<1190 1510> 1141 320<0 320> 1462 320<1190 1510>
DStem2: 170 0 490 0 0.207912 0.978148<66.5317 669.679 1048.95 1543.74> 1141 0 1461 0 0.207912 0.978148<66.5317 1543.74>
LayerCount: 2
Fore
SplineSet
170 0 m 1,0,-1
 281 524 l 2,1,2
 361 901 361 901 782 901 c 2,3,-1
 1213 901 l 1,4,-1
 1148 599 l 1,5,-1
 717 599 l 2,6,7
 617 599 617 599 597 502 c 2,8,-1
 490 0 l 1,9,-1
 170 0 l 1,0,-1
1461 0 m 1,10,-1
 1141 0 l 1,11,-1
 1462 1510 l 1,12,-1
 1782 1510 l 1,13,-1
 1461 0 l 1,10,-1
374 961 m 1,14,-1
 491 1510 l 1,15,-1
 811 1510 l 1,16,-1
 694 961 l 1,17,-1
 374 961 l 1,14,-1
EndSplineSet
Validated: 1
EndChar

StartChar: I
Encoding: 73 73 43
Width: 660
GlyphClass: 2
Flags: W
HStem: 0 21G<170 494.252> 1490 20G<486.748 811>
VStem: 170 320<0 320> 491 320<1190 1510>
DStem2: 170 0 490 0 0.207912 0.978148<66.5317 1543.74>
LayerCount: 2
Fore
SplineSet
170 0 m 1,0,-1
 491 1510 l 1,1,-1
 811 1510 l 1,2,-1
 490 0 l 1,3,-1
 170 0 l 1,0,-1
EndSplineSet
Validated: 1
EndChar

StartChar: J
Encoding: 74 74 44
Width: 1228
GlyphClass: 2
Flags: W
HStem: -20 300<391.372 705.752> 1210 300<619 995>
DStem2: 733.555 -20 1053.47 -20 0.207912 0.978148<395.611 1257.48>
LayerCount: 2
Fore
SplineSet
477 -20 m 0,0,1
 215 -20 215 -20 46 193 c 1,2,-1
 297 415 l 1,3,4
 400 280 400 280 534 280 c 0,5,6
 670 280 670 280 758 361 c 0,7,8
 828 425 828 425 859 570 c 2,9,-1
 995 1210 l 1,10,-1
 555 1210 l 1,11,-1
 619 1510 l 1,12,-1
 1379 1510 l 1,13,-1
 1164 500 l 2,14,15
 1117 279 1117 279 982 148 c 0,16,17
 809 -20 809 -20 477 -20 c 0,0,1
EndSplineSet
Validated: 1
EndChar

StartChar: K
Encoding: 75 75 45
Width: 1500
GlyphClass: 2
Flags: W
HStem: 0 21G<170 494.252 1001.5 1380> 1490 20G<486.748 811 1322.5 1695>
VStem: 170 320<0 320> 491 320<1190 1510> 1375 320<1190 1510>
DStem2: 170 0 490 0 0.207912 0.978148<66.5317 1543.74>
LayerCount: 2
Fore
SplineSet
1380 0 m 1,0,1
 1034 0 l 1,2,3
 969 248 969 248 684 349 c 1,4,-1
 754 679 l 1,5,6
 1270 1015 1270 1015 1375 1510 c 1,7,-1
 1695 1510 l 1,8,9
 1571 878 1571 878 1015 511 c 1,10,11
 1303 367 1303 367 1380 0 c 1,0,1
170 0 m 1,12,-1
 491 1510 l 1,13,-1
 811 1510 l 1,14,-1
 490 0 l 1,15,-1
 170 0 l 1,12,-1
EndSplineSet
Validated: 1
EndChar

StartChar: L
Encoding: 76 76 46
Width: 1078
GlyphClass: 2
Flags: W
HStem: 0 300<554 1068> 1490 20G<486.748 811>
VStem: 491 320<1190 1510>
DStem2: 170 0 490.233 0 0.207912 0.978148<373.282 1543.74>
LayerCount: 2
Fore
SplineSet
170 0 m 1,0,-1
 491 1510 l 1,1,-1
 811 1510 l 1,2,-1
 554 300 l 1,3,-1
 1132 300 l 1,4,-1
 1068 0 l 1,5,-1
 170 0 l 1,0,-1
EndSplineSet
Validated: 1
EndChar

StartChar: M
Encoding: 77 77 47
Width: 2241
GlyphClass: 2
Flags: W
HStem: 0 21G<302 758 960 1284.25 1483 2085> 1090 20G<1191.75 1516> 1230 300<907.08 1833.45>
VStem: 217 311<318.38 834.853> 960 320<0 320> 1196 320<790 1110> 2024 318<642.665 1043.91>
DStem2: 960 0 1280 0 0.207912 0.978148<66.5317 1134.81>
LayerCount: 2
Fore
SplineSet
387 0 m 1,0,1
 217 263 217 263 217 575 c 0,2,3
 217 663 217 663 230 755 c 0,4,5
 277 1076 277 1076 534 1293 c 0,6,7
 813 1530 813 1530 1181 1530 c 2,8,-1
 1710 1530 l 2,9,10
 2028 1530 2028 1530 2207 1293 c 0,11,12
 2342 1113 2342 1113 2342 888 c 0,13,14
 2342 823 2342 823 2331 755 c 0,15,16
 2266 352 2266 352 1904 0 c 1,17,-1
 1483 0 l 1,18,19
 1684 164 1684 164 1820 338 c 0,20,21
 1959 517 1959 517 2011 755 c 0,22,23
 2024 815 2024 815 2024 869 c 0,24,25
 2024 1000 2024 1000 1947 1096 c 0,26,27
 1839 1230 1839 1230 1643 1230 c 2,28,-1
 1120 1230 l 2,29,30
 923 1230 923 1230 759 1096 c 0,31,32
 594 962 594 962 550 755 c 0,33,34
 528 652 528 652 528 560 c 0,35,36
 528 440 528 440 565 338 c 0,37,38
 627 164 627 164 758 0 c 1,39,-1
 387 0 l 1,0,1
1280 0 m 1,40,-1
 960 0 l 1,41,-1
 1196 1110 l 1,42,-1
 1516 1110 l 1,43,-1
 1280 0 l 1,40,-1
EndSplineSet
Validated: 1
EndChar

StartChar: N
Encoding: 78 78 48
Width: 1572
GlyphClass: 2
Flags: W
HStem: 0 21G<170 494.249 814 1416> 1230 300<752.984 1167.77>
VStem: 170 320<0 320> 1355 318<642.665 1043.91>
DStem2: 170 0 490 0 0.207912 0.978148<66.5317 1316.62>
LayerCount: 2
Fore
SplineSet
170 0 m 1,0,-1
 416 1159 l 2,1,2
 495 1530 495 1530 890 1530 c 2,3,-1
 1016 1530 l 2,4,5
 1359 1530 1359 1530 1538 1293 c 0,6,7
 1673 1113 1673 1113 1673 888 c 0,8,9
 1673 823 1673 823 1662 755 c 0,10,11
 1597 352 1597 352 1235 0 c 1,12,-1
 814 0 l 1,13,14
 1015 164 1015 164 1151 338 c 0,15,16
 1292 519 1292 519 1342 755 c 0,17,18
 1355 815 1355 815 1355 869 c 0,19,20
 1355 1000 1355 1000 1278 1096 c 0,21,22
 1170 1230 1170 1230 974 1230 c 2,23,-1
 851 1230 l 2,24,25
 751 1230 751 1230 732 1139 c 2,26,-1
 490 0 l 1,27,-1
 170 0 l 1,0,-1
EndSplineSet
Validated: 1
EndChar

StartChar: O
Encoding: 79 79 49
Width: 1725
GlyphClass: 2
Flags: W
HStem: -20 300<721.416 1147.07> 1230 300<900.816 1322.57>
VStem: 223 320<457.504 879.828> 1503 320<638.065 1053.84>
LayerCount: 2
Fore
SplineSet
924 280 m 0,0,1
 1135 280 1135 280 1292 410 c 0,2,3
 1454 543 1454 543 1494 755 c 0,4,5
 1503 803 1503 803 1503 864 c 0,6,7
 1503 1006 1503 1006 1430 1098 c 0,8,9
 1325 1230 1325 1230 1124 1230 c 0,10,11
 918 1230 918 1230 754 1100 c 0,12,13
 588 967 588 967 552 755 c 0,14,15
 543 702 543 702 543 645 c 0,16,17
 543 512 543 512 616 412 c 0,18,19
 712 280 712 280 924 280 c 0,0,1
897 -20 m 0,20,21
 553 -20 553 -20 364 223 c 0,22,23
 223 404 223 404 223 641 c 0,24,25
 223 698 223 698 231 757 c 0,26,27
 277 1096 277 1096 541 1314 c 0,28,29
 804 1530 804 1530 1149 1530 c 0,30,31
 1493 1530 1493 1530 1682 1287 c 0,32,33
 1823 1106 1823 1106 1823 869 c 0,34,35
 1823 812 1823 812 1815 753 c 0,36,37
 1769 414 1769 414 1505 196 c 0,38,39
 1242 -20 1242 -20 897 -20 c 0,20,21
EndSplineSet
Validated: 1
EndChar

StartChar: P
Encoding: 80 80 50
Width: 1384
GlyphClass: 2
Flags: W
HStem: 0 21G<170 494.249> 332 303<745 985.489> 1230 300<754.432 1067.79>
VStem: 170 320<0 320> 1193 324<821.285 1118.26>
DStem2: 170 0 490 0 0.207912 0.978148<66.5317 1316.8>
LayerCount: 2
Fore
SplineSet
170 0 m 1,0,-1
 416 1159 l 2,1,2
 495 1530 495 1530 915 1530 c 0,3,4
 1200 1530 1200 1530 1362 1370 c 0,5,6
 1517 1217 1517 1217 1517 990 c 0,7,8
 1517 970 1517 970 1516 949 c 0,9,10
 1501 679 1501 679 1285 513 c 0,11,12
 1049 332 1049 332 681 332 c 1,13,-1
 745 635 l 1,14,15
 945 635 945 635 1054 720 c 0,16,17
 1162 803 1162 803 1185 911 c 0,18,19
 1193 948 1193 948 1193 981 c 0,20,21
 1193 1081 1193 1081 1127 1145 c 0,22,23
 1040 1230 1040 1230 851 1230 c 0,24,25
 751 1230 751 1230 732 1139 c 2,26,-1
 490 0 l 1,27,-1
 170 0 l 1,0,-1
EndSplineSet
Validated: 1
EndChar

StartChar: Q
Encoding: 81 81 51
Width: 1725
GlyphClass: 2
Flags: W
HStem: 0 21G<709 869.267 1116.9 1487> 1230 300<900.816 1322.57>
VStem: 223 320<457.675 882.084> 1503 320<635.919 1054.01>
LayerCount: 2
Fore
SplineSet
1487 0 m 1,0,-1
 1128 0 l 1,1,-1
 821 553 l 1,2,-1
 1180 553 l 1,3,-1
 1269 392 l 1,4,5
 1281 401 1281 401 1292 410 c 0,6,7
 1458 548 1458 548 1494 755 c 0,8,9
 1503 807 1503 807 1503 864 c 0,10,11
 1503 1007 1503 1007 1430 1098 c 0,12,13
 1325 1230 1325 1230 1124 1230 c 0,14,15
 918 1230 918 1230 754 1100 c 0,16,17
 584 964 584 964 552 755 c 0,18,19
 543 697 543 697 543 645 c 0,20,21
 543 513 543 513 616 412 c 0,22,23
 712 280 712 280 929 280 c 1,24,-1
 865 -20 l 1,25,26
 553 -20 553 -20 364 223 c 0,27,28
 223 404 223 404 223 641 c 0,29,30
 223 698 223 698 231 757 c 0,31,32
 277 1096 277 1096 541 1314 c 0,33,34
 804 1530 804 1530 1149 1530 c 0,35,36
 1493 1530 1493 1530 1682 1287 c 0,37,38
 1823 1106 1823 1106 1823 869 c 0,39,40
 1823 812 1823 812 1815 753 c 0,41,42
 1769 412 1769 412 1505 196 c 0,43,44
 1461 160 1461 160 1415 130 c 1,45,-1
 1487 0 l 1,0,-1
EndSplineSet
Validated: 1
EndChar

StartChar: R
Encoding: 82 82 52
Width: 1527
GlyphClass: 2
Flags: W
HStem: 0 21G<170 494.249 1043.75 1522> 1230 300<754.432 1067.79>
VStem: 170 320<0 320> 1193 324<826.18 1118.26>
DStem2: 170 0 490 0 0.207912 0.978148<66.5317 1316.8>
LayerCount: 2
Fore
SplineSet
170 0 m 1,0,-1
 416 1159 l 2,1,2
 495 1530 495 1530 915 1530 c 0,3,4
 1200 1530 1200 1530 1362 1370 c 0,5,6
 1517 1217 1517 1217 1517 990 c 0,7,8
 1517 970 1517 970 1516 949 c 0,9,10
 1501 671 1501 671 1283 527 c 0,11,12
 1183 461 1183 461 1037 410 c 1,13,-1
 1522 0 l 1,14,-1
 1067 0 l 1,15,-1
 681 332 l 1,16,-1
 745 635 l 1,17,18
 938 635 938 635 1053 725 c 0,19,20
 1164 811 1164 811 1185 911 c 0,21,22
 1193 948 1193 948 1193 981 c 0,23,24
 1193 1081 1193 1081 1127 1145 c 0,25,26
 1040 1230 1040 1230 851 1230 c 0,27,28
 751 1230 751 1230 732 1139 c 2,29,-1
 490 0 l 1,30,-1
 170 0 l 1,0,-1
EndSplineSet
Validated: 1
EndChar

StartChar: S
Encoding: 83 83 53
Width: 1338
GlyphClass: 2
Flags: W
HStem: -20 300<534.121 887.249> 1245 285<840.664 1096.75>
VStem: 492 316<1037.92 1209.83> 1024 329<399.817 624.511>
LayerCount: 2
Fore
SplineSet
646 -20 m 0,0,1
 283 -20 283 -20 128 274 c 1,2,-1
 409 447 l 1,3,4
 512 280 512 280 708 280 c 0,5,6
 831 280 831 280 917 342 c 0,7,8
 1006 405 1006 405 1021 487 c 0,9,10
 1024 503 1024 503 1024 518 c 0,11,12
 1024 616 1024 616 923 661 c 2,13,-1
 783 724 l 2,14,15
 492 855 492 855 492 1089 c 0,16,17
 492 1123 492 1123 498 1159 c 0,18,19
 527 1341 527 1341 700 1454 c 0,20,21
 816 1530 816 1530 992 1530 c 0,22,23
 1257 1530 1257 1530 1406 1323 c 1,24,-1
 1146 1141 l 1,25,26
 1085 1245 1085 1245 978 1245 c 0,27,28
 841 1245 841 1245 813 1153 c 0,29,30
 808 1137 808 1137 808 1117 c 0,31,32
 808 1045 808 1045 932 988 c 2,33,-1
 1090 916 l 2,34,35
 1353 796 1353 796 1353 552 c 0,36,37
 1353 505 1353 505 1344 454 c 0,38,39
 1313 274 1313 274 1149 140 c 0,40,41
 953 -20 953 -20 646 -20 c 0,0,1
EndSplineSet
Validated: 1
EndChar

StartChar: T
Encoding: 84 84 54
Width: 1210
GlyphClass: 2
Flags: W
HStem: 0 21G<446 770.245> 1210 300<331 643 1030.4 1457>
VStem: 446 320<0 320>
DStem2: 446 0 766 0 0.207912 0.978148<66.5317 1293.04>
LayerCount: 2
Fore
SplineSet
446 0 m 1,0,-1
 687 1134 l 2,1,2
 767 1510 767 1510 1187 1510 c 2,3,-1
 1521 1510 l 1,4,-1
 1457 1209 l 1,5,-1
 1123 1209 l 2,6,7
 1023 1209 1023 1209 1002 1112 c 2,8,-1
 766 0 l 1,9,-1
 446 0 l 1,0,-1
331 1510 m 1,10,-1
 707 1510 l 1,11,-1
 643 1210 l 1,12,-1
 267 1210 l 1,13,-1
 331 1510 l 1,10,-1
EndSplineSet
Validated: 1
EndChar

StartChar: U
Encoding: 85 85 55
Width: 1572
VWidth: 2028
GlyphClass: 2
Flags: W
HStem: -20 300<725.228 1140.02> 1490 20G<477 1079 1398.75 1723>
VStem: 220 318<466.093 867.335> 1403 320<1190 1510>
DStem2: 1077.89 -20 1398.14 -20 0.207912 0.978148<314.076 1564.16>
LayerCount: 2
Fore
SplineSet
1003 -20 m 2,0,-1
 877 -20 l 2,1,2
 534 -20 534 -20 355 217 c 0,3,4
 220 397 220 397 220 622 c 0,5,6
 220 687 220 687 231 755 c 0,7,8
 296 1158 296 1158 658 1510 c 1,9,-1
 1079 1510 l 1,10,11
 878 1346 878 1346 742 1172 c 0,12,13
 601 991 601 991 551 755 c 0,14,15
 538 695 538 695 538 641 c 0,16,17
 538 510 538 510 615 414 c 0,18,19
 723 280 723 280 919 280 c 2,20,-1
 1042 280 l 2,21,22
 1142 280 1142 280 1161 371 c 2,23,-1
 1403 1510 l 1,24,-1
 1723 1510 l 1,25,-1
 1477 351 l 2,26,27
 1398 -20 1398 -20 1003 -20 c 2,0,-1
EndSplineSet
Validated: 1
EndChar

StartChar: V
Encoding: 86 86 56
Width: 1634
GlyphClass: 2
Flags: W
HStem: 0 21G<458 1327> 1490 20G<443 891 1385 1756.5>
VStem: 264 324<603.5 1096.04> 1478 320<928.919 1417.75>
LayerCount: 2
Fore
SplineSet
652 0 m 1,0,1
 264 415 264 415 264 823 c 0,2,3
 264 914 264 914 284 1005 c 0,4,5
 347 1301 347 1301 539 1510 c 1,6,-1
 891 1510 l 1,7,8
 669 1306 669 1306 604 1005 c 0,9,10
 588 932 588 932 588 857 c 0,11,12
 588 560 588 560 838 234 c 1,13,14
 1387 671 1387 671 1458 1005 c 0,15,16
 1478 1100 1478 1100 1478 1186 c 0,17,18
 1478 1370 1478 1370 1385 1510 c 1,19,-1
 1715 1510 l 1,20,21
 1798 1367 1798 1367 1798 1190 c 0,22,23
 1798 1102 1798 1102 1778 1005 c 0,24,25
 1672 507 1672 507 982 0 c 1,26,-1
 652 0 l 1,0,1
EndSplineSet
Validated: 1
EndChar

StartChar: W
Encoding: 87 87 57
Width: 2238
GlyphClass: 2
Flags: W
HStem: -20 300<721.572 1015.57 1439 1651.92> 1490 20G<477 1079 1275.75 1600 1801 2257>
VStem: 220 318<466.093 867.335> 1280 320<1190 1510> 2031 311<675.147 1191.62>
DStem2: 954.89 -20 1275.14 -20 0.207912 0.978148<313.894 1564.16>
LayerCount: 2
Fore
SplineSet
1378 -20 m 9,0,-1
 1439 280 l 17,1,2
 1636 280 1636 280 1800 414 c 0,3,4
 1965 548 1965 548 2009 755 c 0,5,6
 2031 858 2031 858 2031 950 c 0,7,8
 2031 1070 2031 1070 1994 1172 c 0,9,10
 1932 1346 1932 1346 1801 1510 c 1,11,-1
 2172 1510 l 1,12,13
 2342 1247 2342 1247 2342 935 c 0,14,15
 2342 847 2342 847 2329 755 c 0,16,17
 2282 434 2282 434 2025 217 c 0,18,19
 1746 -20 1746 -20 1378 -20 c 9,0,-1
855 -20 m 24,20,21
 534 -20 534 -20 355 217 c 0,22,23
 220 397 220 397 220 622 c 0,24,25
 220 687 220 687 231 755 c 0,26,27
 296 1158 296 1158 658 1510 c 1,28,-1
 1079 1510 l 1,29,30
 878 1346 878 1346 742 1172 c 0,31,32
 603 993 603 993 551 755 c 0,33,34
 538 695 538 695 538 641 c 0,35,36
 538 510 538 510 615 414 c 0,37,38
 723 280 723 280 919 280 c 24,39,40
 1019 280 1019 280 1038 371 c 2,41,-1
 1280 1510 l 1,42,-1
 1600 1510 l 1,43,-1
 1354 351 l 2,44,45
 1275 -20 1275 -20 855 -20 c 24,20,21
EndSplineSet
Validated: 1
EndChar

StartChar: X
Encoding: 88 88 58
Width: 1399
GlyphClass: 2
Flags: W
HStem: 0 21G<90 456.5 998 1320.5> 1490 20G<397.5 711 1262 1630>
VStem: 90 320<0 320> 384 305<1092.8 1506.41> 1016 316<3.04468 379.887> 1310 320<1190 1510>
LayerCount: 2
Fore
SplineSet
1310 1510 m 1,0,-1
 1630 1510 l 1,1,2
 1532 1050 1532 1050 1206 908 c 1,3,-1
 883 908 l 1,4,5
 1214 1058 1214 1058 1310 1510 c 1,0,-1
90 0 m 1,6,7
 184 440 184 440 498 581 c 1,8,-1
 816 581 l 1,9,10
 503 440 503 440 410 0 c 1,11,-1
 90 0 l 1,6,7
998 0 m 1,12,13
 1016 84 1016 84 1016 161 c 0,14,15
 1016 478 1016 478 712 668 c 0,16,17
 384 874 384 874 384 1267 c 0,18,19
 384 1381 384 1381 411 1510 c 1,20,-1
 711 1510 l 1,21,22
 689 1409 689 1409 689 1320 c 0,23,24
 689 1010 689 1010 952 848 c 0,25,26
 1332 613 1332 613 1332 211 c 0,27,28
 1332 111 1332 111 1309 0 c 1,29,-1
 998 0 l 1,12,13
EndSplineSet
Validated: 1
EndChar

StartChar: Y
Encoding: 89 89 59
Width: 1372
GlyphClass: 2
Flags: W
HStem: 0 21G<529 853.246> 1490 20G<375.5 686 1255 1623>
VStem: 360 299<1050.25 1505.86> 529 320<0 320> 647 325<369.188 690.739> 1303 320<1352.21 1510>
DStem2: 529 0 849 0 0.207912 0.978148<66.5317 584.462>
LayerCount: 2
Fore
SplineSet
1303 1510 m 1,0,-1
 1623 1510 l 1,1,2
 1519 1022 1519 1022 1165 871 c 1,3,-1
 862 871 l 1,4,5
 1207 1058 1207 1058 1303 1510 c 1,0,-1
849 0 m 1,6,7
 529 0 l 1,8,-1
 643 537 l 2,9,10
 647 555 647 555 647 573 c 0,11,12
 647 657 647 657 561 735 c 0,13,14
 360 918 360 918 360 1237 c 0,15,16
 360 1363 360 1363 391 1510 c 1,17,-1
 686 1510 l 1,18,19
 659 1392 659 1392 659 1289 c 0,20,21
 659 999 659 999 874 823 c 0,22,23
 972 742 972 742 972 617 c 0,24,25
 972 579 972 579 963 537 c 2,26,-1
 849 0 l 1,6,7
EndSplineSet
Validated: 1
EndChar

StartChar: Z
Encoding: 90 90 60
Width: 1307
GlyphClass: 2
Flags: W
HStem: 0 300<574 1237> 1210 300<471 1148.99>
VStem: 70 345<0 345> 1149 357<1150.16 1407.5>
LayerCount: 2
Fore
SplineSet
70 0 m 1,0,1
 192 569 192 569 707 842 c 0,2,3
 1149 1076 1149 1076 1149 1186 c 0,4,5
 1149 1210 1149 1210 1113 1210 c 2,6,-1
 407 1210 l 1,7,-1
 471 1510 l 1,8,-1
 1232 1510 l 2,9,10
 1506 1510 1506 1510 1506 1305 c 0,11,12
 1506 1266 1506 1266 1496 1220 c 8,13,14
 1421 864 1421 864 883 602 c 0,15,16
 504 417 504 417 415 0 c 1,17,-1
 70 0 l 1,0,1
1237 0 m 1,18,-1
 510 0 l 1,19,-1
 574 300 l 1,20,-1
 1301 300 l 1,21,-1
 1237 0 l 1,18,-1
EndSplineSet
Validated: 1
EndChar

StartChar: bracketleft
Encoding: 91 91 61
Width: 843
GlyphClass: 2
Flags: W
HStem: -312 262<449 757> 1558 262<791 1154>
DStem2: 104 -312 393.31 -312 0.207912 0.978148<328.004 1971.97>
LayerCount: 2
Fore
SplineSet
104 -312 m 1,0,-1
 557 1820 l 1,1,-1
 1210 1820 l 1,2,-1
 1154 1558 l 1,3,-1
 791 1558 l 1,4,-1
 449 -50 l 1,5,-1
 812 -50 l 1,6,-1
 757 -312 l 1,7,-1
 104 -312 l 1,0,-1
EndSplineSet
Validated: 1
EndChar

StartChar: backslash
Encoding: 92 92 62
Width: 1175
GlyphClass: 2
Flags: W
DStem2: 622 1769 361 1653 0.258761 -0.965941<44.5125 1980.33>
LayerCount: 2
Fore
SplineSet
622 1769 m 1,0,-1
 1134 -144 l 1,1,-1
 874 -262 l 1,2,-1
 361 1653 l 1,3,-1
 622 1769 l 1,0,-1
EndSplineSet
Validated: 1
EndChar

StartChar: bracketright
Encoding: 93 93 63
Width: 843
GlyphClass: 2
Flags: W
HStem: -312 262<9 372> 1558 262<407 714>
DStem2: 316.31 -312 607 -312 0.207912 0.978148<267.853 1911.82>
LayerCount: 2
Fore
SplineSet
607 -312 m 1,0,-1
 -46 -312 l 1,1,-1
 9 -50 l 1,2,-1
 372 -50 l 1,3,-1
 714 1558 l 1,4,-1
 351 1558 l 1,5,-1
 407 1820 l 1,6,-1
 1060 1820 l 1,7,-1
 607 -312 l 1,0,-1
EndSplineSet
Validated: 1
EndChar

StartChar: asciicircum
Encoding: 94 94 64
Width: 1008
GlyphClass: 2
Flags: W
DStem2: 265 1151 445 921 0.770022 0.638018<0 425.272>
LayerCount: 2
Fore
SplineSet
825 1615 m 1,0,-1
 1223 1106 l 1,1,-1
 998 919 l 1,2,-1
 780 1196 l 1,3,-1
 445 921 l 1,4,-1
 265 1151 l 1,5,-1
 825 1615 l 1,0,-1
EndSplineSet
Validated: 1
EndChar

StartChar: underscore
Encoding: 95 95 65
Width: 1193
GlyphClass: 2
Flags: W
HStem: -302 262<111 1009>
LayerCount: 2
Fore
SplineSet
111 -40 m 1,0,-1
 1064 -40 l 1,1,-1
 1009 -302 l 1,2,-1
 56 -302 l 1,3,-1
 111 -40 l 1,0,-1
EndSplineSet
Validated: 1
EndChar

StartChar: grave
Encoding: 96 96 66
Width: 504
GlyphClass: 2
Flags: W
HStem: 1216 450
VStem: 340 436
DStem2: 516 1666 340 1507 0.667692 -0.744438<0.851883 389.487>
LayerCount: 2
Fore
SplineSet
516 1666 m 5,0,-1
 776 1376 l 1,1,-1
 601 1216 l 1,2,-1
 340 1507 l 1,3,-1
 516 1666 l 5,0,-1
EndSplineSet
Validated: 1
EndChar

StartChar: a
Encoding: 97 97 67
Width: 1303
GlyphClass: 2
Flags: W
HStem: 0 21G<578.5 713.214 833 1137.24> 840 280<687.081 984.592>
VStem: 180 307<349.879 647.906> 833 300<0 300> 992 305<565.312 976.5>
DStem2: 828.749 -20 1128.75 -20 0.207912 0.978148<82.8203 802.337>
LayerCount: 2
Fore
SplineSet
1133 0 m 1,0,-1
 833 0 l 1,1,-1
 989 736 l 2,2,3
 992 752 992 752 992 766 c 0,4,5
 992 840 992 840 892 840 c 0,6,7
 732 840 732 840 627 759 c 128,-1,8
 522 678 522 678 495 549 c 0,9,10
 487 512 487 512 487 480 c 0,11,12
 487 396 487 396 539 340 c 0,13,14
 614 260 614 260 768 260 c 1,15,-1
 709 -20 l 1,16,17
 448 -20 448 -20 307 142 c 0,18,19
 180 287 180 287 180 463 c 0,20,21
 180 518 180 518 192 575 c 0,22,23
 248 837 248 837 471 989 c 0,24,25
 664 1120 664 1120 951 1120 c 0,26,27
 1297 1120 1297 1120 1297 833 c 0,28,29
 1297 772 1297 772 1281 698 c 2,30,-1
 1133 0 l 1,0,-1
EndSplineSet
Validated: 1
EndChar

StartChar: b
Encoding: 98 98 68
Width: 1303
GlyphClass: 2
Flags: W
HStem: -20 280<552.408 849.919> 1100 20G<823.786 958.5> 1490 20G<486.758 791>
VStem: 240 305<123.5 524.172> 491 300<1210 1510> 1050 307<452.094 750.121>
DStem2: 166.301 -20 466.378 -20 0.207912 0.978148<425.489 1564.07>
LayerCount: 2
Fore
SplineSet
491 1510 m 1,0,-1
 791 1510 l 1,1,-1
 548 364 l 2,2,3
 545 350 545 350 545 334 c 0,4,5
 545 260 545 260 645 260 c 0,6,7
 805 260 805 260 910 341 c 128,-1,8
 1015 422 1015 422 1042 551 c 0,9,10
 1050 588 1050 588 1050 620 c 0,11,12
 1050 704 1050 704 998 760 c 0,13,14
 923 840 923 840 769 840 c 1,15,-1
 828 1120 l 1,16,17
 1089 1120 1089 1120 1230 958 c 0,18,19
 1357 813 1357 813 1357 637 c 0,20,21
 1357 582 1357 582 1345 525 c 0,22,23
 1289 263 1289 263 1066 111 c 0,24,25
 873 -20 873 -20 586 -20 c 0,26,27
 240 -20 240 -20 240 267 c 0,28,29
 240 327 240 327 256 402 c 2,30,-1
 491 1510 l 1,0,-1
EndSplineSet
Validated: 1
EndChar

StartChar: c
Encoding: 99 99 69
Width: 1136
GlyphClass: 2
Flags: W
HStem: -20 280<558.678 889.78> 840 280<663.502 1042.15>
VStem: 184 296<339.012 654.433>
LayerCount: 2
Fore
SplineSet
686 -20 m 0,0,1
 447 -20 447 -20 301 146 c 0,2,3
 184 279 184 279 184 477 c 0,4,5
 184 515 184 515 188 555 c 0,6,7
 217 809 217 809 431 972 c 0,8,9
 626 1120 626 1120 868 1120 c 0,10,11
 1105 1120 1105 1120 1253 954 c 1,12,-1
 1030 761 l 1,13,14
 970 840 970 840 839 840 c 0,15,16
 711 840 711 840 615 764 c 0,17,18
 510 680 510 680 486 550 c 0,19,20
 480 514 480 514 480 482 c 0,21,22
 480 397 480 397 524 339 c 0,23,24
 584 260 584 260 715 260 c 0,25,26
 839 260 839 260 939 336 c 1,27,-1
 1123 128 l 1,28,29
 928 -20 928 -20 686 -20 c 0,0,1
EndSplineSet
Validated: 1
EndChar

StartChar: d
Encoding: 100 100 70
Width: 1303
GlyphClass: 2
Flags: W
HStem: -20 280<575.937 876.33> 840 280<687.5 892> 1490 20G<1149.74 1454>
VStem: 180 307<351.279 647.479> 1154 300<1210 1510>
DStem2: 828.378 -20 1129.05 -20 0.207912 0.978148<303.756 1564.27>
LayerCount: 2
Fore
SplineSet
709 -20 m 0,0,1
 448 -20 448 -20 307 142 c 0,2,3
 180 288 180 288 180 463 c 0,4,5
 180 520 180 520 192 575 c 0,6,7
 252 841 252 841 471 989 c 0,8,9
 664 1120 664 1120 951 1120 c 1,10,-1
 892 840 l 1,11,12
 734 840 734 840 627 759 c 0,13,14
 524 682 524 682 495 549 c 0,15,16
 487 512 487 512 487 480 c 0,17,18
 487 403 487 403 538 340 c 0,19,20
 603 260 603 260 709 260 c 0,21,22
 888 260 888 260 910 364 c 2,23,-1
 1154 1510 l 1,24,-1
 1454 1510 l 1,25,-1
 1206 342 l 2,26,27
 1129 -20 1129 -20 709 -20 c 0,0,1
EndSplineSet
Validated: 1
EndChar

StartChar: e
Encoding: 101 101 71
Width: 1136
GlyphClass: 2
Flags: W
HStem: -20 280<558.678 889.78> 430 240<632 947> 840 280<663.502 1042.15>
VStem: 184 296<339.012 654.433>
CounterMasks: 1 e0
LayerCount: 2
Fore
SplineSet
632 670 m 9,0,-1
 998 670 l 1,1,-1
 947 430 l 1,2,-1
 581 430 l 17,3,4
 632 670 l 9,0,-1
686 -20 m 0,5,6
 447 -20 447 -20 301 146 c 0,7,8
 184 279 184 279 184 477 c 0,9,10
 184 515 184 515 188 555 c 0,11,12
 217 809 217 809 431 972 c 0,13,14
 626 1120 626 1120 868 1120 c 0,15,16
 1105 1120 1105 1120 1253 954 c 1,17,-1
 1030 761 l 1,18,19
 970 840 970 840 839 840 c 0,20,21
 711 840 711 840 615 764 c 0,22,23
 510 680 510 680 486 550 c 0,24,25
 480 514 480 514 480 482 c 0,26,27
 480 397 480 397 524 339 c 0,28,29
 584 260 584 260 715 260 c 0,30,31
 839 260 839 260 939 336 c 1,32,-1
 1123 128 l 1,33,34
 928 -20 928 -20 686 -20 c 0,5,6
EndSplineSet
Validated: 1
EndChar

StartChar: f
Encoding: 102 102 72
Width: 850
GlyphClass: 2
Flags: W
HStem: 0 21G<170 474.24> 820 280<656.663 1014> 1250 280<775.23 1106>
VStem: 170 300<0 300> 417 300<1160 1460>
DStem2: 170 0 470 0 0.207912 0.978148<62.3735 893.822 1248.38 1309.05>
LayerCount: 2
Fore
SplineSet
170 0 m 1,0,-1
 327 739 l 2,1,2
 404 1100 404 1100 824 1100 c 2,3,-1
 1074 1100 l 1,4,-1
 1014 820 l 1,5,-1
 764 820 l 2,6,7
 644 820 644 820 622 717 c 2,8,-1
 470 0 l 1,9,-1
 170 0 l 1,0,-1
1165 1530 m 1,10,-1
 1106 1250 l 1,11,12
 736 1250 736 1250 717 1160 c 1,13,-1
 417 1160 l 1,14,15
 497 1530 497 1530 1165 1530 c 1,10,-1
EndSplineSet
Validated: 1
EndChar

StartChar: g
Encoding: 103 103 73
Width: 1303
GlyphClass: 2
Flags: W
HStem: -430 280<461 684.459> -20 21G<578.5 713.214> 840 280<687.081 984.592>
VStem: 180 307<350.838 646.512> 992 305<564.742 976.5>
DStem2: 741.529 -430 1042.02 -430 0.207912 0.978148<394.511 1221.45>
LayerCount: 2
Fore
SplineSet
709 -20 m 1,0,1
 448 -20 448 -20 307 142 c 0,2,3
 180 287 180 287 180 463 c 0,4,5
 180 518 180 518 192 575 c 0,6,7
 248 837 248 837 471 989 c 0,8,9
 664 1120 664 1120 951 1120 c 0,10,11
 1297 1120 1297 1120 1297 833 c 0,12,13
 1297 774 1297 774 1281 698 c 2,14,-1
 1167 158 l 2,15,16
 1098 -167 1098 -167 931 -283 c 0,17,18
 719 -430 719 -430 402 -430 c 5,19,-1
 461 -150 l 1,20,21
 635 -150 635 -150 733 -80 c 0,22,23
 831 -9 831 -9 868 165 c 2,24,-1
 989 736 l 2,25,26
 992 750 992 750 992 766 c 0,27,28
 992 840 992 840 892 840 c 0,29,30
 732 840 732 840 627 759 c 128,-1,31
 522 678 522 678 495 549 c 0,32,33
 487 512 487 512 487 480 c 0,34,35
 487 396 487 396 539 340 c 0,36,37
 614 260 614 260 768 260 c 1,38,-1
 709 -20 l 1,0,1
EndSplineSet
Validated: 1
EndChar

StartChar: h
Encoding: 104 104 74
Width: 1318
GlyphClass: 2
Flags: W
HStem: 0 21G<170 474.252 614 1173> 1100 20G<823.786 960.5> 1490 20G<486.748 791>
VStem: 170 300<0 300> 491 300<1210 1510> 1067 302<408.822 737.198>
DStem2: 170 0 470 0 0.207912 0.978148<62.3735 1543.74>
LayerCount: 2
Fore
SplineSet
1014 0 m 1,0,-1
 614 0 l 1,1,2
 818 136 818 136 934 268 c 0,3,4
 1038 387 1038 387 1062 535 c 0,5,6
 1067 567 1067 567 1067 595 c 0,7,8
 1067 694 1067 694 1007 756 c 0,9,10
 925 840 925 840 769 840 c 1,11,-1
 828 1120 l 1,12,13
 1093 1120 1093 1120 1233 980 c 0,14,15
 1369 844 1369 844 1369 627 c 0,16,17
 1369 590 1369 590 1365 551 c 0,18,19
 1332 218 1332 218 1014 0 c 1,0,-1
170 0 m 1,20,-1
 491 1510 l 1,21,-1
 791 1510 l 1,22,-1
 470 0 l 1,23,-1
 170 0 l 1,20,-1
EndSplineSet
Validated: 1
EndChar

StartChar: i
Encoding: 105 105 75
Width: 640
GlyphClass: 2
Flags: W
HStem: 0 21G<170 474.255> 1080 20G<399.745 704> 1182 368<505.541 716.4>
VStem: 170 300<0 300> 404 300<800 1100> 420 380<1264.06 1466.94>
DStem2: 170 0 470 0 0.207912 0.978148<62.3735 1124.61>
LayerCount: 2
Fore
SplineSet
640 1550 m 0,0,1
 722 1550 722 1550 766 1493 c 0,2,3
 799 1450 799 1450 800 1393 c 0,4,5
 800 1380 800 1380 798 1365 c 0,6,7
 787 1284 787 1284 724.5 1233 c 128,-1,8
 662 1182 662 1182 580 1182 c 128,-1,9
 498 1182 498 1182 454 1240 c 0,10,11
 421 1283 421 1283 420 1339 c 0,12,13
 420 1352 420 1352 422 1366 c 0,14,15
 433 1447 433 1447 495 1498 c 0,16,17
 559 1550 559 1550 640 1550 c 0,0,1
170 0 m 1,18,-1
 404 1100 l 1,19,-1
 704 1100 l 1,20,-1
 470 0 l 1,21,-1
 170 0 l 1,18,-1
EndSplineSet
Validated: 1
EndChar

StartChar: j
Encoding: 106 106 76
Width: 640
GlyphClass: 2
Flags: W
HStem: -430 21G<-96.8076 16> 1080 20G<399.741 704> 1182 368<505.541 716.4>
VStem: 404 300<800 1100> 420 380<1264.06 1466.94>
DStem2: 78.4033 -430 378.403 -430 0.207912 0.978148<399.055 1564.26>
LayerCount: 2
Fore
SplineSet
640 1550 m 0,0,1
 722 1550 722 1550 766 1493 c 0,2,3
 799 1450 799 1450 800 1393 c 0,4,5
 800 1380 800 1380 798 1365 c 0,6,7
 787 1284 787 1284 724.5 1233 c 128,-1,8
 662 1182 662 1182 580 1182 c 128,-1,9
 498 1182 498 1182 454 1240 c 0,10,11
 421 1283 421 1283 420 1339 c 0,12,13
 420 1352 420 1352 422 1366 c 0,14,15
 433 1447 433 1447 495 1498 c 0,16,17
 559 1550 559 1550 640 1550 c 0,0,1
-40 -139 m 1,18,19
 153 -79 153 -79 207 175 c 2,20,-1
 404 1100 l 1,21,-1
 704 1100 l 1,22,-1
 507 175 l 2,23,24
 441 -134 441 -134 287 -262 c 128,-1,25
 133 -390 133 -390 -101 -430 c 1,26,-1
 -40 -139 l 1,18,19
EndSplineSet
Validated: 1
EndChar

StartChar: k
Encoding: 107 107 77
Width: 1366
GlyphClass: 2
Flags: W
HStem: 0 21G<170 474.252 923.5 1266> 1080 20G<1107.5 1448> 1490 20G<486.748 791>
VStem: 170 300<0 300> 491 300<1210 1510> 1148 300<800 1100>
DStem2: 170 0 470 0 0.207912 0.978148<62.3735 1543.74>
LayerCount: 2
Fore
SplineSet
1266 0 m 1,0,1
 951 0 l 1,2,3
 896 219 896 219 651 285 c 1,4,-1
 719 605 l 1,5,6
 1067 722 1067 722 1148 1100 c 1,7,-1
 1448 1100 l 1,8,9
 1337 575 1337 575 976 440 c 1,10,11
 1199 352 1199 352 1266 0 c 1,0,1
170 0 m 1,12,-1
 491 1510 l 1,13,-1
 791 1510 l 1,14,-1
 470 0 l 1,15,-1
 170 0 l 1,12,-1
EndSplineSet
Validated: 1
EndChar

StartChar: l
Encoding: 108 108 78
Width: 640
GlyphClass: 2
Flags: W
HStem: 0 21G<170 474.252> 1490 20G<486.748 791>
VStem: 170 300<0 300> 491 300<1210 1510>
DStem2: 170 0 470 0 0.207912 0.978148<62.3735 1543.74>
LayerCount: 2
Fore
SplineSet
170 0 m 1,0,-1
 491 1510 l 1,1,-1
 791 1510 l 1,2,-1
 470 0 l 1,3,-1
 170 0 l 1,0,-1
EndSplineSet
Validated: 1
EndChar

StartChar: m
Encoding: 109 109 79
Width: 1778
GlyphClass: 2
Flags: W
HStem: 0 21G<266.5 704 739 1043.26 1074 1632.5> 840 280<704.143 1412.69>
VStem: 179 294<249.389 624.984> 739 300<0 300> 888 300<400 700> 1527 302<410.474 736.566>
DStem2: 739 0 1039 0 0.207912 0.978148<62.3735 715.682>
LayerCount: 2
Fore
SplineSet
354 0 m 1,0,1
 179 182 179 182 179 437 c 0,2,3
 179 492 179 492 187 551 c 0,4,5
 225 822 225 822 451 980 c 0,6,7
 651 1120 651 1120 966 1120 c 2,8,-1
 1288 1120 l 2,9,10
 1553 1120 1553 1120 1693 980 c 0,11,12
 1829 844 1829 844 1829 627 c 0,13,14
 1829 590 1829 590 1825 551 c 0,15,16
 1791 217 1791 217 1474 0 c 1,17,-1
 1074 0 l 1,18,19
 1278 136 1278 136 1394 268 c 0,20,21
 1498 387 1498 387 1522 535 c 0,22,23
 1527 567 1527 567 1527 595 c 0,24,25
 1527 694 1527 694 1467 756 c 0,26,27
 1385 840 1385 840 1229 840 c 2,28,-1
 907 840 l 2,29,30
 751 840 751 840 633 756 c 0,31,32
 512 670 512 670 484 535 c 0,33,34
 473 484 473 484 473 436 c 0,35,36
 473 350 473 350 507 272 c 0,37,38
 558 153 558 153 704 0 c 1,39,-1
 354 0 l 1,0,1
1039 0 m 1,40,-1
 739 0 l 1,41,-1
 888 700 l 1,42,-1
 1188 700 l 1,43,-1
 1039 0 l 1,40,-1
EndSplineSet
Validated: 1
EndChar

StartChar: n
Encoding: 110 110 80
Width: 1318
GlyphClass: 2
Flags: W
HStem: 0 21G<170 474.254 614 1171.5> 840 280<662.821 955.036>
VStem: 170 300<0 300> 1069 301<425.643 732.875>
DStem2: 170 0 470 0 0.207912 0.978148<62.3735 906.293>
LayerCount: 2
Fore
SplineSet
170 0 m 1,0,-1
 332 762 l 2,1,2
 408 1120 408 1120 803 1120 c 0,3,4
 1093 1120 1093 1120 1233 980 c 0,5,6
 1370 843 1370 843 1370 632 c 0,7,8
 1370 593 1370 593 1365 551 c 0,9,10
 1329 234 1329 234 1014 0 c 1,11,-1
 614 0 l 1,12,13
 821 150 821 150 927 272 c 0,14,15
 1032 394 1032 394 1062 535 c 0,16,17
 1069 569 1069 569 1069 600 c 0,18,19
 1069 692 1069 692 1007 756 c 0,20,21
 925 840 925 840 779 840 c 24,22,23
 649 840 649 840 624 724 c 2,24,-1
 470 0 l 1,25,-1
 170 0 l 1,0,-1
EndSplineSet
Validated: 1
EndChar

StartChar: o
Encoding: 111 111 81
Width: 1320
GlyphClass: 2
Flags: W
HStem: -20 280<558.678 889.78> 840 280<663.502 994.917>
VStem: 184 296<339.012 654.433> 1074 297<445.243 758.609>
LayerCount: 2
Fore
SplineSet
686 -20 m 0,0,1
 447 -20 447 -20 301 146 c 0,2,3
 184 279 184 279 184 477 c 0,4,5
 184 515 184 515 188 555 c 0,6,7
 217 809 217 809 431 972 c 0,8,9
 626 1120 626 1120 868 1120 c 0,10,11
 1105 1120 1105 1120 1253 954 c 0,12,13
 1371 822 1371 822 1371 626 c 0,14,15
 1371 587 1371 587 1366 545 c 0,16,17
 1336 290 1336 290 1123 128 c 0,18,19
 928 -20 928 -20 686 -20 c 0,0,1
715 260 m 0,20,21
 839 260 839 260 939 336 c 0,22,23
 1044 417 1044 417 1068 550 c 0,24,25
 1074 586 1074 586 1074 618 c 0,26,27
 1074 703 1074 703 1030 761 c 0,28,29
 970 840 970 840 839 840 c 0,30,31
 711 840 711 840 615 764 c 0,32,33
 510 680 510 680 486 550 c 0,34,35
 480 514 480 514 480 482 c 0,36,37
 480 397 480 397 524 339 c 0,38,39
 584 260 584 260 715 260 c 0,20,21
EndSplineSet
Validated: 1
EndChar

StartChar: p
Encoding: 112 112 82
Width: 1303
GlyphClass: 2
Flags: W
HStem: -20 280<645 849.5> 840 280<660.67 964.91>
VStem: 83 300<-410 -110> 1050 307<452.521 753.886>
DStem2: 83 -410 383 -410 0.207912 0.978148<62.3735 1322.88>
LayerCount: 2
Fore
SplineSet
828 1120 m 0,0,1
 1089 1120 1089 1120 1230 958 c 0,2,3
 1357 812 1357 812 1357 637 c 0,4,5
 1357 580 1357 580 1345 525 c 0,6,7
 1285 259 1285 259 1066 111 c 0,8,9
 873 -20 873 -20 586 -20 c 1,10,-1
 645 260 l 1,11,12
 803 260 803 260 910 341 c 0,13,14
 1012 417 1012 417 1042 551 c 0,15,16
 1050 588 1050 588 1050 620 c 0,17,18
 1050 702 1050 702 1000 762 c 0,19,20
 934 840 934 840 828 840 c 0,21,22
 649 840 649 840 627 736 c 2,23,-1
 383 -410 l 1,24,-1
 83 -410 l 1,25,-1
 331 758 l 2,26,27
 408 1120 408 1120 828 1120 c 0,0,1
EndSplineSet
Validated: 1
EndChar

StartChar: q
Encoding: 113 113 83
Width: 1305
GlyphClass: 2
Flags: W
HStem: -430 21G<1021.5 1227.23> -20 21G<578.5 713.214> 840 280<687.081 984.592>
VStem: 180 307<350.838 646.512> 820 305<-132.156 147.133> 992 305<567.211 976.5>
DStem2: 741.688 -430 1041.69 -430 0.207912 0.978148<434.706 1221.42>
LayerCount: 2
Fore
SplineSet
709 -20 m 1,0,1
 448 -20 448 -20 307 142 c 0,2,3
 180 287 180 287 180 463 c 0,4,5
 180 518 180 518 192 575 c 0,6,7
 248 837 248 837 471 989 c 0,8,9
 664 1120 664 1120 951 1120 c 0,10,11
 1297 1120 1297 1120 1297 833 c 0,12,13
 1297 774 1297 774 1281 698 c 2,14,-1
 1135 9 l 2,15,16
 1125 -38 1125 -38 1125 -68 c 0,17,18
 1125 -151 1125 -151 1282 -151 c 1,19,-1
 1223 -430 l 1,20,21
 820 -430 820 -430 820 -122 c 0,22,23
 820 -62 820 -62 835 9 c 2,24,-1
 989 736 l 2,25,26
 992 750 992 750 992 766 c 0,27,28
 992 840 992 840 892 840 c 0,29,30
 732 840 732 840 627 759 c 128,-1,31
 522 678 522 678 495 549 c 0,32,33
 487 512 487 512 487 480 c 0,34,35
 487 396 487 396 539 340 c 0,36,37
 614 260 614 260 768 260 c 1,38,-1
 709 -20 l 1,0,1
EndSplineSet
Validated: 1
EndChar

StartChar: r
Encoding: 114 114 84
Width: 850
GlyphClass: 2
Flags: W
HStem: 0 21G<170 474.24> 820 280<656.663 1014>
VStem: 170 300<0 300>
DStem2: 170 0 470 0 0.207912 0.978148<62.3735 893.822>
LayerCount: 2
Fore
SplineSet
170 0 m 1,0,-1
 327 739 l 2,1,2
 404 1100 404 1100 824 1100 c 2,3,-1
 1074 1100 l 1,4,-1
 1014 820 l 1,5,-1
 764 820 l 2,6,7
 644 820 644 820 622 717 c 2,8,-1
 470 0 l 1,9,-1
 170 0 l 1,0,-1
EndSplineSet
Validated: 1
EndChar

StartChar: s
Encoding: 115 115 85
Width: 1053
GlyphClass: 2
Flags: W
HStem: -20 260<413.989 718.775> 876 244<630.644 843.908>
VStem: 346 278<742.647 865.331> 772 291<287.719 437.141>
LayerCount: 2
Fore
SplineSet
520 -20 m 0,0,1
 218 -20 218 -20 88 177 c 1,2,-1
 339 368 l 1,3,4
 416 240 416 240 556 240 c 0,5,6
 661 240 661 240 715 278 c 0,7,8
 758 308 758 308 770 356 c 0,9,10
 772 364 772 364 772 371 c 0,11,12
 772 427 772 427 685 458 c 2,13,-1
 585 494 l 2,14,15
 346 580 346 580 346 766 c 0,16,17
 346 786 346 786 349 808 c 0,18,19
 368 955 368 955 506 1048 c 0,20,21
 613 1120 613 1120 758 1120 c 0,22,23
 1014 1120 1014 1120 1118 933 c 1,24,-1
 889 755 l 1,25,26
 849 876 849 876 734 876 c 0,27,28
 624 876 624 876 624 799 c 0,29,30
 624 753 624 753 721 718 c 2,31,-1
 849 672 l 2,32,33
 1063 595 1063 595 1063 407 c 0,34,35
 1063 385 1063 385 1060 362 c 0,36,37
 1041 197 1041 197 889 86 c 0,38,39
 744 -20 744 -20 520 -20 c 0,0,1
EndSplineSet
Validated: 1
EndChar

StartChar: t
Encoding: 116 116 86
Width: 850
GlyphClass: 2
Flags: W
HStem: 0 21G<170 474.24> 820 280<656.663 1014> 1160 350<491 717>
VStem: 170 300<0 300> 417 300<1160 1460> 491 300<1210 1510>
DStem2: 170 0 470 0 0.207912 0.978148<62.3735 893.822 1248.38 1543.74>
LayerCount: 2
Fore
SplineSet
170 0 m 1,0,-1
 327 739 l 2,1,2
 404 1100 404 1100 824 1100 c 2,3,-1
 1074 1100 l 1,4,-1
 1014 820 l 1,5,-1
 764 820 l 2,6,7
 644 820 644 820 622 717 c 2,8,-1
 470 0 l 1,9,-1
 170 0 l 1,0,-1
491 1510 m 1,10,-1
 791 1510 l 1,11,-1
 717 1160 l 1,12,-1
 417 1160 l 1,13,-1
 491 1510 l 1,10,-1
EndSplineSet
Validated: 1
EndChar

StartChar: u
Encoding: 117 117 87
Width: 1318
GlyphClass: 2
Flags: W
HStem: -20 280<596.964 889.179> 1080 20G<380.5 938 1077.75 1382>
VStem: 182 301<367.125 674.357> 1082 300<800 1100>
DStem2: 843.828 -20 1143.9 -20 0.207912 0.978148<301.125 1145.04>
LayerCount: 2
Fore
SplineSet
749 -20 m 0,0,1
 459 -20 459 -20 319 120 c 0,2,3
 182 257 182 257 182 468 c 0,4,5
 182 507 182 507 187 549 c 0,6,7
 223 866 223 866 538 1100 c 1,8,-1
 938 1100 l 1,9,10
 731 950 731 950 625 828 c 0,11,12
 520 706 520 706 490 565 c 0,13,14
 483 531 483 531 483 500 c 0,15,16
 483 408 483 408 545 344 c 0,17,18
 627 260 627 260 773 260 c 24,19,20
 903 260 903 260 928 376 c 2,21,-1
 1082 1100 l 1,22,-1
 1382 1100 l 1,23,-1
 1220 338 l 2,24,25
 1144 -20 1144 -20 749 -20 c 0,0,1
EndSplineSet
Validated: 1
EndChar

StartChar: v
Encoding: 118 118 88
Width: 1278
GlyphClass: 2
Flags: W
HStem: 0 21G<347 1039> 1080 20G<335.5 745 1001 1351>
VStem: 211 303<402.408 838.695> 1077 301<651.558 1051.28>
LayerCount: 2
Fore
SplineSet
483 0 m 1,0,1
 211 294 211 294 211 593 c 0,2,3
 211 664 211 664 226 735 c 0,4,5
 269 934 269 934 402 1100 c 1,6,-1
 745 1100 l 1,7,8
 576 962 576 962 526 728 c 0,9,10
 514 674 514 674 514 618 c 0,11,12
 514 426 514 426 656 222 c 1,13,14
 1020 529 1020 529 1062 728 c 0,15,16
 1077 800 1077 800 1077 863 c 0,17,18
 1077 1004 1077 1004 1001 1100 c 1,19,-1
 1324 1100 l 1,20,21
 1378 987 1378 987 1378 863 c 0,22,23
 1378 800 1378 800 1364 735 c 0,24,25
 1283 362 1283 362 795 0 c 1,26,-1
 483 0 l 1,0,1
EndSplineSet
Validated: 1
EndChar

StartChar: w
Encoding: 119 119 89
Width: 1896
GlyphClass: 2
Flags: W
HStem: -20 280<597.354 839.718 1223 1425.86> 1080 20G<379.5 938 1017.75 1322 1426 1863.5>
VStem: 183 302<363.434 689.526> 1022 300<800 1100> 1657 294<475.016 850.611>
DStem2: 783.828 -20 1083.9 -20 0.207912 0.978148<291.721 1145.04>
LayerCount: 2
Fore
SplineSet
1164 -20 m 9,0,-1
 1223 260 l 17,1,2
 1379 260 1379 260 1497 344 c 0,3,4
 1618 430 1618 430 1646 565 c 0,5,6
 1657 616 1657 616 1657 664 c 0,7,8
 1657 750 1657 750 1623 828 c 0,9,10
 1572 947 1572 947 1426 1100 c 1,11,-1
 1776 1100 l 1,12,13
 1951 918 1951 918 1951 663 c 0,14,15
 1951 608 1951 608 1943 549 c 0,16,17
 1905 278 1905 278 1679 120 c 0,18,19
 1479 -20 1479 -20 1164 -20 c 9,0,-1
724 -20 m 24,20,21
 459 -20 459 -20 319 120 c 0,22,23
 183 256 183 256 183 473 c 0,24,25
 183 510 183 510 187 549 c 0,26,27
 221 883 221 883 538 1100 c 1,28,-1
 938 1100 l 1,29,30
 734 964 734 964 618 832 c 0,31,32
 514 713 514 713 490 565 c 0,33,34
 485 533 485 533 485 505 c 0,35,36
 485 406 485 406 545 344 c 0,37,38
 627 260 627 260 763 260 c 24,39,40
 843 260 843 260 868 376 c 2,41,-1
 1022 1100 l 1,42,-1
 1322 1100 l 1,43,-1
 1160 338 l 2,44,45
 1084 -20 1084 -20 724 -20 c 24,20,21
EndSplineSet
Validated: 1
EndChar

StartChar: x
Encoding: 120 120 90
Width: 1159
GlyphClass: 2
Flags: W
HStem: 0 21G<90 423.5 768 1077> 1084 20G<314 599 971.5 1304>
VStem: 90 300<0 300> 304 281<792.663 1097.52> 780 305<2.04565 287.336>
LayerCount: 2
Fore
SplineSet
1004 1104 m 1,0,-1
 1304 1104 l 1,1,2
 1232 766 1232 766 1029 686 c 1,3,-1
 726 686 l 1,4,5
 939 796 939 796 1004 1104 c 1,0,-1
390 0 m 1,6,-1
 90 0 l 1,7,8
 157 317 157 317 344 398 c 1,9,-1
 637 398 l 1,10,11
 457 315 457 315 390 0 c 1,6,-1
768 0 m 1,12,13
 780 56 780 56 780 108 c 0,14,15
 780 330 780 330 559 468 c 0,16,17
 304 627 304 627 304 925 c 0,18,19
 304 1007 304 1007 324 1100 c 1,20,-1
 599 1100 l 1,21,22
 585 1034 585 1034 585 975 c 0,23,24
 585 757 585 757 778 638 c 0,25,26
 1085 447 1085 447 1085 144 c 0,27,28
 1085 75 1085 75 1069 0 c 1,29,-1
 768 0 l 1,12,13
EndSplineSet
Validated: 1
EndChar

StartChar: y
Encoding: 121 121 91
Width: 1328
VWidth: 1638
GlyphClass: 2
Flags: W
HStem: -430 280<486 709.077> -20 21G<591.5 728.214> 1080 20G<379 938 1087.74 1392>
VStem: 183 302<362.802 691.178> 1092 300<800 1100>
DStem2: 766.529 -430 1067.02 -430 0.207912 0.978148<398.229 1564.24>
LayerCount: 2
Fore
SplineSet
538 1100 m 1,0,-1
 938 1100 l 1,1,2
 734 964 734 964 618 832 c 0,3,4
 514 713 514 713 490 565 c 0,5,6
 485 533 485 533 485 505 c 0,7,8
 485 406 485 406 545 344 c 0,9,10
 627 260 627 260 783 260 c 1,11,-1
 724 -20 l 1,12,13
 459 -20 459 -20 319 120 c 0,14,15
 183 256 183 256 183 473 c 0,16,17
 183 510 183 510 187 549 c 0,18,19
 220 882 220 882 538 1100 c 1,0,-1
427 -430 m 9,20,-1
 486 -150 l 1,21,22
 660 -150 660 -150 758 -79.5 c 128,-1,23
 856 -9 856 -9 893 165 c 2,24,-1
 1092 1100 l 1,25,-1
 1392 1100 l 1,26,-1
 1192 158 l 2,27,28
 1129 -137 1129 -137 920 -284 c 0,29,30
 714 -430 714 -430 427 -430 c 9,20,-1
EndSplineSet
Validated: 1
EndChar

StartChar: z
Encoding: 122 122 92
Width: 1106
GlyphClass: 2
Flags: W
HStem: 0 280<562 1036> 820 280<349 899.991>
VStem: 70 302<0 302> 900 318<781.938 997.5>
LayerCount: 2
Fore
SplineSet
70 0 m 1,0,1
 163 429 163 429 574 632 c 0,2,3
 900 793 900 793 900 812 c 0,4,5
 900 820 900 820 862 820 c 2,6,-1
 289 820 l 1,7,-1
 349 1100 l 1,8,-1
 944 1100 l 2,9,10
 1218 1100 1218 1100 1218 895 c 0,11,12
 1218 856 1218 856 1208 810 c 0,13,14
 1164 600 1164 600 768 421 c 0,15,16
 429 267 429 267 372 0 c 1,17,-1
 70 0 l 1,0,1
1036 0 m 1,18,-1
 502 0 l 1,19,-1
 562 280 l 1,20,-1
 1096 280 l 1,21,-1
 1036 0 l 1,18,-1
EndSplineSet
Validated: 1
EndChar

StartChar: braceleft
Encoding: 123 123 93
Width: 908
GlyphClass: 2
Flags: W
HStem: -312 262<626 822> 615 282<211 387> 1558 262<978.9 1219>
VStem: 285 282<-0.911621 327.891>
DStem2: 189.558 -312 475.108 -312 0.207912 0.978148<454.613 947.793 1236.11 1869.67>
LayerCount: 2
Fore
SplineSet
822 -312 m 1,0,1
 285 -312 285 -312 285 69 c 0,2,3
 285 137 285 137 302 217 c 2,4,-1
 387 615 l 1,5,-1
 151 615 l 1,6,-1
 211 897 l 1,7,-1
 447 897 l 1,8,-1
 530 1291 l 2,9,10
 641 1820 641 1820 1275 1820 c 1,11,-1
 1219 1558 l 1,12,13
 872 1558 872 1558 821 1319 c 2,14,-1
 585 205 l 2,15,16
 567 120 567 120 567 71 c 0,17,18
 567 -50 567 -50 877 -50 c 1,19,-1
 822 -312 l 1,0,1
EndSplineSet
Validated: 1
EndChar

StartChar: bar
Encoding: 124 124 94
Width: 720
GlyphClass: 2
Flags: W
VStem: 169 280<-240 40> 592 280<1470 1750>
DStem2: 169 -240 449 -240 0.207912 0.978148<58.2153 2034.46>
LayerCount: 2
Fore
SplineSet
169 -240 m 1,0,-1
 592 1750 l 1,1,-1
 872 1750 l 1,2,-1
 449 -240 l 1,3,-1
 169 -240 l 1,0,-1
EndSplineSet
Validated: 1
EndChar

StartChar: braceright
Encoding: 125 125 95
Width: 908
GlyphClass: 2
Flags: W
HStem: -312 262<10 250.1> 611 282<842 1018> 1558 262<407 603>
VStem: 662 282<1180.11 1508.91>
DStem2: 301.509 -312 586.558 -312 0.207912 0.978148<369.166 1002.73 1291.04 1784.22>
LayerCount: 2
Fore
SplineSet
-46 -312 m 1,0,-1
 10 -50 l 1,1,2
 357 -50 357 -50 408 189 c 2,3,-1
 644 1303 l 2,4,5
 662 1388 662 1388 662 1437 c 0,6,7
 662 1558 662 1558 352 1558 c 1,8,-1
 407 1820 l 1,9,10
 944 1820 944 1820 944 1439 c 0,11,12
 944 1371 944 1371 927 1291 c 2,13,-1
 842 893 l 1,14,-1
 1078 893 l 1,15,-1
 1018 611 l 1,16,-1
 782 611 l 1,17,-1
 699 217 l 2,18,19
 588 -312 588 -312 -46 -312 c 1,0,-1
EndSplineSet
Validated: 1
EndChar

StartChar: asciitilde
Encoding: 126 126 96
Width: 1445
GlyphClass: 2
Flags: W
HStem: 468 310<1024.75 1190.62> 735 310<575.064 736.854>
LayerCount: 2
Fore
SplineSet
1295 999 m 1,0,-1
 1511 873 l 1,1,2
 1346 468 1346 468 1079 468 c 0,3,4
 930 468 930 468 827 588 c 2,5,-1
 727 704 l 2,6,7
 700 735 700 735 665 735 c 0,8,9
 558 735 558 735 470 514 c 1,10,-1
 256 640 l 1,11,12
 420 1045 420 1045 687 1045 c 0,13,14
 833 1045 833 1045 931 931 c 2,15,-1
 1031 815 l 2,16,17
 1063 778 1063 778 1101 778 c 0,18,19
 1207 778 1207 778 1295 999 c 1,0,-1
EndSplineSet
Validated: 1
EndChar

StartChar: exclamdown
Encoding: 161 161 98
Width: 752
GlyphClass: 2
Flags: W
HStem: 752 368<468.6 679.896>
VStem: 132 312<-410 -98> 352 312<312 624> 385 380<834.699 1038.56>
DStem2: 132 -410 444 -410 0.207912 0.978148<64.8684 1057.15>
LayerCount: 2
Fore
SplineSet
605 1120 m 0,0,1
 688 1120 688 1120 731 1062 c 0,2,3
 765 1016 765 1016 765 963 c 0,4,5
 765 950 765 950 763 936 c 0,6,7
 751 854 751 854 690 804 c 0,8,9
 626 752 626 752 545 752 c 0,10,11
 463 752 463 752 419 809 c 0,12,13
 385 853 385 853 385 909 c 0,14,15
 385 920 385 920 387 937 c 0,16,17
 395 1016 395 1016 460 1069 c 0,18,19
 523 1120 523 1120 605 1120 c 0,0,1
664 624 m 1,20,-1
 444 -410 l 1,21,-1
 132 -410 l 1,22,-1
 352 624 l 1,23,-1
 664 624 l 1,20,-1
EndSplineSet
Validated: 1
EndChar

StartChar: cent
Encoding: 162 162 99
Width: 1145
GlyphClass: 2
Flags: W
VStem: 183 301<344.237 636.641> 544 150<-181 -31> 854 150<1130 1280>
DStem2: 544 -181 693.787 -181 0.207912 0.978148<32.1649 170.628 490.127 1030.47 1357.02 1493.53>
LayerCount: 2
Fore
SplineSet
694 -180 m 1,0,-1
 544 -181 l 1,1,-1
 579 -14 l 1,2,3
 399 13 399 13 282 163 c 0,4,5
 183 291 183 291 183 461 c 0,6,7
 183 529 183 529 194 584 c 0,8,9
 240 798 240 798 432 957 c 0,10,11
 597 1094 597 1094 819 1116 c 1,12,-1
 854 1280 l 1,13,-1
 1004 1280 l 1,14,-1
 969 1116 l 1,15,16
 1162 1094 1162 1094 1286 937 c 1,17,-1
 1036 761 l 1,18,19
 987 818 987 818 909 834 c 1,20,-1
 789 268 l 1,21,22
 874 287 874 287 954 356 c 1,23,-1
 1135 143 l 1,24,25
 962 0 962 0 728 -18 c 1,26,-1
 694 -180 l 1,0,-1
640 271 m 1,27,-1
 758 827 l 1,28,29
 685 805 685 805 614 744 c 0,30,31
 518 658 518 658 494 550 c 0,32,33
 485 509 485 509 484 473 c 0,34,35
 484 392 484 392 531 339 c 0,36,37
 575 289 575 289 640 271 c 1,27,-1
EndSplineSet
Validated: 1
EndChar

StartChar: sterling
Encoding: 163 163 100
Width: 1242
GlyphClass: 2
Flags: W
HStem: 0 300<554 1122> 664 150<253 311 663 954> 1230 300<798.712 1056.02>
DStem2: 170 0 490.233 0 0.207912 0.978148<373.282 678.806 898.713 1272.31>
LayerCount: 2
Fore
SplineSet
170 0 m 1,0,-1
 311 664 l 1,1,-1
 221 664 l 1,2,-1
 253 814 l 1,3,-1
 343 814 l 1,4,-1
 373 957 l 2,5,6
 441 1281 441 1281 588 1406 c 0,7,8
 734 1530 734 1530 969 1530 c 0,9,10
 1228 1530 1228 1530 1382 1317 c 1,11,-1
 1130 1093 l 1,12,13
 1062 1230 1062 1230 924 1230 c 0,14,15
 840 1230 840 1230 784 1172 c 0,16,17
 728 1116 728 1116 692 948 c 2,18,-1
 663 814 l 1,19,-1
 986 814 l 1,20,-1
 954 664 l 1,21,-1
 631 664 l 1,22,-1
 554 300 l 1,23,-1
 1186 300 l 1,24,-1
 1122 0 l 1,25,-1
 170 0 l 1,0,-1
EndSplineSet
Validated: 1
EndChar

StartChar: currency
Encoding: 164 164 101
Width: 1700
GlyphClass: 2
Flags: W
HStem: 204 280<789.008 1100.4> 1064 280<907.718 1218.94>
VStem: 403 301<566.115 863.25> 1304 301<681.768 981.942>
DStem2: 239 324 431 78 0.769894 0.638172<0 276.935 1471.7 1749.29>
LayerCount: 2
Fore
SplineSet
942 484 m 128,-1,1
 1063 484 1063 484 1175 580 c 0,2,3
 1273 666 1273 666 1295 774 c 0,4,5
 1304 815 1304 815 1304 851 c 0,6,7
 1304 932 1304 932 1257 985 c 0,8,9
 1189 1064 1189 1064 1067 1064 c 0,10,11
 947 1064 947 1064 834 968 c 0,12,13
 737 882 737 882 714 774 c 0,14,15
 704 732 704 732 704 695 c 0,16,17
 704 615 704 615 751 563 c 0,18,0
 821 484 821 484 942 484 c 128,-1,1
688 1434 m 1,19,-1
 810 1279 l 1,20,21
 952 1344 952 1344 1125 1344 c 0,22,23
 1273 1344 1273 1344 1385 1273 c 1,24,-1
 1595 1448 l 1,25,-1
 1785 1200 l 1,26,-1
 1579 1029 l 1,27,28
 1605 952 1605 952 1605 863 c 0,29,30
 1605 796 1605 796 1593 740 c 0,31,32
 1560 585 1560 585 1450 459 c 1,33,-1
 1564 315 l 1,34,-1
 1313 97 l 1,35,-1
 1184 262 l 1,36,37
 1047 204 1047 204 883 204 c 0,38,39
 752 204 752 204 650 260 c 1,40,-1
 431 78 l 1,41,-1
 239 324 l 1,42,-1
 441 491 l 1,43,44
 403 580 403 580 403 685 c 0,45,46
 403 752 403 752 415 808 c 0,47,48
 446 955 446 955 547 1076 c 1,49,-1
 432 1224 l 1,50,-1
 688 1434 l 1,19,-1
EndSplineSet
Validated: 1
EndChar

StartChar: yen
Encoding: 165 165 102
Width: 1372
GlyphClass: 2
Flags: W
HStem: 0 21G<529 853.261> 399 150<334 614 965 1240> 655 150<388 495 970 1294> 1490 20G<375.5 686 1255 1623>
VStem: 360 299<1051.52 1505.86> 529 320<0 320> 647 325<549.375 654.093> 1303 320<1352.21 1510>
LayerCount: 2
Fore
SplineSet
529 0 m 1,0,-1
 614 399 l 1,1,-1
 302 399 l 1,2,-1
 334 549 l 1,3,-1
 645 549 l 1,4,5
 647 561 647 561 647 573 c 0,6,7
 647 615 647 615 626 655 c 1,8,-1
 356 655 l 1,9,-1
 388 805 l 1,10,-1
 495 805 l 1,11,12
 360 975 360 975 360 1237 c 0,13,14
 360 1363 360 1363 391 1510 c 1,15,-1
 686 1510 l 1,16,17
 659 1392 659 1392 659 1289 c 0,18,19
 659 999 659 999 874 823 c 0,20,21
 885 814 885 814 894 805 c 1,22,-1
 1326 805 l 1,23,-1
 1294 655 l 1,24,-1
 970 655 l 1,25,26
 972 637 972 637 972 617 c 0,27,28
 972 584 972 584 965 549 c 1,29,-1
 1272 549 l 1,30,-1
 1240 399 l 1,31,-1
 934 399 l 1,32,-1
 849 0 l 1,33,-1
 529 0 l 1,0,-1
1303 1510 m 1,34,-1
 1623 1510 l 1,35,36
 1519 1022 1519 1022 1165 871 c 1,37,-1
 862 871 l 1,38,39
 1207 1058 1207 1058 1303 1510 c 1,34,-1
EndSplineSet
Validated: 1
EndChar

StartChar: brokenbar
Encoding: 166 166 103
Width: 720
GlyphClass: 2
Flags: W
VStem: 169 280<-240 40> 360 280<377 657> 401 280<852 1132> 592 280<1470 1750>
DStem2: 169 -240 449 -240 0.207912 0.978148<58.2153 917.11 1174.59 2034.46>
LayerCount: 2
Fore
SplineSet
169 -240 m 1,0,-1
 360 657 l 1,1,-1
 640 657 l 1,2,-1
 449 -240 l 1,3,-1
 169 -240 l 1,0,-1
592 1750 m 1,4,-1
 872 1750 l 1,5,-1
 681 852 l 1,6,-1
 401 852 l 1,7,-1
 592 1750 l 1,4,-1
EndSplineSet
Validated: 1
EndChar

StartChar: section
Encoding: 167 167 104
Width: 1106
GlyphClass: 2
Flags: W
HStem: -20 244<493.092 706.356> 1286 244<720.644 933.908>
VStem: 274 291<664.302 810.382> 436 278<1152.65 1275.49> 713 278<234.507 357.353> 862 291<699.618 845.698>
LayerCount: 2
Fore
SplineSet
579 -20 m 0,0,1
 323 -20 323 -20 219 167 c 1,2,-1
 448 345 l 1,3,4
 488 224 488 224 603 224 c 0,5,6
 713 224 713 224 713 301 c 0,7,8
 713 347 713 347 616 382 c 2,9,-1
 488 428 l 2,10,11
 274 505 274 505 274 693 c 0,12,13
 274 714 274 714 277 738 c 0,14,15
 291 848 291 848 358 930 c 1,16,17
 629 827 l 1,18,19
 579 790 579 790 567 744 c 0,20,21
 565 736 565 736 565 729 c 0,22,23
 565 673 565 673 652 642 c 2,24,-1
 752 606 l 2,25,26
 991 520 991 520 991 334 c 0,27,28
 991 314 991 314 988 292 c 0,29,30
 968 144 968 144 831 52 c 0,31,32
 724 -20 724 -20 579 -20 c 0,0,1
848 1530 m 0,33,34
 1104 1530 1104 1530 1208 1343 c 1,35,-1
 979 1165 l 1,36,37
 939 1286 939 1286 824 1286 c 0,38,39
 714 1286 714 1286 714 1209 c 0,40,41
 714 1163 714 1163 811 1128 c 2,42,-1
 939 1082 l 2,43,44
 1153 1005 1153 1005 1153 817 c 0,45,46
 1153 796 1153 796 1150 772 c 0,47,48
 1136 662 1136 662 1069 580 c 1,49,-1
 798 683 l 1,50,51
 848 720 848 720 860 766 c 0,52,53
 862 774 862 774 862 781 c 0,54,55
 862 837 862 837 775 868 c 2,56,-1
 675 904 l 2,57,58
 436 990 436 990 436 1176 c 0,59,60
 436 1196 436 1196 439 1218 c 0,61,62
 459 1366 459 1366 596 1458 c 0,63,64
 703 1530 703 1530 848 1530 c 0,33,34
EndSplineSet
Validated: 1
EndChar

StartChar: dieresis
Encoding: 168 168 105
Width: 793
GlyphClass: 2
Flags: W
HStem: 1191 339<380.795 583.617 787.795 990.617>
VStem: 308 349<1263.25 1458.59> 715 349<1263.25 1458.59>
LayerCount: 2
Fore
SplineSet
917 1530 m 128,-1,1
 992 1530 992 1530 1033 1478 c 0,2,3
 1063 1438 1063 1438 1064 1386 c 0,4,5
 1064 1374 1064 1374 1062 1360 c 0,6,7
 1052 1285 1052 1285 994.5 1238 c 128,-1,8
 937 1191 937 1191 861.5 1191 c 128,-1,9
 786 1191 786 1191 746 1245 c 0,10,11
 716 1285 716 1285 715 1336 c 0,12,13
 715 1348 715 1348 716 1361 c 0,14,15
 726 1436 726 1436 784 1482 c 0,16,0
 842 1530 842 1530 917 1530 c 128,-1,1
510 1530 m 128,-1,18
 585 1530 585 1530 626 1478 c 0,19,20
 656 1438 656 1438 657 1386 c 0,21,22
 657 1374 657 1374 655 1360 c 0,23,24
 645 1285 645 1285 587.5 1238 c 128,-1,25
 530 1191 530 1191 454.5 1191 c 128,-1,26
 379 1191 379 1191 339 1245 c 0,27,28
 309 1285 309 1285 308 1336 c 0,29,30
 308 1348 308 1348 309 1361 c 0,31,32
 319 1436 319 1436 377 1482 c 0,33,17
 435 1530 435 1530 510 1530 c 128,-1,18
EndSplineSet
Validated: 1
EndChar

StartChar: ordfeminine
Encoding: 170 170 106
Width: 629
GlyphClass: 2
Flags: W
HStem: 794 174<226 777> 1489 201<569.581 818.497>
VStem: 308 211<1283.75 1445.14> 623 210<1059 1269> 711 215<1287.95 1607.5>
DStem2: 566.673 794 776.673 794 0.207912 0.978148<314.582 693.13>
LayerCount: 2
Fore
SplineSet
707 1690 m 0,0,1
 926 1690 926 1690 926 1525 c 0,2,3
 926 1493 926 1493 918 1456 c 2,4,-1
 833 1059 l 1,5,-1
 623 1059 l 1,6,-1
 710 1465 l 2,7,8
 711 1470 711 1470 711 1472 c 0,9,10
 711 1489 711 1489 684 1489 c 0,11,12
 614 1489 614 1489 573 1454 c 0,13,14
 533 1420 533 1420 522 1368 c 0,15,16
 519 1354 519 1354 519 1342 c 0,17,18
 519 1307 519 1307 541 1283 c 0,19,20
 571 1250 571 1250 630 1250 c 9,21,-1
 587 1049 l 1,22,23
 458 1049 458 1049 375 1139 c 0,24,25
 308 1212 308 1212 308 1320 c 0,26,27
 308 1346 308 1346 312 1375 c 0,28,29
 331 1513 331 1513 454 1606 c 0,30,31
 565 1690 565 1690 707 1690 c 0,0,1
226 968 m 1,32,-1
 814 968 l 1,33,-1
 777 794 l 1,34,-1
 189 794 l 1,35,-1
 226 968 l 1,32,-1
EndSplineSet
Validated: 1
EndChar

StartChar: guillemotleft
Encoding: 171 171 107
Width: 1543
GlyphClass: 2
Flags: W
DStem2: 633 708 279 746 0.531199 -0.847247<0 433.23> 279 746 633 708 0.724396 0.689384<230.24 823.758> 1228 709 874 747 0.531199 -0.847247<0 433.23> 874 747 1228 709 0.724396 0.689384<230.24 823.758>
LayerCount: 2
Fore
SplineSet
1474 1318 m 1,0,-1
 1660 1116 l 1,1,-1
 1228 709 l 1,2,-1
 1463 345 l 1,3,-1
 1232 176 l 1,4,-1
 874 747 l 1,5,-1
 1474 1318 l 1,0,-1
879 1317 m 1,6,-1
 1065 1115 l 1,7,-1
 633 708 l 1,8,-1
 868 344 l 1,9,-1
 637 175 l 1,10,-1
 279 746 l 1,11,-1
 879 1317 l 1,6,-1
EndSplineSet
Validated: 1
EndChar

StartChar: logicalnot
Encoding: 172 172 108
Width: 1193
GlyphClass: 2
Flags: W
HStem: 593 302<310 899>
LayerCount: 2
Fore
SplineSet
310 895 m 1,0,-1
 1263 895 l 1,1,-1
 1150 364 l 1,2,-1
 850 364 l 1,3,-1
 899 593 l 1,4,-1
 246 593 l 1,5,-1
 310 895 l 1,0,-1
EndSplineSet
Validated: 1
EndChar

StartChar: macron
Encoding: 175 175 109
Width: 663
GlyphClass: 2
Flags: W
HStem: 1287 222<341 917>
VStem: 294 670
LayerCount: 2
Fore
SplineSet
341 1509 m 1,0,-1
 964 1509 l 1,1,-1
 917 1287 l 1,2,-1
 294 1287 l 1,3,-1
 341 1509 l 1,0,-1
EndSplineSet
Validated: 1
EndChar

StartChar: degree
Encoding: 176 176 110
Width: 732
GlyphClass: 2
Flags: W
HStem: 852 221<513.77 695.245> 1311 219<540.359 723.729>
VStem: 270 224<1098.16 1265> 742 226<1119.38 1276.25>
LayerCount: 2
Fore
SplineSet
662 1530 m 0,0,1
 805 1530 805 1530 899 1422 c 0,2,3
 968 1344 968 1344 968 1242 c 0,4,5
 968 1214 968 1214 965 1190 c 0,6,7
 945 1041 945 1041 833 948 c 24,8,9
 718 852 718 852 576 852 c 0,10,11
 433 852 433 852 339 960 c 0,12,13
 270 1038 270 1038 270 1140 c 0,14,15
 270 1168 270 1168 273 1192 c 0,16,17
 293 1344 293 1344 405 1434 c 0,18,19
 525 1530 525 1530 662 1530 c 0,0,1
643 1311 m 128,-1,21
 592 1311 592 1311 549.5 1276 c 128,-1,22
 507 1241 507 1241 497 1192 c 0,23,24
 494 1179 494 1179 494 1167 c 0,25,26
 495 1134 495 1134 515 1108 c 0,27,28
 543 1073 543 1073 593.5 1073 c 128,-1,29
 644 1073 644 1073 686.5 1109 c 128,-1,30
 729 1145 729 1145 739 1194 c 0,31,32
 742 1207 742 1207 742 1220 c 0,33,34
 742 1253 742 1253 722 1277 c 0,35,20
 694 1311 694 1311 643 1311 c 128,-1,21
EndSplineSet
Validated: 1
EndChar

StartChar: plusminus
Encoding: 177 177 111
Width: 1193
GlyphClass: 2
Flags: W
HStem: 116 302<209 1098> 793 302<353 615 979 1242>
VStem: 552 300<498 798> 748 300<1122 1422>
DStem2: 470.803 116 770.803 116 0.207912 0.978148<452.908 692.186 1063.27 1335.09>
LayerCount: 2
Fore
SplineSet
748 1422 m 1,0,-1
 1048 1422 l 1,1,-1
 979 1095 l 1,2,-1
 1306 1095 l 1,3,-1
 1242 793 l 1,4,-1
 915 793 l 1,5,-1
 852 498 l 1,6,-1
 552 498 l 1,7,-1
 615 793 l 1,8,-1
 289 793 l 1,9,-1
 353 1095 l 1,10,-1
 679 1095 l 1,11,-1
 748 1422 l 1,0,-1
145 116 m 1,12,-1
 209 418 l 1,13,-1
 1162 418 l 1,14,-1
 1098 116 l 1,15,-1
 145 116 l 1,12,-1
EndSplineSet
Validated: 1
EndChar

StartChar: uni00B2
Encoding: 178 178 112
Width: 642
VWidth: 1406
GlyphClass: 2
Flags: W
HStem: 853 221<560 803> 1487 203<539.092 702.592>
VStem: 704 218<1354.24 1484.39>
LayerCount: 2
Fore
SplineSet
211 853 m 1,0,1
 266 1116 266 1116 580 1298 c 0,2,3
 690 1362 690 1362 701 1414 c 0,4,5
 704 1426 704 1426 704 1437 c 0,6,7
 704 1487 704 1487 639 1487 c 0,8,9
 551 1487 551 1487 489 1378 c 1,10,-1
 340 1504 l 1,11,12
 473 1690 473 1690 668 1690 c 0,13,14
 806 1690 806 1690 876 1592 c 0,15,16
 922 1527 922 1527 922 1442 c 0,17,18
 922 1429 922 1429 921 1416 c 0,19,20
 907 1232 907 1232 645 1122 c 0,21,22
 619 1111 619 1111 560 1074 c 1,23,-1
 850 1074 l 1,24,-1
 803 853 l 1,25,-1
 211 853 l 1,0,1
EndSplineSet
Validated: 1
EndChar

StartChar: uni00B3
Encoding: 179 179 113
Width: 664
VWidth: 1401
GlyphClass: 2
Flags: W
HStem: 879 204<382.102 655.71> 1231 192<555 668.418> 1510 180<525.772 687.206>
VStem: 670 221<1099.41 1222.23> 688 200<1427.79 1544>
LayerCount: 2
Fore
SplineSet
658 1690 m 0,0,1
 775 1690 775 1690 839 1626 c 0,2,3
 888 1577 888 1577 888 1511 c 0,4,5
 888 1498 888 1498 886 1484 c 0,6,7
 874 1401 874 1401 802 1350 c 1,8,9
 891 1286 891 1286 891 1186 c 0,10,11
 891 1170 891 1170 889 1152 c 0,12,13
 872 1026 872 1026 781 953 c 0,14,15
 690 879 690 879 534 879 c 0,16,17
 349 879 349 879 232 999 c 1,18,-1
 414 1142 l 1,19,20
 470 1083 470 1083 560 1083 c 0,21,22
 652 1083 652 1083 668 1156 c 0,23,24
 670 1165 670 1165 670 1173 c 0,25,26
 670 1231 670 1231 570 1231 c 2,27,-1
 515 1231 l 1,28,-1
 555 1423 l 1,29,-1
 610 1423 l 2,30,31
 677 1423 677 1423 687 1475 c 0,32,33
 688 1479 688 1479 688 1483 c 0,34,35
 688 1510 688 1510 645 1510 c 0,36,37
 584 1510 584 1510 541 1448 c 1,38,-1
 412 1573 l 1,39,40
 511 1690 511 1690 658 1690 c 0,0,1
EndSplineSet
Validated: 1
EndChar

StartChar: acute
Encoding: 180 180 114
Width: 477
GlyphClass: 2
Flags: W
HStem: 1216 450
VStem: 316 458
DStem2: 316 1391 459 1216 0.752133 0.659012<0 411.037>
LayerCount: 2
Fore
SplineSet
628 1666 m 1,0,-1
 774 1492 l 1,1,-1
 459 1216 l 1,2,-1
 316 1391 l 1,3,-1
 628 1666 l 1,0,-1
EndSplineSet
Validated: 1
EndChar

StartChar: uni00B5
Encoding: 181 181 115
Width: 1418
GlyphClass: 2
Flags: W
HStem: -20 280<695.418 989.179> 1080 20G<495.5 1038 1177.75 1482>
VStem: 83 300<-410 -110> 1182 300<800 1100>
DStem2: 83 -410 383 -410 0.207912 0.978148<62.3735 552.26 995.019 1254.55> 860.931 -410 1161.01 -410 0.207912 0.978148<699.838 1543.76>
LayerCount: 2
Fore
SplineSet
383 -410 m 1,0,-1
 83 -410 l 1,1,-1
 287 549 l 2,2,3
 353 861 353 861 638 1100 c 1,4,-1
 1038 1100 l 1,5,6
 831 950 831 950 725 828 c 0,7,8
 620 706 620 706 590 565 c 0,9,10
 583 531 583 531 583 500 c 0,11,12
 583 408 583 408 645 344 c 0,13,14
 727 260 727 260 873 260 c 0,15,16
 1003 260 1003 260 1028 376 c 2,17,-1
 1182 1100 l 1,18,-1
 1482 1100 l 1,19,-1
 1320 338 l 2,20,21
 1244 -20 1244 -20 849 -20 c 0,22,23
 617 -20 617 -20 481 70 c 1,24,-1
 383 -410 l 1,0,-1
EndSplineSet
Validated: 1
EndChar

StartChar: paragraph
Encoding: 182 182 116
Width: 1212
GlyphClass: 2
Flags: W
HStem: 0 21G<682 824.249 906 1046.25> 1365 145<1110 1196>
VStem: 682 138<0 138> 906 136<0 136>
DStem2: 682 0 820 0 0.207912 0.978148<28.6918 617.414> 906 0 1042 0 0.207912 0.978148<28.276 1395.47>
LayerCount: 2
Fore
SplineSet
682 0 m 1,0,-1
 810 604 l 1,1,2
 756 593 756 593 702 593 c 0,3,4
 511 593 511 593 407 730 c 0,5,6
 333 828 333 828 333 954 c 0,7,8
 333 1003 333 1003 345 1057 c 0,9,10
 385 1246 385 1246 546 1383 c 0,11,12
 706 1520 706 1520 899 1520 c 0,13,14
 955 1520 955 1520 1002 1507 c 1,15,-1
 1003 1510 l 1,16,-1
 1363 1510 l 1,17,-1
 1042 0 l 1,18,-1
 906 0 l 1,19,-1
 1196 1365 l 1,20,-1
 1110 1365 l 1,21,-1
 820 0 l 1,22,-1
 682 0 l 1,0,-1
EndSplineSet
Validated: 1
EndChar

StartChar: periodcentered
Encoding: 183 183 117
Width: 416
GlyphClass: 2
Flags: W
HStem: 583 368<266.541 477.4>
VStem: 181 380<665.061 867.939>
LayerCount: 2
Fore
SplineSet
401 951 m 0,0,1
 483 951 483 951 527 894 c 0,2,3
 560 851 560 851 561 794 c 0,4,5
 561 781 561 781 559 766 c 0,6,7
 548 685 548 685 485.5 634 c 128,-1,8
 423 583 423 583 341 583 c 128,-1,9
 259 583 259 583 215 641 c 0,10,11
 182 684 182 684 181 740 c 0,12,13
 181 753 181 753 183 767 c 0,14,15
 194 848 194 848 256 899 c 0,16,17
 320 951 320 951 401 951 c 0,0,1
EndSplineSet
Validated: 1
EndChar

StartChar: cedilla
Encoding: 184 184 118
Width: 434
GlyphClass: 2
Flags: W
VStem: 133 262<-171.318 19.0547>
LayerCount: 2
Fore
SplineSet
260 231 m 1,0,1
 395 108 395 108 395 -46 c 0,2,3
 395 -86 395 -86 386 -128 c 0,4,5
 336 -364 336 -364 64 -494 c 1,6,-1
 -48 -258 l 1,7,8
 106 -193 106 -193 127 -111 c 0,9,10
 133 -89 133 -89 133 -69 c 0,11,12
 133 -1 133 -1 65 33 c 1,13,-1
 260 231 l 1,0,1
EndSplineSet
Validated: 1
EndChar

StartChar: uni00B9
Encoding: 185 185 119
Width: 393
VWidth: 1406
GlyphClass: 2
Flags: W
HStem: 1479 211<379 464.996>
VStem: 334 220<853 1073> 465 229<1305.01 1613.5>
DStem2: 334 853 554 853 0.207912 0.978148<45.7406 631.67>
LayerCount: 2
Fore
SplineSet
379 1690 m 1,0,-1
 492 1690 l 2,1,2
 694 1690 694 1690 694 1537 c 0,3,4
 694 1511 694 1511 686 1473 c 2,5,-1
 554 853 l 1,6,-1
 334 853 l 1,7,-1
 464 1464 l 2,8,9
 465 1469 465 1469 465 1471 c 0,10,11
 465 1479 465 1479 447 1479 c 2,12,-1
 334 1479 l 1,13,-1
 379 1690 l 1,0,-1
EndSplineSet
Validated: 1
EndChar

StartChar: ordmasculine
Encoding: 186 186 120
Width: 732
GlyphClass: 2
Flags: W
HStem: 792 174<247 860> 1007 221<546.77 728.245> 1466 219<573.359 756.729>
VStem: 303 224<1253.16 1420> 775 226<1274.38 1431.25>
LayerCount: 2
Fore
SplineSet
695 1685 m 0,0,1
 838 1685 838 1685 932 1577 c 0,2,3
 1001 1499 1001 1499 1001 1397 c 0,4,5
 1001 1369 1001 1369 998 1345 c 0,6,7
 978 1196 978 1196 866 1103 c 24,8,9
 751 1007 751 1007 609 1007 c 0,10,11
 466 1007 466 1007 372 1115 c 0,12,13
 303 1193 303 1193 303 1295 c 0,14,15
 303 1323 303 1323 306 1347 c 0,16,17
 326 1499 326 1499 438 1589 c 0,18,19
 558 1685 558 1685 695 1685 c 0,0,1
676 1466 m 128,-1,21
 625 1466 625 1466 582.5 1431 c 128,-1,22
 540 1396 540 1396 530 1347 c 0,23,24
 527 1334 527 1334 527 1322 c 0,25,26
 528 1289 528 1289 548 1263 c 0,27,28
 576 1228 576 1228 626.5 1228 c 128,-1,29
 677 1228 677 1228 719.5 1264 c 128,-1,30
 762 1300 762 1300 772 1349 c 0,31,32
 775 1362 775 1362 775 1375 c 0,33,34
 775 1408 775 1408 755 1432 c 0,35,20
 727 1466 727 1466 676 1466 c 128,-1,21
247 966 m 1,36,-1
 897 966 l 1,37,-1
 860 792 l 1,38,-1
 210 792 l 1,39,-1
 247 966 l 1,36,-1
EndSplineSet
Validated: 1
EndChar

StartChar: guillemotright
Encoding: 187 187 121
Width: 1542
GlyphClass: 2
Flags: W
DStem2: 200 377 386 175 0.724396 0.689384<0 593.518> 628 1317 397 1148 0.531199 -0.847247<20.4779 453.708> 795 378 981 176 0.724396 0.689384<0 593.518> 1223 1318 992 1149 0.531199 -0.847247<20.4779 453.708>
LayerCount: 2
Fore
SplineSet
628 1317 m 1,0,-1
 986 746 l 1,1,-1
 386 175 l 1,2,-1
 200 377 l 1,3,-1
 632 784 l 1,4,-1
 397 1148 l 1,5,-1
 628 1317 l 1,0,-1
1223 1318 m 1,6,-1
 1581 747 l 1,7,-1
 981 176 l 1,8,-1
 795 378 l 1,9,-1
 1227 785 l 1,10,-1
 992 1149 l 1,11,-1
 1223 1318 l 1,6,-1
EndSplineSet
Validated: 1
EndChar

StartChar: onequarter
Encoding: 188 188 122
Width: 1581
VWidth: 1401
GlyphClass: 2
Flags: W
HStem: 0 1G<229.901 271.571 1241 1465.25> 1319 211<345 430.996>
VStem: 300 220<693 913> 431 229<1145.01 1453.5> 1240 236<601 837> 1241 220<0 220> 1371 220<392 612>
DStem2: 73 142 252 -20 0.699396 0.714734<9.40504 1941.83> 148.447 -20 368.447 -20 0.207912 0.978148<774.669 1360.6> 955 392 1165 339 0.529693 0.84819<66.2814 528.407> 1236.75 -20 1456.75 -20 0.207912 0.978148<66.1874 646.102>
LayerCount: 2
Fore
SplineSet
252 -20 m 5,0,-1
 73 142 l 5,1,-1
 1431 1530 l 5,2,-1
 1620 1378 l 5,3,-1
 252 -20 l 5,0,-1
345 1530 m 1,4,-1
 458 1530 l 2,5,6
 660 1530 660 1530 660 1377 c 0,7,8
 660 1351 660 1351 652 1313 c 2,9,-1
 520 693 l 1,10,-1
 300 693 l 1,11,-1
 430 1304 l 2,12,13
 431 1309 431 1309 431 1311 c 0,14,15
 431 1319 431 1319 413 1319 c 2,16,-1
 300 1319 l 1,17,-1
 345 1530 l 1,4,-1
1240 837 m 1,18,-1
 1476 837 l 1,19,-1
 1165 339 l 1,20,-1
 1252 339 l 1,21,-1
 1207 128 l 1,22,-1
 1061 128 l 2,23,24
 935 128 935 128 910 198 c 0,25,26
 902 224 902 224 902 246 c 0,27,28
 902 309 902 309 955 392 c 2,29,-1
 1240 837 l 1,18,-1
1461 0 m 1,30,-1
 1241 0 l 1,31,-1
 1371 612 l 1,32,-1
 1591 612 l 1,33,-1
 1461 0 l 1,30,-1
EndSplineSet
Validated: 1
EndChar

StartChar: onehalf
Encoding: 189 189 123
Width: 1670
VWidth: 1401
GlyphClass: 2
Flags: W
HStem: -20 21G<229.901 271.571> 0 221<1307 1550> 634 203<1286.09 1449.59> 1319 211<345 430.996>
VStem: 300 220<693 913> 431 229<1145.01 1453.5> 1451 218<501.236 631.386>
DStem2: 73 142 252 -20 0.699396 0.714734<9.40504 1941.83> 148.447 -20 368.447 -20 0.207912 0.978148<774.669 1360.6>
LayerCount: 2
Fore
SplineSet
958 0 m 1,0,1
 1013 263 1013 263 1327 445 c 0,2,3
 1437 509 1437 509 1448 561 c 0,4,5
 1451 573 1451 573 1451 584 c 0,6,7
 1451 634 1451 634 1386 634 c 0,8,9
 1298 634 1298 634 1236 525 c 1,10,-1
 1087 651 l 1,11,12
 1220 837 1220 837 1415 837 c 0,13,14
 1553 837 1553 837 1623 739 c 0,15,16
 1669 674 1669 674 1669 589 c 0,17,18
 1669 576 1669 576 1668 563 c 0,19,20
 1654 379 1654 379 1392 269 c 0,21,22
 1366 258 1366 258 1307 221 c 1,23,-1
 1597 221 l 1,24,-1
 1550 0 l 1,25,-1
 958 0 l 1,0,1
252 -20 m 1,26,-1
 73 142 l 1,27,-1
 1431 1530 l 1,28,-1
 1620 1378 l 1,29,-1
 252 -20 l 1,26,-1
345 1530 m 1,30,-1
 458 1530 l 2,31,32
 660 1530 660 1530 660 1377 c 0,33,34
 660 1351 660 1351 652 1313 c 2,35,-1
 520 693 l 1,36,-1
 300 693 l 1,37,-1
 430 1304 l 2,38,39
 431 1309 431 1309 431 1311 c 0,40,41
 431 1319 431 1319 413 1319 c 2,42,-1
 300 1319 l 1,43,-1
 345 1530 l 1,30,-1
EndSplineSet
Validated: 1
EndChar

StartChar: threequarters
Encoding: 190 190 124
Width: 1712
VWidth: 1401
GlyphClass: 2
Flags: W
HStem: 0 21G<360.901 402.571 1372 1596.25> 719 204<348.102 621.71> 1071 192<521 634.418> 1350 180<491.772 653.206>
VStem: 636 221<939.411 1062.23> 654 200<1267.79 1384> 1371 236<601 837> 1372 220<0 220> 1502 220<392 612>
DStem2: 204 142 383 -20 0.699396 0.714734<9.40504 1941.83> 1086 392 1296 339 0.529693 0.84819<66.2814 528.407> 1367.75 -20 1587.75 -20 0.207912 0.978148<66.1874 646.102>
LayerCount: 2
Fore
SplineSet
624 1530 m 0,0,1
 741 1530 741 1530 805 1466 c 0,2,3
 854 1417 854 1417 854 1351 c 0,4,5
 854 1338 854 1338 852 1324 c 0,6,7
 840 1241 840 1241 768 1190 c 1,8,9
 857 1126 857 1126 857 1026 c 0,10,11
 857 1010 857 1010 855 992 c 0,12,13
 838 866 838 866 747 793 c 0,14,15
 656 719 656 719 500 719 c 0,16,17
 315 719 315 719 198 839 c 1,18,-1
 380 982 l 1,19,20
 436 923 436 923 526 923 c 0,21,22
 618 923 618 923 634 996 c 0,23,24
 636 1005 636 1005 636 1013 c 0,25,26
 636 1071 636 1071 536 1071 c 2,27,-1
 481 1071 l 1,28,-1
 521 1263 l 1,29,-1
 576 1263 l 2,30,31
 643 1263 643 1263 653 1315 c 0,32,33
 654 1319 654 1319 654 1323 c 0,34,35
 654 1350 654 1350 611 1350 c 0,36,37
 550 1350 550 1350 507 1288 c 1,38,-1
 378 1413 l 1,39,40
 477 1530 477 1530 624 1530 c 0,0,1
1371 837 m 1,41,-1
 1607 837 l 1,42,-1
 1296 339 l 1,43,-1
 1383 339 l 1,44,-1
 1338 128 l 1,45,-1
 1192 128 l 2,46,47
 1066 128 1066 128 1041 198 c 0,48,49
 1033 224 1033 224 1033 246 c 0,50,51
 1033 309 1033 309 1086 392 c 2,52,-1
 1371 837 l 1,41,-1
1592 0 m 1,53,-1
 1372 0 l 1,54,-1
 1502 612 l 1,55,-1
 1722 612 l 1,56,-1
 1592 0 l 1,53,-1
383 -20 m 1,57,-1
 204 142 l 1,58,-1
 1562 1530 l 1,59,-1
 1751 1378 l 1,60,-1
 383 -20 l 1,57,-1
EndSplineSet
Validated: 1
EndChar

StartChar: questiondown
Encoding: 191 191 125
Width: 1273
GlyphClass: 2
Flags: W
HStem: -430 300<466.498 779.371> 752 368<709.6 920.459>
VStem: 98 322<-75.8394 136.742> 619 280<344 624> 626 380<835.061 1037.94>
LayerCount: 2
Fore
SplineSet
846 1120 m 128,-1,1
 928 1120 928 1120 972 1062 c 0,2,3
 1005 1019 1005 1019 1006 963 c 0,4,5
 1006 950 1006 950 1004 936 c 0,6,7
 993 855 993 855 931 804 c 0,8,9
 867 752 867 752 786 752 c 0,10,11
 704 752 704 752 660 809 c 0,12,13
 627 852 627 852 626 909 c 0,14,15
 626 922 626 922 628 937 c 0,16,17
 639 1018 639 1018 701.5 1069 c 128,-1,0
 764 1120 764 1120 846 1120 c 128,-1,1
590 -430 m 0,18,19
 347 -430 347 -430 213 -283 c 0,20,21
 98 -157 98 -157 98 11 c 0,22,23
 98 21 98 21 99 40 c 0,24,25
 111 269 111 269 413 426 c 0,26,27
 596 520 596 520 619 624 c 1,28,-1
 899 624 l 1,29,30
 844 374 844 374 594 243 c 0,31,32
 449 167 449 167 425 58 c 0,33,34
 420 35 420 35 420 15 c 0,35,36
 420 -40 420 -40 456 -77 c 0,37,38
 508 -130 508 -130 605 -130 c 0,39,40
 792 -130 792 -130 913 37 c 1,41,-1
 1124 -136 l 1,42,43
 887 -430 887 -430 590 -430 c 0,18,19
EndSplineSet
Validated: 1
EndChar

StartChar: multiply
Encoding: 215 215 126
Width: 1226
GlyphClass: 2
Flags: W
DStem2: 280 513 446 300 0.772066 0.635542<0 357.189 695.509 1051.29> 634 1188 377 975 0.61987 -0.784704<7.83544 296.272 572.414 858.042>
LayerCount: 2
Fore
SplineSet
634 1188 m 1,0,-1
 817 955 l 1,1,-1
 1100 1188 l 1,2,-1
 1263 973 l 1,3,-1
 984 744 l 1,4,-1
 1165 514 l 1,5,-1
 911 299 l 1,6,-1
 727 532 l 1,7,-1
 446 300 l 1,8,-1
 280 513 l 1,9,-1
 560 744 l 1,10,-1
 377 975 l 1,11,-1
 634 1188 l 1,0,-1
EndSplineSet
Validated: 1
EndChar

StartChar: Oslash
Encoding: 216 216 127
Width: 1725
GlyphClass: 2
Flags: W
HStem: -20 300<720.126 1147.07> 1230 300<900.816 1323.28>
VStem: 223 320<490.225 879.785> 1503 320<640.043 1027.17>
DStem2: 160 145 256 26 0.771053 0.636771<0 214.938 536.992 1574.39 1891.86 2102.51>
LayerCount: 2
Fore
SplineSet
897 -20 m 0,0,1
 600 -20 600 -20 419 161 c 1,2,-1
 256 26 l 1,3,-1
 160 145 l 1,4,-1
 324 280 l 1,5,6
 223 440 223 440 223 641 c 0,7,8
 223 698 223 698 231 757 c 0,9,10
 277 1096 277 1096 541 1314 c 0,11,12
 804 1530 804 1530 1149 1530 c 0,13,14
 1442 1530 1442 1530 1623 1353 c 1,15,-1
 1781 1484 l 1,16,-1
 1881 1368 l 1,17,-1
 1719 1234 l 1,18,19
 1823 1072 1823 1072 1823 869 c 0,20,21
 1823 812 1823 812 1815 753 c 0,22,23
 1769 414 1769 414 1505 196 c 0,24,25
 1242 -20 1242 -20 897 -20 c 0,0,1
924 280 m 0,26,27
 1135 280 1135 280 1292 410 c 0,28,29
 1454 543 1454 543 1494 755 c 0,30,31
 1503 803 1503 803 1503 864 c 0,32,33
 1503 958 1503 958 1471 1030 c 1,34,-1
 662 362 l 1,35,36
 757 280 757 280 924 280 c 0,26,27
574 487 m 1,37,-1
 1378 1151 l 1,38,39
 1280 1230 1280 1230 1124 1230 c 0,40,41
 918 1230 918 1230 754 1100 c 0,42,43
 588 967 588 967 552 755 c 0,44,45
 543 702 543 702 543 645 c 0,46,47
 543 559 543 559 574 487 c 1,37,-1
EndSplineSet
Validated: 1
EndChar

StartChar: divide
Encoding: 247 247 128
Width: 1193
GlyphClass: 2
Flags: W
HStem: 91 368<551.541 762.4> 593 302<310 1199> 1014 368<747.541 958.4>
VStem: 466 380<173.061 375.939> 662 380<1096.06 1298.94>
LayerCount: 2
Fore
SplineSet
626 91 m 128,-1,1
 544 91 544 91 500 149 c 0,2,3
 467 192 467 192 466 248 c 0,4,5
 466 261 466 261 468 275 c 0,6,7
 479 356 479 356 541 407 c 0,8,9
 605 459 605 459 686 459 c 0,10,11
 768 459 768 459 812 402 c 0,12,13
 845 359 845 359 846 302 c 0,14,15
 846 289 846 289 844 274 c 0,16,17
 833 193 833 193 770.5 142 c 128,-1,0
 708 91 708 91 626 91 c 128,-1,1
882 1382 m 0,18,19
 964 1382 964 1382 1008 1325 c 0,20,21
 1041 1282 1041 1282 1042 1225 c 0,22,23
 1042 1212 1042 1212 1040 1197 c 0,24,25
 1029 1116 1029 1116 966.5 1065 c 128,-1,26
 904 1014 904 1014 822 1014 c 128,-1,27
 740 1014 740 1014 696 1072 c 0,28,29
 663 1115 663 1115 662 1171 c 0,30,31
 662 1184 662 1184 664 1198 c 0,32,33
 675 1279 675 1279 737 1330 c 0,34,35
 801 1382 801 1382 882 1382 c 0,18,19
310 895 m 1,36,-1
 1263 895 l 1,37,-1
 1199 593 l 1,38,-1
 246 593 l 1,39,-1
 310 895 l 1,36,-1
EndSplineSet
Validated: 1
EndChar

StartChar: oslash
Encoding: 248 248 129
Width: 1320
GlyphClass: 2
Flags: W
HStem: -20 280<574.928 889.78> 840 280<663.502 978.628>
VStem: 184 296<403.127 654.433> 1074 297<445.243 695.576>
DStem2: 109 87 197 -16 0.771646 0.636053<2.39136 196.808 495.125 1124.01 1423.41 1619.13>
LayerCount: 2
Fore
SplineSet
686 -20 m 0,0,1
 479 -20 479 -20 342 104 c 1,2,-1
 197 -16 l 1,3,-1
 109 87 l 1,4,-1
 255 208 l 1,5,6
 184 323 184 323 184 477 c 0,7,8
 184 515 184 515 188 555 c 0,9,10
 217 809 217 809 431 972 c 0,11,12
 626 1120 626 1120 868 1120 c 0,13,14
 1073 1120 1073 1120 1211 996 c 1,15,-1
 1361 1119 l 1,16,-1
 1444 1013 l 1,17,-1
 1299 893 l 1,18,19
 1371 779 1371 779 1371 626 c 0,20,21
 1371 587 1371 587 1366 545 c 0,22,23
 1336 290 1336 290 1123 128 c 0,24,25
 928 -20 928 -20 686 -20 c 0,0,1
715 260 m 0,26,27
 839 260 839 260 939 336 c 0,28,29
 1044 417 1044 417 1068 550 c 0,30,31
 1074 586 1074 586 1074 618 c 0,32,33
 1074 662 1074 662 1062 698 c 1,34,-1
 573 294 l 1,35,36
 629 260 629 260 715 260 c 0,26,27
491 402 m 1,37,-1
 981 806 l 1,38,39
 925 840 925 840 839 840 c 0,40,41
 711 840 711 840 615 764 c 0,42,43
 510 680 510 680 486 550 c 0,44,45
 480 514 480 514 480 482 c 0,46,47
 480 438 480 438 491 402 c 1,37,-1
EndSplineSet
Validated: 1
EndChar

StartChar: florin
Encoding: 402 402 130
Width: 871
GlyphClass: 2
Flags: W
HStem: -430 21G<-75.8076 31.5> 820 280<677.663 1035> 1250 280<796.23 1127>
VStem: 438 300<1160 1460>
DStem2: 99.4033 -430 399.403 -430 0.207912 0.978148<402.058 1333.47 1688.03 1748.7>
LayerCount: 2
Fore
SplineSet
1186 1530 m 1,0,-1
 1127 1250 l 1,1,2
 757 1250 757 1250 738 1160 c 1,3,-1
 438 1160 l 1,4,5
 518 1530 518 1530 1186 1530 c 1,0,-1
-80 -430 m 1,6,-1
 -19 -139 l 1,7,8
 174 -79 174 -79 228 175 c 2,9,-1
 348 739 l 2,10,11
 425 1100 425 1100 845 1100 c 2,12,-1
 1095 1100 l 1,13,-1
 1035 820 l 1,14,-1
 785 820 l 2,15,16
 665 820 665 820 643 717 c 2,17,-1
 528 175 l 2,18,19
 461 -139 461 -139 308 -262 c 0,20,21
 143 -395 143 -395 -80 -430 c 1,6,-1
EndSplineSet
Validated: 1
EndChar

StartChar: endash
Encoding: 8211 8211 131
Width: 1193
GlyphClass: 2
Flags: W
HStem: 593 302<310 1199>
LayerCount: 2
Fore
SplineSet
310 895 m 1,0,-1
 1263 895 l 1,1,-1
 1199 593 l 1,2,-1
 246 593 l 1,3,-1
 310 895 l 1,0,-1
EndSplineSet
Validated: 1
EndChar

StartChar: emdash
Encoding: 8212 8212 132
Width: 1743
GlyphClass: 2
Flags: W
HStem: 593 302<310 1749>
LayerCount: 2
Fore
SplineSet
310 895 m 1,0,-1
 1813 895 l 1,1,-1
 1749 593 l 1,2,-1
 246 593 l 1,3,-1
 310 895 l 1,0,-1
EndSplineSet
Validated: 1
EndChar

StartChar: afii00208
Encoding: 8213 8213 133
Width: 1743
GlyphClass: 2
Flags: W
HStem: 593 302<310 1749>
LayerCount: 2
Fore
SplineSet
310 895 m 1,0,-1
 1813 895 l 1,1,-1
 1749 593 l 1,2,-1
 246 593 l 1,3,-1
 310 895 l 1,0,-1
EndSplineSet
Validated: 1
EndChar

StartChar: quoteleft
Encoding: 8216 8216 134
Width: 420
GlyphClass: 2
Flags: W
VStem: 270 258<1008.49 1277.16>
LayerCount: 2
Fore
SplineSet
553 1550 m 1,0,1
 668 1343 l 1,2,3
 549 1298 549 1298 530 1183 c 0,4,5
 528 1171 528 1171 528 1152 c 0,6,7
 528 1061 528 1061 617 1022 c 1,8,-1
 441 825 l 1,9,10
 270 955 270 955 270 1134 c 0,11,12
 270 1177 270 1177 279 1220 c 0,13,14
 329 1454 329 1454 553 1550 c 1,0,1
EndSplineSet
Validated: 1
EndChar

StartChar: quoteright
Encoding: 8217 8217 135
Width: 447
GlyphClass: 2
Flags: W
VStem: 427 262<1147.68 1338.05>
LayerCount: 2
Fore
SplineSet
554 1550 m 1,0,1
 689 1427 689 1427 689 1273 c 0,2,3
 689 1233 689 1233 680 1191 c 0,4,5
 630 955 630 955 358 825 c 1,6,-1
 246 1061 l 1,7,8
 400 1126 400 1126 421 1208 c 0,9,10
 427 1230 427 1230 427 1250 c 0,11,12
 427 1318 427 1318 359 1352 c 1,13,-1
 554 1550 l 1,0,1
EndSplineSet
Validated: 1
EndChar

StartChar: quotesinglbase
Encoding: 8218 8218 136
Width: 447
GlyphClass: 2
Flags: W
VStem: 172 262<-51.3184 139.055>
LayerCount: 2
Fore
SplineSet
299 351 m 1,0,1
 434 228 434 228 434 74 c 0,2,3
 434 34 434 34 425 -8 c 0,4,5
 375 -244 375 -244 103 -374 c 1,6,-1
 -9 -138 l 1,7,8
 145 -73 145 -73 166 9 c 0,9,10
 172 31 172 31 172 51 c 0,11,12
 172 119 172 119 104 153 c 1,13,-1
 299 351 l 1,0,1
EndSplineSet
Validated: 1
EndChar

StartChar: quotereversed
Encoding: 8219 8219 137
Width: 420
GlyphClass: 2
Flags: W
VStem: 270 258<1008.49 1277.16>
LayerCount: 2
Fore
SplineSet
553 1550 m 1,0,1
 668 1343 l 1,2,3
 549 1298 549 1298 530 1183 c 0,4,5
 528 1171 528 1171 528 1152 c 0,6,7
 528 1061 528 1061 617 1022 c 1,8,-1
 441 825 l 1,9,10
 270 955 270 955 270 1134 c 0,11,12
 270 1177 270 1177 279 1220 c 0,13,14
 329 1454 329 1454 553 1550 c 1,0,1
EndSplineSet
Validated: 1
EndChar

StartChar: quotedblleft
Encoding: 8220 8220 138
Width: 820
GlyphClass: 2
Flags: W
VStem: 270 258<1008.49 1277.16> 670 258<1008.49 1277.16>
LayerCount: 2
Fore
SplineSet
953 1550 m 1,0,1
 1068 1343 l 1,2,3
 949 1298 949 1298 930 1183 c 0,4,5
 928 1171 928 1171 928 1152 c 0,6,7
 928 1061 928 1061 1017 1022 c 1,8,-1
 841 825 l 1,9,10
 670 955 670 955 670 1134 c 0,11,12
 670 1177 670 1177 679 1220 c 0,13,14
 729 1454 729 1454 953 1550 c 1,0,1
553 1550 m 1,15,-1
 668 1343 l 1,16,17
 549 1298 549 1298 530 1183 c 0,18,19
 528 1171 528 1171 528 1152 c 0,20,21
 528 1061 528 1061 617 1022 c 1,22,-1
 441 825 l 1,23,24
 270 955 270 955 270 1134 c 0,25,26
 270 1177 270 1177 279 1220 c 0,27,28
 329 1454 329 1454 553 1550 c 1,15,-1
EndSplineSet
Validated: 1
EndChar

StartChar: quotedblright
Encoding: 8221 8221 139
Width: 847
GlyphClass: 2
Flags: W
VStem: 427 262<1147.68 1338.05> 827 262<1147.68 1338.05>
LayerCount: 2
Fore
SplineSet
954 1550 m 1,0,1
 1089 1427 1089 1427 1089 1273 c 0,2,3
 1089 1233 1089 1233 1080 1191 c 0,4,5
 1030 955 1030 955 758 825 c 1,6,-1
 646 1061 l 1,7,8
 800 1126 800 1126 821 1208 c 0,9,10
 827 1230 827 1230 827 1250 c 0,11,12
 827 1318 827 1318 759 1352 c 1,13,-1
 954 1550 l 1,0,1
554 1550 m 1,14,15
 689 1427 689 1427 689 1273 c 0,16,17
 689 1233 689 1233 680 1191 c 0,18,19
 630 955 630 955 358 825 c 1,20,-1
 246 1061 l 1,21,22
 400 1126 400 1126 421 1208 c 0,23,24
 427 1230 427 1230 427 1250 c 0,25,26
 427 1318 427 1318 359 1352 c 1,27,-1
 554 1550 l 1,14,15
EndSplineSet
Validated: 1
EndChar

StartChar: quotedblbase
Encoding: 8222 8222 140
Width: 847
GlyphClass: 2
Flags: W
VStem: 172 262<-51.3184 139.055> 572 262<-51.3184 139.055>
LayerCount: 2
Fore
SplineSet
699 351 m 1,0,1
 834 228 834 228 834 74 c 0,2,3
 834 34 834 34 825 -8 c 0,4,5
 775 -244 775 -244 503 -374 c 1,6,-1
 391 -138 l 1,7,8
 545 -73 545 -73 566 9 c 0,9,10
 572 31 572 31 572 51 c 0,11,12
 572 119 572 119 504 153 c 1,13,-1
 699 351 l 1,0,1
299 351 m 1,14,15
 434 228 434 228 434 74 c 0,16,17
 434 34 434 34 425 -8 c 0,18,19
 375 -244 375 -244 103 -374 c 1,20,-1
 -9 -138 l 1,21,22
 145 -73 145 -73 166 9 c 0,23,24
 172 31 172 31 172 51 c 0,25,26
 172 119 172 119 104 153 c 1,27,-1
 299 351 l 1,14,15
EndSplineSet
Validated: 1
EndChar

StartChar: dagger
Encoding: 8224 8224 141
Width: 1174
GlyphClass: 2
Flags: W
HStem: 0 21G<437 741.252> 936 282<379 636 996 1253> 1490 20G<753.753 1058>
VStem: 437 300<0 300>
DStem2: 437 0 737 0 0.207912 0.978148<62.3735 956.921 1307.61 1543.74>
LayerCount: 2
Fore
SplineSet
437 0 m 1,0,-1
 636 936 l 1,1,-1
 319 936 l 1,2,-1
 379 1218 l 1,3,-1
 696 1218 l 1,4,-1
 758 1510 l 1,5,-1
 1058 1510 l 1,6,-1
 996 1218 l 1,7,-1
 1313 1218 l 1,8,-1
 1253 936 l 1,9,-1
 936 936 l 1,10,-1
 737 0 l 1,11,-1
 437 0 l 1,0,-1
EndSplineSet
Validated: 1
EndChar

StartChar: daggerdbl
Encoding: 8225 8225 142
Width: 1174
GlyphClass: 2
Flags: W
HStem: 0 21G<437 741.276> 290 282<242 499 859 1116> 936 282<379 636 996 1253> 1490 20G<753.753 1058>
DStem2: 437 0 737 0 0.207912 0.978148<62.3735 296.553 647.239 956.921 1307.61 1543.74>
LayerCount: 2
Fore
SplineSet
437 0 m 1,0,-1
 499 290 l 1,1,-1
 182 290 l 1,2,-1
 242 572 l 1,3,-1
 559 572 l 1,4,-1
 636 936 l 1,5,-1
 319 936 l 1,6,-1
 379 1218 l 1,7,-1
 696 1218 l 1,8,-1
 758 1510 l 1,9,-1
 1058 1510 l 1,10,-1
 996 1218 l 1,11,-1
 1313 1218 l 1,12,-1
 1253 936 l 1,13,-1
 936 936 l 1,14,-1
 859 572 l 1,15,-1
 1176 572 l 1,16,-1
 1116 290 l 1,17,-1
 799 290 l 1,18,-1
 737 0 l 1,19,-1
 437 0 l 1,0,-1
EndSplineSet
Validated: 1
EndChar

StartChar: bullet
Encoding: 8226 8226 143
Width: 932
GlyphClass: 2
Flags: W
HStem: 404 678<490.58 759.522>
LayerCount: 2
Fore
SplineSet
667 1082 m 0,0,1
 810 1082 810 1082 904 974 c 0,2,3
 973 896 973 896 973 794 c 0,4,5
 973 766 973 766 970 742 c 0,6,7
 950 593 950 593 838 500 c 24,8,9
 723 404 723 404 581 404 c 0,10,11
 438 404 438 404 344 512 c 0,12,13
 275 590 275 590 275 692 c 0,14,15
 275 720 275 720 278 744 c 0,16,17
 298 896 298 896 410 986 c 0,18,19
 530 1082 530 1082 667 1082 c 0,0,1
EndSplineSet
Validated: 1
EndChar

StartChar: ellipsis
Encoding: 8230 8230 144
Width: 1289
GlyphClass: 2
Flags: W
HStem: -20 368<139.098 349.4 575.541 786.4 1011.54 1222.4>
VStem: 53 380<62.0605 263.075> 490 380<62.0605 264.939> 926 380<62.0605 264.939>
LayerCount: 2
Fore
SplineSet
1086 -20 m 128,-1,1
 1004 -20 1004 -20 960 38 c 0,2,3
 927 81 927 81 926 137 c 0,4,5
 926 150 926 150 928 164 c 0,6,7
 939 245 939 245 1001 296 c 0,8,9
 1065 348 1065 348 1146 348 c 0,10,11
 1228 348 1228 348 1272 291 c 0,12,13
 1305 248 1305 248 1306 191 c 0,14,15
 1306 178 1306 178 1304 163 c 0,16,17
 1293 82 1293 82 1230.5 31 c 128,-1,0
 1168 -20 1168 -20 1086 -20 c 128,-1,1
650 -20 m 128,-1,19
 568 -20 568 -20 524 38 c 0,20,21
 491 81 491 81 490 137 c 0,22,23
 490 150 490 150 492 164 c 0,24,25
 503 245 503 245 565 296 c 0,26,27
 629 348 629 348 710 348 c 0,28,29
 792 348 792 348 836 291 c 0,30,31
 869 248 869 248 870 191 c 0,32,33
 870 178 870 178 868 163 c 0,34,35
 857 82 857 82 794.5 31 c 128,-1,18
 732 -20 732 -20 650 -20 c 128,-1,19
213 -20 m 128,-1,37
 131 -20 131 -20 87 38 c 0,38,39
 53 81 53 81 53 137 c 0,40,41
 53 150 53 150 55 164 c 0,42,43
 67 245 67 245 129 296 c 0,44,45
 193 348 193 348 273 348 c 0,46,47
 355 348 355 348 399 291 c 0,48,49
 431 248 431 248 433 191 c 0,50,51
 433 178 433 178 431 163 c 0,52,53
 420 82 420 82 357.5 31 c 128,-1,36
 295 -20 295 -20 213 -20 c 128,-1,37
EndSplineSet
Validated: 1
EndChar

StartChar: perthousand
Encoding: 8240 8240 145
Width: 2489
GlyphClass: 2
Flags: W
HStem: -20 221<1223.77 1405.25 1985.77 2167.25> 439 219<1250.36 1433.73 2012.36 2195.73> 852 221<613.77 795.245> 1311 219<640.359 823.729>
VStem: 370 224<1098.16 1265> 842 226<1119.38 1276.25> 980 224<226.16 393.002> 1452 226<247.382 404.248> 1742 224<226.16 393.002> 2214 226<247.382 404.248>
DStem2: 256 142 435 -20 0.699396 0.714734<9.40504 1941.83>
LayerCount: 2
Fore
SplineSet
435 -20 m 1,0,-1
 256 142 l 1,1,-1
 1614 1530 l 1,2,-1
 1803 1378 l 1,3,-1
 435 -20 l 1,0,-1
2048 -20 m 0,4,5
 1905 -20 1905 -20 1811 88 c 0,6,7
 1742 166 1742 166 1742 268 c 0,8,9
 1742 296 1742 296 1745 320 c 0,10,11
 1765 472 1765 472 1877 562 c 0,12,13
 1997 658 1997 658 2134 658 c 0,14,15
 2277 658 2277 658 2371 550 c 0,16,17
 2440 472 2440 472 2440 370 c 0,18,19
 2440 342 2440 342 2437 318 c 0,20,21
 2417 169 2417 169 2305 76 c 24,22,23
 2190 -20 2190 -20 2048 -20 c 0,4,5
2115 439 m 128,-1,25
 2064 439 2064 439 2021.5 404 c 128,-1,26
 1979 369 1979 369 1969 320 c 0,27,28
 1966 307 1966 307 1966 295 c 0,29,30
 1967 262 1967 262 1987 236 c 0,31,32
 2015 201 2015 201 2065.5 201 c 128,-1,33
 2116 201 2116 201 2158.5 237 c 128,-1,34
 2201 273 2201 273 2211 322 c 0,35,36
 2214 335 2214 335 2214 348 c 0,37,38
 2214 381 2214 381 2194 405 c 0,39,24
 2166 439 2166 439 2115 439 c 128,-1,25
1286 -20 m 0,40,41
 1143 -20 1143 -20 1049 88 c 0,42,43
 980 166 980 166 980 268 c 0,44,45
 980 296 980 296 983 320 c 0,46,47
 1003 472 1003 472 1115 562 c 0,48,49
 1235 658 1235 658 1372 658 c 0,50,51
 1515 658 1515 658 1609 550 c 0,52,53
 1678 472 1678 472 1678 370 c 0,54,55
 1678 342 1678 342 1675 318 c 0,56,57
 1655 169 1655 169 1543 76 c 24,58,59
 1428 -20 1428 -20 1286 -20 c 0,40,41
1353 439 m 128,-1,61
 1302 439 1302 439 1259.5 404 c 128,-1,62
 1217 369 1217 369 1207 320 c 0,63,64
 1204 307 1204 307 1204 295 c 0,65,66
 1205 262 1205 262 1225 236 c 0,67,68
 1253 201 1253 201 1303.5 201 c 128,-1,69
 1354 201 1354 201 1396.5 237 c 128,-1,70
 1439 273 1439 273 1449 322 c 0,71,72
 1452 335 1452 335 1452 348 c 0,73,74
 1452 381 1452 381 1432 405 c 0,75,60
 1404 439 1404 439 1353 439 c 128,-1,61
762 1530 m 0,76,77
 905 1530 905 1530 999 1422 c 0,78,79
 1068 1344 1068 1344 1068 1242 c 0,80,81
 1068 1214 1068 1214 1065 1190 c 0,82,83
 1045 1041 1045 1041 933 948 c 24,84,85
 818 852 818 852 676 852 c 0,86,87
 533 852 533 852 439 960 c 0,88,89
 370 1038 370 1038 370 1140 c 0,90,91
 370 1168 370 1168 373 1192 c 0,92,93
 393 1344 393 1344 505 1434 c 0,94,95
 625 1530 625 1530 762 1530 c 0,76,77
743 1311 m 128,-1,97
 692 1311 692 1311 649.5 1276 c 128,-1,98
 607 1241 607 1241 597 1192 c 0,99,100
 594 1179 594 1179 594 1167 c 0,101,102
 595 1134 595 1134 615 1108 c 0,103,104
 643 1073 643 1073 693.5 1073 c 128,-1,105
 744 1073 744 1073 786.5 1109 c 128,-1,106
 829 1145 829 1145 839 1194 c 0,107,108
 842 1207 842 1207 842 1220 c 0,109,110
 842 1253 842 1253 822 1277 c 0,111,96
 794 1311 794 1311 743 1311 c 128,-1,97
EndSplineSet
Validated: 1
EndChar

StartChar: minute
Encoding: 8242 8242 146
Width: 458
GlyphClass: 2
Flags: W
HStem: 941 589
VStem: 238 507
DStem2: 238 1027 463 941 0.48755 0.873095<34.6126 576.656>
LayerCount: 2
Fore
SplineSet
520 1530 m 1,0,-1
 745 1446 l 1,1,-1
 463 941 l 1,2,-1
 238 1027 l 1,3,-1
 520 1530 l 1,0,-1
EndSplineSet
Validated: 1
EndChar

StartChar: second
Encoding: 8243 8243 147
Width: 882
GlyphClass: 2
Flags: W
HStem: 941 589
DStem2: 238 1027 463 941 0.48755 0.873095<34.6126 576.656> 662 1027 887 941 0.48755 0.873095<34.6126 576.656>
LayerCount: 2
Fore
SplineSet
944 1530 m 1,0,-1
 1169 1446 l 1,1,-1
 887 941 l 1,2,-1
 662 1027 l 1,3,-1
 944 1530 l 1,0,-1
520 1530 m 1,4,-1
 745 1446 l 1,5,-1
 463 941 l 1,6,-1
 238 1027 l 1,7,-1
 520 1530 l 1,4,-1
EndSplineSet
Validated: 1
EndChar

StartChar: guilsinglleft
Encoding: 8249 8249 148
Width: 948
GlyphClass: 2
Flags: W
DStem2: 633 708 279 746 0.531199 -0.847247<0 433.23> 279 746 633 708 0.724396 0.689384<230.24 823.758>
LayerCount: 2
Fore
SplineSet
879 1317 m 1,0,-1
 1065 1115 l 1,1,-1
 633 708 l 1,2,-1
 868 344 l 1,3,-1
 637 175 l 1,4,-1
 279 746 l 1,5,-1
 879 1317 l 1,0,-1
EndSplineSet
Validated: 1
EndChar

StartChar: guilsinglright
Encoding: 8250 8250 149
Width: 947
GlyphClass: 2
Flags: W
DStem2: 200 377 386 175 0.724396 0.689384<0 593.518> 628 1317 397 1148 0.531199 -0.847247<20.4779 453.708>
LayerCount: 2
Fore
SplineSet
628 1317 m 1,0,-1
 986 746 l 1,1,-1
 386 175 l 1,2,-1
 200 377 l 1,3,-1
 632 784 l 1,4,-1
 397 1148 l 1,5,-1
 628 1317 l 1,0,-1
EndSplineSet
Validated: 1
EndChar

StartChar: fraction
Encoding: 8260 8260 150
Width: 1175
GlyphClass: 2
Flags: W
DStem2: -21 -144 220 -279 0.557079 0.83046<22.1439 2324.76>
LayerCount: 2
Fore
SplineSet
1275 1786 m 1,0,-1
 1516 1653 l 1,1,-1
 220 -279 l 1,2,-1
 -21 -144 l 1,3,-1
 1275 1786 l 1,0,-1
EndSplineSet
Validated: 1
EndChar

StartChar: Euro
Encoding: 8364 8364 151
Width: 1683
GlyphClass: 2
Flags: W
HStem: -20 300<821.416 1247.07> 548 150<218 329 654 1124> 804 150<273 339 725 1179> 1230 300<1000.82 1422.57>
VStem: 339 313<698.906 804>
LayerCount: 2
Fore
SplineSet
997 -20 m 0,0,1
 653 -20 653 -20 464 223 c 0,2,3
 351 368 351 368 329 548 c 1,4,-1
 186 548 l 1,5,-1
 218 698 l 1,6,-1
 325 698 l 1,7,8
 327 727 327 727 331 757 c 0,9,10
 334 781 334 781 339 804 c 1,11,-1
 241 804 l 1,12,-1
 273 954 l 1,13,-1
 380 954 l 1,14,15
 458 1163 458 1163 641 1314 c 0,16,17
 904 1530 904 1530 1249 1530 c 0,18,19
 1593 1530 1593 1530 1782 1287 c 1,20,-1
 1530 1098 l 1,21,22
 1425 1230 1425 1230 1224 1230 c 0,23,24
 1018 1230 1018 1230 854 1100 c 0,25,26
 774 1036 774 1036 725 954 c 1,27,-1
 1211 954 l 1,28,-1
 1179 804 l 1,29,-1
 662 804 l 1,30,31
 656 780 656 780 652 755 c 0,32,33
 647 727 647 727 645 698 c 1,34,-1
 1156 698 l 1,35,-1
 1124 548 l 1,36,-1
 654 548 l 1,37,38
 671 474 671 474 716 412 c 0,39,40
 812 280 812 280 1024 280 c 0,41,42
 1235 280 1235 280 1392 410 c 1,43,-1
 1605 196 l 1,44,45
 1342 -20 1342 -20 997 -20 c 0,0,1
EndSplineSet
Validated: 1
EndChar

StartChar: afii61248
Encoding: 8453 8453 152
Width: 2244
GlyphClass: 2
Flags: W
HStem: -20 262<1620.92 1867.16> 580 261<1673.19 1918.66> 669 262<645.917 911.201> 1269 261<698.195 995.938>
VStem: 348 269<969.824 1185.75> 1323 269<287.973 495.7> 1946 271<325.3 532.965>
DStem2: 499 142 678 -20 0.699396 0.714734<9.40504 1941.83>
LayerCount: 2
Fore
SplineSet
867 1530 m 0,0,1
 1034 1530 1034 1530 1149 1406 c 1,2,-1
 946 1223 l 1,3,4
 911 1269 911 1269 833 1269 c 0,5,6
 751 1269 751 1269 696 1223 c 0,7,8
 639 1175 639 1175 623 1100 c 0,9,10
 618 1075 618 1075 617 1054 c 0,11,12
 617 1007 617 1007 643 976 c 0,13,14
 683 931 683 931 761 931 c 0,15,16
 835 931 835 931 892 976 c 1,17,-1
 1053 786 l 1,18,19
 905 669 905 669 723 669 c 0,20,21
 556 669 556 669 441 793 c 0,22,23
 348 892 348 892 348 1036 c 0,24,25
 348 1067 348 1067 353 1097 c 0,26,27
 385 1293 385 1293 537 1413 c 0,28,29
 685 1530 685 1530 867 1530 c 0,0,1
1698 -20 m 0,30,31
 1531 -20 1531 -20 1416 104 c 0,32,33
 1323 203 1323 203 1323 347 c 0,34,35
 1323 378 1323 378 1328 408 c 0,36,37
 1360 604 1360 604 1512 724 c 0,38,39
 1660 841 1660 841 1842 841 c 0,40,41
 2009 841 2009 841 2124 717 c 0,42,43
 2217 618 2217 618 2217 474 c 0,44,45
 2217 443 2217 443 2212 413 c 0,46,47
 2180 217 2180 217 2028 97 c 0,48,49
 1880 -20 1880 -20 1698 -20 c 0,30,31
1736 242 m 0,50,51
 1810 242 1810 242 1868 287 c 0,52,53
 1925 332 1925 332 1942 411 c 0,54,55
 1946 430 1946 430 1946 454 c 0,56,57
 1946 501 1946 501 1921 534 c 0,58,59
 1886 580 1886 580 1808 580 c 0,60,61
 1726 580 1726 580 1671 534 c 0,62,63
 1614 486 1614 486 1598 411 c 0,64,65
 1593 386 1593 386 1592 365 c 0,66,67
 1592 318 1592 318 1618 287 c 0,68,69
 1658 242 1658 242 1736 242 c 0,50,51
678 -20 m 1,70,-1
 499 142 l 1,71,-1
 1857 1530 l 1,72,-1
 2046 1378 l 1,73,-1
 678 -20 l 1,70,-1
EndSplineSet
Validated: 1
EndChar

StartChar: afii61289
Encoding: 8467 8467 153
Width: 1267
GlyphClass: 2
Flags: W
HStem: 0 236<646 811.391> 1490 20G<1135.5 1227.5>
LayerCount: 2
Fore
SplineSet
700 0 m 0,0,1
 592 0 592 0 525 64 c 1,2,-1
 488 21 l 1,3,-1
 124 21 l 1,4,5
 322 184 322 184 452 338 c 1,6,7
 452 381 452 381 475.5 492.5 c 128,-1,8
 499 604 499 604 560 742 c 0,9,10
 763 1203 763 1203 969 1403 c 0,11,12
 1080 1510 1080 1510 1191 1510 c 0,13,14
 1264 1510 1264 1510 1316 1458 c 0,15,16
 1348 1426 1348 1426 1348 1357 c 0,17,18
 1348 1316 1348 1316 1336 1261 c 0,19,20
 1316 1169 1316 1169 1255 1025 c 0,21,22
 1117 704 1117 704 748 292 c 1,23,24
 748 236 748 236 759 236 c 0,25,26
 776 236 776 236 811 280 c 0,27,28
 832 306 832 306 853 339 c 1,29,-1
 1169 339 l 1,30,31
 1039 164 1039 164 924.5 82 c 128,-1,32
 810 0 810 0 700 0 c 0,0,1
EndSplineSet
Validated: 1
EndChar

StartChar: trademark
Encoding: 8482 8482 154
Width: 2048
GlyphClass: 2
Flags: W
HStem: 1300 210<441 625 854.919 1099 1400.25 1917.94>
VStem: 505 225<684 909> 1061 218<832.363 1176.88> 1427 220<684 904> 1540 220<992 1212> 1966 218<984.532 1240.68>
DStem2: 505 684 730 684 0.207912 0.978148<46.7801 677.743> 1427 684 1647 684 0.207912 0.978148<45.7406 539.956>
LayerCount: 2
Fore
SplineSet
1159 684 m 1,0,1
 1061 834 1061 834 1061 997 c 0,2,3
 1061 1044 1061 1044 1069 1092 c 0,4,5
 1100 1270 1100 1270 1231 1382 c 0,6,7
 1381 1510 1381 1510 1566 1510 c 2,8,-1
 1831 1510 l 2,9,10
 2016 1510 2016 1510 2112 1382 c 0,11,12
 2184 1285 2184 1285 2184 1156 c 0,13,14
 2184 1125 2184 1125 2180 1092 c 0,15,16
 2148 855 2148 855 1946 684 c 1,17,-1
 1665 684 l 1,18,19
 1772 770 1772 770 1871 899 c 0,20,21
 1937 985 1937 985 1960 1092 c 0,22,23
 1965 1118 1965 1118 1966 1142 c 0,24,25
 1966 1200 1966 1200 1932 1242 c 0,26,27
 1885 1300 1885 1300 1799 1300 c 2,28,-1
 1538 1300 l 2,29,30
 1452 1300 1452 1300 1381 1242 c 0,31,32
 1308 1183 1308 1183 1289 1092 c 0,33,34
 1279 1046 1279 1046 1279 1003 c 0,35,36
 1279 948 1279 948 1296 899 c 0,37,38
 1341 770 1341 770 1410 684 c 1,39,-1
 1159 684 l 1,0,1
1647 684 m 1,40,-1
 1427 684 l 1,41,-1
 1540 1212 l 1,42,-1
 1760 1212 l 1,43,-1
 1647 684 l 1,40,-1
1145 1510 m 1,44,-1
 1099 1296 l 1,45,-1
 891 1296 l 2,46,47
 860 1296 860 1296 854 1266 c 2,48,-1
 730 684 l 1,49,-1
 505 684 l 1,50,-1
 635 1296 l 2,51,52
 680 1510 680 1510 937 1510 c 2,53,-1
 1145 1510 l 1,44,-1
441 1510 m 1,54,-1
 671 1510 l 1,55,-1
 625 1296 l 1,56,-1
 395 1296 l 1,57,-1
 441 1510 l 1,54,-1
EndSplineSet
Validated: 1
EndChar

StartChar: uni2126
Encoding: 8486 8486 155
Width: 1868
GlyphClass: 2
Flags: W
HStem: 0 300<84 442 756.435 823 1107 1267.78 1554 1848> 1230 300<974.816 1396.57>
VStem: 297 320<457.329 879.785> 1577 320<637.34 1052.32>
LayerCount: 2
Fore
SplineSet
20 0 m 1,0,-1
 84 300 l 1,1,-1
 442 300 l 1,2,3
 297 453 297 453 297 641 c 0,4,5
 297 698 297 698 305 757 c 0,6,7
 351 1096 351 1096 615 1314 c 0,8,9
 878 1530 878 1530 1223 1530 c 0,10,11
 1567 1530 1567 1530 1756 1287 c 0,12,13
 1897 1106 1897 1106 1897 869 c 0,14,15
 1897 805 1897 805 1889 753 c 0,16,17
 1842 467 1842 467 1554 300 c 1,18,-1
 1912 300 l 1,19,-1
 1848 0 l 1,20,-1
 1045 0 l 1,21,-1
 1107 291 l 1,22,23
 1251 314 1251 314 1366 410 c 0,24,25
 1529 546 1529 546 1568 755 c 0,26,27
 1577 803 1577 803 1577 864 c 0,28,29
 1577 1006 1577 1006 1504 1098 c 0,30,31
 1399 1230 1399 1230 1198 1230 c 0,32,33
 992 1230 992 1230 828 1100 c 0,34,35
 662 967 662 967 626 755 c 0,36,37
 617 702 617 702 617 645 c 0,38,39
 617 512 617 512 690 412 c 0,40,41
 761 314 761 314 885 291 c 1,42,-1
 823 0 l 1,43,-1
 20 0 l 1,0,-1
EndSplineSet
Validated: 1
EndChar

StartChar: estimated
Encoding: 8494 8494 156
Width: 1319
GlyphClass: 2
Flags: W
HStem: 0 193<525.017 892.272> 533 194<575 1051> 995 194<673.264 1042.69>
LayerCount: 2
Fore
SplineSet
658 0 m 0,0,1
 393 0 393 0 268 171 c 0,2,3
 181 290 181 290 181 452 c 0,4,5
 181 521 181 521 197 598 c 0,6,7
 252 855 252 855 451 1021 c 0,8,9
 653 1189 653 1189 908 1189 c 128,-1,10
 1163 1189 1163 1189 1286 1036 c 0,11,12
 1384 913 1384 913 1384 726 c 0,13,14
 1384 637 1384 637 1362 533 c 1,15,-1
 533 533 l 1,16,-1
 478 273 l 1,17,18
 561 193 561 193 699 193 c 0,19,20
 918 193 918 193 1084 391 c 1,21,-1
 1236 290 l 1,22,23
 1068 111 1068 111 930.5 55.5 c 128,-1,24
 793 0 793 0 658 0 c 0,0,1
1051 727 m 1,25,-1
 1091 918 l 1,26,27
 1004 995 1004 995 867 995 c 0,28,29
 728 995 728 995 615 917 c 1,30,-1
 575 727 l 1,31,-1
 1051 727 l 1,25,-1
EndSplineSet
Validated: 1
EndChar

StartChar: partialdiff
Encoding: 8706 8706 157
Width: 1345
GlyphClass: 2
Flags: W
HStem: -20 273<529.666 740.08> 822 261<757.302 1001.97> 1257 273<791.982 1096.26>
VStem: 193 317<264.322 520.745> 1138 312<1024.79 1215.93>
LayerCount: 2
Fore
SplineSet
538 -20 m 0,0,1
 268 -20 268 -20 209 171 c 0,2,3
 193 223 193 223 193 285 c 0,4,5
 193 345 193 345 208 416 c 0,6,7
 263 673 263 673 460.5 878 c 128,-1,8
 658 1083 658 1083 930 1083 c 0,9,10
 1049 1083 1049 1083 1134 1024 c 1,11,12
 1138 1060 1138 1060 1138 1089 c 0,13,14
 1138 1144 1138 1144 1124 1173 c 0,15,16
 1086 1257 1086 1257 963 1257 c 0,17,18
 808 1257 808 1257 631 1132 c 1,19,-1
 697 1443 l 1,20,21
 861 1530 861 1530 1058 1530 c 0,22,23
 1375 1530 1375 1530 1436 1271 c 0,24,25
 1450 1213 1450 1213 1450 1145 c 0,26,27
 1450 1057 1450 1057 1427 950 c 0,28,29
 1345 563 1345 563 1100 272 c 0,30,31
 857 -20 857 -20 538 -20 c 0,0,1
1038 699 m 1,32,33
 1029 756 1029 756 992 788 c 0,34,35
 953 822 953 822 900 822 c 0,36,37
 775 822 775 822 670 706 c 0,38,39
 551 572 551 572 521 432 c 0,40,41
 510 381 510 381 510 346 c 0,42,43
 510 283 510 283 544 266 c 0,44,45
 572 253 572 253 609 253 c 0,46,47
 716 253 716 253 837 376 c 128,-1,48
 958 499 958 499 1038 699 c 1,32,33
EndSplineSet
Validated: 1
EndChar

StartChar: uni2206
Encoding: 8710 8710 158
Width: 1839
GlyphClass: 2
Flags: W
HStem: 0 300<613 1401> 1490 20G<1110.17 1387.99>
DStem2: 5 0 613 300 0.595736 0.80318<603.162 1549.81> 1382 1510 1172 1064 0.286766 -0.958001<367.048 1164.63>
LayerCount: 2
Fore
SplineSet
5 0 m 1,0,-1
 1125 1510 l 1,1,-1
 1382 1510 l 1,2,-1
 1834 0 l 1,3,-1
 5 0 l 1,0,-1
613 300 m 1,4,-1
 1401 300 l 1,5,-1
 1172 1064 l 1,6,-1
 613 300 l 1,4,-1
EndSplineSet
Validated: 1
EndChar

StartChar: product
Encoding: 8719 8719 159
Width: 1609
GlyphClass: 2
Flags: W
HStem: 1210 300<747 1376>
VStem: 83 320<-410 -90> 491 1269<241 1510> 1032 320<-410 -90>
DStem2: 83 -410 403 -410 0.207912 0.978148<66.5317 1722.65> 1032 -410 1352 -410 0.207912 0.978148<66.5317 1656.12>
LayerCount: 2
Fore
SplineSet
83 -410 m 1,0,-1
 491 1510 l 1,1,-1
 1760 1510 l 1,2,-1
 1352 -410 l 1,3,-1
 1032 -410 l 1,4,-1
 1376 1210 l 1,5,-1
 747 1210 l 1,6,-1
 403 -410 l 1,7,-1
 83 -410 l 1,0,-1
EndSplineSet
Validated: 1
EndChar

StartChar: summation
Encoding: 8721 8721 160
Width: 1425
GlyphClass: 2
Flags: W
HStem: -410 300<607 1218> 1210 300<829 1471>
DStem2: 829 1210 391 1510 0.307583 -0.951521<0 587.682>
LayerCount: 2
Fore
SplineSet
26 -410 m 1,0,-1
 701 551 l 1,1,-1
 391 1510 l 1,2,-1
 1535 1510 l 1,3,-1
 1471 1210 l 1,4,-1
 829 1210 l 1,5,-1
 1059 498 l 5,6,-1
 607 -110 l 1,7,-1
 1282 -110 l 1,8,-1
 1218 -410 l 1,9,-1
 26 -410 l 1,0,-1
EndSplineSet
Validated: 1
EndChar

StartChar: minus
Encoding: 8722 8722 161
Width: 1193
GlyphClass: 2
Flags: W
HStem: 593 302<310 1199>
LayerCount: 2
Fore
SplineSet
310 895 m 1,0,-1
 1263 895 l 1,1,-1
 1199 593 l 1,2,-1
 246 593 l 1,3,-1
 310 895 l 1,0,-1
EndSplineSet
Validated: 1
EndChar

StartChar: uni2215
Encoding: 8725 8725 162
Width: 1175
GlyphClass: 2
Flags: W
DStem2: -21 -144 220 -279 0.557079 0.83046<22.1439 2324.76>
LayerCount: 2
Fore
SplineSet
1275 1786 m 1,0,-1
 1516 1653 l 1,1,-1
 220 -279 l 1,2,-1
 -21 -144 l 1,3,-1
 1275 1786 l 1,0,-1
EndSplineSet
Validated: 1
EndChar

StartChar: uni2219
Encoding: 8729 8729 163
Width: 416
GlyphClass: 2
Flags: W
HStem: 583 368<266.541 477.4>
VStem: 181 380<665.061 867.939>
LayerCount: 2
Fore
SplineSet
401 951 m 0,0,1
 483 951 483 951 527 894 c 0,2,3
 560 851 560 851 561 794 c 0,4,5
 561 781 561 781 559 766 c 0,6,7
 548 685 548 685 485.5 634 c 128,-1,8
 423 583 423 583 341 583 c 128,-1,9
 259 583 259 583 215 641 c 0,10,11
 182 684 182 684 181 740 c 0,12,13
 181 753 181 753 183 767 c 0,14,15
 194 848 194 848 256 899 c 0,16,17
 320 951 320 951 401 951 c 0,0,1
EndSplineSet
Validated: 1
EndChar

StartChar: radical
Encoding: 8730 8730 164
Width: 1464
GlyphClass: 2
Flags: W
HStem: 0 21G<506.613 754.26> 1230 280<1495.54 1705>
VStem: 247 325<508 833>
DStem2: 690 457 742 0 0.522634 0.852557<0 1086.5>
LayerCount: 2
Fore
SplineSet
513 0 m 1,0,-1
 247 833 l 1,1,-1
 572 833 l 1,2,-1
 690 457 l 1,3,-1
 1144 1200 l 2,4,5
 1333 1510 1333 1510 1628 1510 c 2,6,-1
 1765 1510 l 1,7,-1
 1705 1230 l 1,8,-1
 1628 1230 l 2,9,10
 1496 1230 1496 1230 1420 1106 c 2,11,-1
 742 0 l 1,12,-1
 513 0 l 1,0,-1
EndSplineSet
Validated: 1
EndChar

StartChar: infinity
Encoding: 8734 8734 165
Width: 1656
GlyphClass: 2
Flags: W
HStem: 374 298<606.971 751.147 1210.37 1354.01> 1002 308<649.333 807.681 1262.85 1412.84>
VStem: 293 291<690.375 929.719> 1430 291<754.281 993.625>
LayerCount: 2
Fore
SplineSet
777 1310 m 0,0,1
 949 1310 949 1310 1036 1181 c 0,2,3
 1116 1062 1116 1062 1144 904 c 24,4,5
 1183 682 1183 682 1272 682 c 0,6,7
 1323 682 1323 682 1365 727 c 0,8,9
 1411 777 1411 777 1425 847 c 0,10,11
 1430 870 1430 870 1430 891 c 0,12,13
 1430 931 1430 931 1412 962 c 0,14,15
 1383 1012 1383 1012 1329 1012 c 0,16,17
 1254 1012 1254 1012 1164 906 c 1,18,-1
 1234 1239 l 1,19,20
 1296 1310 1296 1310 1390 1310 c 0,21,22
 1560 1310 1560 1310 1659 1156 c 0,23,24
 1721 1061 1721 1061 1721 924 c 0,25,26
 1721 886 1721 886 1716 845 c 0,27,28
 1695 659 1695 659 1567 526 c 0,29,30
 1421 374 1421 374 1237 374 c 0,31,32
 1065 374 1065 374 978 503 c 0,33,34
 905 612 905 612 870 780 c 24,35,36
 824 1002 824 1002 742 1002 c 0,37,38
 691 1002 691 1002 649 957 c 0,39,40
 603 907 603 907 589 837 c 0,41,42
 584 814 584 814 584 793 c 0,43,44
 584 753 584 753 602 722 c 0,45,46
 631 672 631 672 685 672 c 0,47,48
 760 672 760 672 850 778 c 1,49,-1
 780 445 l 1,50,51
 718 374 718 374 624 374 c 0,52,53
 454 374 454 374 355 528 c 0,54,55
 293 623 293 623 293 760 c 0,56,57
 293 798 293 798 298 839 c 0,58,59
 319 1025 319 1025 447 1158 c 0,60,61
 593 1310 593 1310 777 1310 c 0,0,1
EndSplineSet
Validated: 1
EndChar

StartChar: approxequal
Encoding: 8776 8776 166
Width: 1445
GlyphClass: 2
Flags: W
HStem: 181 310<963.746 1129.62> 448 310<514.064 675.854> 745 310<1083.75 1249.62> 1012 310<634.064 795.854>
LayerCount: 2
Fore
SplineSet
1234 712 m 1,0,-1
 1450 586 l 1,1,2
 1285 181 1285 181 1018 181 c 0,3,4
 869 181 869 181 766 301 c 2,5,-1
 666 417 l 2,6,7
 639 448 639 448 604 448 c 0,8,9
 497 448 497 448 409 227 c 1,10,-1
 195 353 l 1,11,12
 359 758 359 758 626 758 c 0,13,14
 772 758 772 758 870 644 c 2,15,-1
 970 528 l 2,16,17
 1002 491 1002 491 1040 491 c 0,18,19
 1146 491 1146 491 1234 712 c 1,0,-1
1354 1276 m 1,20,-1
 1570 1150 l 1,21,22
 1405 745 1405 745 1138 745 c 0,23,24
 989 745 989 745 886 865 c 2,25,-1
 786 981 l 2,26,27
 759 1012 759 1012 724 1012 c 0,28,29
 617 1012 617 1012 529 791 c 1,30,-1
 315 917 l 1,31,32
 479 1322 479 1322 746 1322 c 0,33,34
 892 1322 892 1322 990 1208 c 2,35,-1
 1090 1092 l 2,36,37
 1122 1055 1122 1055 1160 1055 c 0,38,39
 1266 1055 1266 1055 1354 1276 c 1,20,-1
EndSplineSet
Validated: 1
EndChar

StartChar: notequal
Encoding: 8800 8800 167
Width: 1193
GlyphClass: 2
Flags: W
HStem: 0 21G<250.609 302.811> 370 271<256 382 562 581 762 1152> 838 271<356 727 908 928 1108 1251> 1491 20G<1210.22 1264.1>
DStem2: 159 69 288 0 0.594642 0.803991<21.2334 374.606 818.452 956.025 1400.47 1793.24>
LayerCount: 2
Fore
SplineSet
288 0 m 1,0,-1
 159 69 l 1,1,-1
 382 370 l 1,2,-1
 199 370 l 1,3,-1
 256 641 l 1,4,-1
 581 641 l 1,5,-1
 727 838 l 1,6,-1
 298 838 l 1,7,-1
 356 1109 l 1,8,-1
 928 1109 l 1,9,-1
 1225 1511 l 1,10,-1
 1356 1444 l 1,11,-1
 1108 1109 l 1,12,-1
 1309 1109 l 1,13,-1
 1251 838 l 1,14,-1
 908 838 l 1,15,-1
 762 641 l 1,16,-1
 1209 641 l 1,17,-1
 1152 370 l 1,18,-1
 562 370 l 1,19,-1
 288 0 l 1,0,-1
EndSplineSet
Validated: 1
EndChar

StartChar: lessequal
Encoding: 8804 8804 168
Width: 1243
GlyphClass: 2
Flags: W
HStem: 0 301<184 1073> 1503 20G<1193.65 1238.25>
DStem2: 688 893 290 798 0.834192 -0.551474<0 579.896> 342 1047 688 893 0.881583 0.472029<232.335 966.826>
LayerCount: 2
Fore
SplineSet
1231 1523 m 1,0,-1
 1330 1250 l 1,1,-1
 688 893 l 1,2,-1
 1181 576 l 1,3,-1
 1007 324 l 1,4,-1
 290 798 l 1,5,-1
 342 1047 l 1,6,-1
 1231 1523 l 1,0,-1
120 0 m 1,7,-1
 184 301 l 1,8,-1
 1137 301 l 1,9,-1
 1073 0 l 1,10,-1
 120 0 l 1,7,-1
EndSplineSet
Validated: 1
EndChar

StartChar: greaterequal
Encoding: 8805 8805 169
Width: 1243
GlyphClass: 2
Flags: W
HStem: 0 301<234 1123> 1501 20G<606.19 650.253>
DStem2: 297 595 395 322 0.881583 0.472029<0 734.491> 620 1521 446 1269 0.834192 -0.551474<0 579.896>
LayerCount: 2
Fore
SplineSet
620 1521 m 1,0,-1
 1337 1047 l 1,1,-1
 1284 798 l 1,2,-1
 395 322 l 1,3,-1
 297 595 l 1,4,-1
 939 952 l 1,5,-1
 446 1269 l 1,6,-1
 620 1521 l 1,0,-1
170 0 m 1,7,-1
 234 301 l 1,8,-1
 1187 301 l 1,9,-1
 1123 0 l 1,10,-1
 170 0 l 1,7,-1
EndSplineSet
Validated: 1
EndChar

StartChar: lozenge
Encoding: 9674 9674 170
Width: 1255
GlyphClass: 2
Flags: W
HStem: 0 21G<617.797 646.635> 1505 20G<933.972 961.563>
DStem2: 248 744 571 714 0.669543 0.742774<193.979 635.72> 710 444 628 0 0.68169 0.731641<0 430.884>
LayerCount: 2
Fore
SplineSet
868 1041 m 1,0,-1
 571 714 l 1,1,-1
 710 444 l 1,2,-1
 1004 759 l 1,3,-1
 868 1041 l 1,0,-1
628 0 m 1,4,-1
 251 739 l 1,5,-1
 248 744 l 1,6,-1
 952 1525 l 1,7,-1
 1324 747 l 1,8,-1
 628 0 l 1,4,-1
EndSplineSet
Validated: 1
EndChar

StartChar: Wgrave
Encoding: 7808 7808 171
Width: 2238
Flags: W
HStem: -20 300<721.572 1015.57 1439 1651.92> 1490 20G<477 1079 1275.75 1600 1801 2257>
VStem: 220 318<466.093 867.335> 1280 320<1190 1510> 2031 311<675.147 1191.62>
DStem2: 954.89 -20 1275.14 -20 0.207912 0.978148<313.894 1564.16> 1334 2010 1158 1851 0.669106 -0.743167<0.400953 390.155>
LayerCount: 2
Fore
SplineSet
1378 -20 m 9,0,-1
 1439 280 l 17,1,2
 1636 280 1636 280 1800 414 c 0,3,4
 1965 548 1965 548 2009 755 c 0,5,6
 2031 858 2031 858 2031 950 c 0,7,8
 2031 1070 2031 1070 1994 1172 c 0,9,10
 1932 1346 1932 1346 1801 1510 c 1,11,-1
 2172 1510 l 1,12,13
 2342 1247 2342 1247 2342 935 c 0,14,15
 2342 847 2342 847 2329 755 c 0,16,17
 2282 434 2282 434 2025 217 c 0,18,19
 1746 -20 1746 -20 1378 -20 c 9,0,-1
855 -20 m 24,20,21
 534 -20 534 -20 355 217 c 0,22,23
 220 397 220 397 220 622 c 0,24,25
 220 687 220 687 231 755 c 0,26,27
 296 1158 296 1158 658 1510 c 1,28,-1
 1079 1510 l 1,29,30
 878 1346 878 1346 742 1172 c 0,31,32
 603 993 603 993 551 755 c 0,33,34
 538 695 538 695 538 641 c 0,35,36
 538 510 538 510 615 414 c 0,37,38
 723 280 723 280 919 280 c 24,39,40
 1019 280 1019 280 1038 371 c 2,41,-1
 1280 1510 l 1,42,-1
 1600 1510 l 1,43,-1
 1354 351 l 2,44,45
 1275 -20 1275 -20 855 -20 c 24,20,21
1334 2010 m 1,46,-1
 1595 1720 l 1,47,-1
 1420 1560 l 1,48,-1
 1158 1851 l 1,49,-1
 1334 2010 l 1,46,-1
EndSplineSet
Validated: 1
EndChar

StartChar: wgrave
Encoding: 7809 7809 172
Width: 1896
Flags: W
HStem: -20 280<597.354 839.718 1223 1425.86> 1080 20G<379.5 938 1017.75 1322 1426 1863.5>
VStem: 183 302<363.434 689.526> 1022 300<800 1100> 1657 294<475.016 850.611>
DStem2: 783.828 -20 1083.9 -20 0.207912 0.978148<291.721 1145.04> 1105 1630 930 1471 0.667692 -0.744438<1.51957 390.155>
LayerCount: 2
Fore
SplineSet
1164 -20 m 9,0,-1
 1223 260 l 17,1,2
 1379 260 1379 260 1497 344 c 0,3,4
 1618 430 1618 430 1646 565 c 0,5,6
 1657 616 1657 616 1657 664 c 0,7,8
 1657 750 1657 750 1623 828 c 0,9,10
 1572 947 1572 947 1426 1100 c 1,11,-1
 1776 1100 l 1,12,13
 1951 918 1951 918 1951 663 c 0,14,15
 1951 608 1951 608 1943 549 c 0,16,17
 1905 278 1905 278 1679 120 c 0,18,19
 1479 -20 1479 -20 1164 -20 c 9,0,-1
724 -20 m 24,20,21
 459 -20 459 -20 319 120 c 0,22,23
 183 256 183 256 183 473 c 0,24,25
 183 510 183 510 187 549 c 0,26,27
 221 883 221 883 538 1100 c 1,28,-1
 938 1100 l 1,29,30
 734 964 734 964 618 832 c 0,31,32
 514 713 514 713 490 565 c 0,33,34
 485 533 485 533 485 505 c 0,35,36
 485 406 485 406 545 344 c 0,37,38
 627 260 627 260 763 260 c 24,39,40
 843 260 843 260 868 376 c 2,41,-1
 1022 1100 l 1,42,-1
 1322 1100 l 1,43,-1
 1160 338 l 2,44,45
 1084 -20 1084 -20 724 -20 c 24,20,21
1105 1630 m 1,46,-1
 1366 1340 l 1,47,-1
 1191 1180 l 1,48,-1
 930 1471 l 1,49,-1
 1105 1630 l 1,46,-1
EndSplineSet
Validated: 1
EndChar

StartChar: Wacute
Encoding: 7810 7810 173
Width: 2238
Flags: W
HStem: -20 300<721.572 1015.57 1439 1651.92> 1490 20G<477 1079 1275.75 1600 1801 2257>
VStem: 220 318<466.093 867.335> 1280 320<1190 1510> 2031 311<675.147 1191.62>
DStem2: 954.89 -20 1275.14 -20 0.207912 0.978148<313.894 1564.16> 1287 1735 1430 1560 0.752133 0.659012<0 411.037>
LayerCount: 2
Fore
SplineSet
1378 -20 m 9,0,-1
 1439 280 l 17,1,2
 1636 280 1636 280 1800 414 c 0,3,4
 1965 548 1965 548 2009 755 c 0,5,6
 2031 858 2031 858 2031 950 c 0,7,8
 2031 1070 2031 1070 1994 1172 c 0,9,10
 1932 1346 1932 1346 1801 1510 c 1,11,-1
 2172 1510 l 1,12,13
 2342 1247 2342 1247 2342 935 c 0,14,15
 2342 847 2342 847 2329 755 c 0,16,17
 2282 434 2282 434 2025 217 c 0,18,19
 1746 -20 1746 -20 1378 -20 c 9,0,-1
855 -20 m 24,20,21
 534 -20 534 -20 355 217 c 0,22,23
 220 397 220 397 220 622 c 0,24,25
 220 687 220 687 231 755 c 0,26,27
 296 1158 296 1158 658 1510 c 1,28,-1
 1079 1510 l 1,29,30
 878 1346 878 1346 742 1172 c 0,31,32
 603 993 603 993 551 755 c 0,33,34
 538 695 538 695 538 641 c 0,35,36
 538 510 538 510 615 414 c 0,37,38
 723 280 723 280 919 280 c 24,39,40
 1019 280 1019 280 1038 371 c 2,41,-1
 1280 1510 l 1,42,-1
 1600 1510 l 1,43,-1
 1354 351 l 2,44,45
 1275 -20 1275 -20 855 -20 c 24,20,21
1599 2010 m 1,46,-1
 1745 1836 l 1,47,-1
 1430 1560 l 1,48,-1
 1287 1735 l 1,49,-1
 1599 2010 l 1,46,-1
EndSplineSet
Validated: 1
EndChar

StartChar: wacute
Encoding: 7811 7811 174
Width: 1896
Flags: W
HStem: -20 280<597.354 839.718 1223 1425.86> 1080 20G<379.5 938 1017.75 1322 1426 1863.5>
VStem: 183 302<363.434 689.526> 1022 300<800 1100> 1657 294<475.016 850.611>
DStem2: 783.828 -20 1083.9 -20 0.207912 0.978148<291.721 1145.04> 1031 1355 1174 1180 0.752133 0.659012<0 411.037>
LayerCount: 2
Fore
SplineSet
1164 -20 m 9,0,-1
 1223 260 l 17,1,2
 1379 260 1379 260 1497 344 c 0,3,4
 1618 430 1618 430 1646 565 c 0,5,6
 1657 616 1657 616 1657 664 c 0,7,8
 1657 750 1657 750 1623 828 c 0,9,10
 1572 947 1572 947 1426 1100 c 1,11,-1
 1776 1100 l 1,12,13
 1951 918 1951 918 1951 663 c 0,14,15
 1951 608 1951 608 1943 549 c 0,16,17
 1905 278 1905 278 1679 120 c 0,18,19
 1479 -20 1479 -20 1164 -20 c 9,0,-1
724 -20 m 24,20,21
 459 -20 459 -20 319 120 c 0,22,23
 183 256 183 256 183 473 c 0,24,25
 183 510 183 510 187 549 c 0,26,27
 221 883 221 883 538 1100 c 1,28,-1
 938 1100 l 1,29,30
 734 964 734 964 618 832 c 0,31,32
 514 713 514 713 490 565 c 0,33,34
 485 533 485 533 485 505 c 0,35,36
 485 406 485 406 545 344 c 0,37,38
 627 260 627 260 763 260 c 24,39,40
 843 260 843 260 868 376 c 2,41,-1
 1022 1100 l 1,42,-1
 1322 1100 l 1,43,-1
 1160 338 l 2,44,45
 1084 -20 1084 -20 724 -20 c 24,20,21
1343 1630 m 1,46,-1
 1489 1456 l 1,47,-1
 1174 1180 l 1,48,-1
 1031 1355 l 1,49,-1
 1343 1630 l 1,46,-1
EndSplineSet
Validated: 1
EndChar

StartChar: Wdieresis
Encoding: 7812 7812 175
Width: 2238
Flags: W
HStem: -20 300<721.572 1015.57 1439 1651.92> 1490 20G<477 1079 1275.75 1600 1801 2257> 1615 339<1214.79 1417.89 1621.79 1824.89>
VStem: 220 318<466.093 867.335> 1142 349<1687.25 1882.13> 1280 320<1190 1510> 1549 349<1687.25 1882.13> 2031 311<675.147 1191.62>
DStem2: 954.89 -20 1275.14 -20 0.207912 0.978148<313.894 1564.16>
LayerCount: 2
Fore
SplineSet
1378 -20 m 9,0,-1
 1439 280 l 17,1,2
 1636 280 1636 280 1800 414 c 0,3,4
 1965 548 1965 548 2009 755 c 0,5,6
 2031 858 2031 858 2031 950 c 0,7,8
 2031 1070 2031 1070 1994 1172 c 0,9,10
 1932 1346 1932 1346 1801 1510 c 1,11,-1
 2172 1510 l 1,12,13
 2342 1247 2342 1247 2342 935 c 0,14,15
 2342 847 2342 847 2329 755 c 0,16,17
 2282 434 2282 434 2025 217 c 0,18,19
 1746 -20 1746 -20 1378 -20 c 9,0,-1
855 -20 m 24,20,21
 534 -20 534 -20 355 217 c 0,22,23
 220 397 220 397 220 622 c 0,24,25
 220 687 220 687 231 755 c 0,26,27
 296 1158 296 1158 658 1510 c 1,28,-1
 1079 1510 l 1,29,30
 878 1346 878 1346 742 1172 c 0,31,32
 603 993 603 993 551 755 c 0,33,34
 538 695 538 695 538 641 c 0,35,36
 538 510 538 510 615 414 c 0,37,38
 723 280 723 280 919 280 c 24,39,40
 1019 280 1019 280 1038 371 c 2,41,-1
 1280 1510 l 1,42,-1
 1600 1510 l 1,43,-1
 1354 351 l 2,44,45
 1275 -20 1275 -20 855 -20 c 24,20,21
1751 1954 m 0,46,47
 1828 1954 1828 1954 1867 1902 c 0,48,49
 1897 1862 1897 1862 1898 1810 c 0,50,51
 1898 1798 1898 1798 1896 1784 c 0,52,53
 1886 1709 1886 1709 1828.5 1662 c 128,-1,54
 1771 1615 1771 1615 1695.5 1615 c 128,-1,55
 1620 1615 1620 1615 1580 1669 c 0,56,57
 1550 1709 1550 1709 1549 1760 c 0,58,59
 1549 1772 1549 1772 1550 1785 c 0,60,61
 1560 1858 1560 1858 1618 1906 c 128,-1,62
 1676 1954 1676 1954 1751 1954 c 0,46,47
1344 1954 m 0,63,64
 1421 1954 1421 1954 1460 1902 c 0,65,66
 1490 1862 1490 1862 1491 1810 c 0,67,68
 1491 1798 1491 1798 1489 1784 c 0,69,70
 1479 1709 1479 1709 1421.5 1662 c 128,-1,71
 1364 1615 1364 1615 1288.5 1615 c 128,-1,72
 1213 1615 1213 1615 1173 1669 c 0,73,74
 1143 1709 1143 1709 1142 1760 c 0,75,76
 1142 1772 1142 1772 1143 1785 c 0,77,78
 1153 1858 1153 1858 1211 1906 c 128,-1,79
 1269 1954 1269 1954 1344 1954 c 0,63,64
EndSplineSet
Validated: 1
EndChar

StartChar: wdieresis
Encoding: 7813 7813 176
Width: 1896
Flags: W
HStem: -20 280<597.354 839.718 1223 1425.86> 1080 20G<379.5 938 1017.75 1322 1426 1863.5> 1224 339<894.795 1097.89 1301.79 1504.89>
VStem: 183 302<363.434 689.526> 822 349<1296.25 1491.13> 1022 300<800 1100> 1229 349<1296.25 1491.13> 1657 294<475.016 850.611>
DStem2: 783.828 -20 1083.9 -20 0.207912 0.978148<291.721 1145.04>
LayerCount: 2
Fore
SplineSet
1164 -20 m 9,0,-1
 1223 260 l 17,1,2
 1379 260 1379 260 1497 344 c 0,3,4
 1618 430 1618 430 1646 565 c 0,5,6
 1657 616 1657 616 1657 664 c 0,7,8
 1657 750 1657 750 1623 828 c 0,9,10
 1572 947 1572 947 1426 1100 c 1,11,-1
 1776 1100 l 1,12,13
 1951 918 1951 918 1951 663 c 0,14,15
 1951 608 1951 608 1943 549 c 0,16,17
 1905 278 1905 278 1679 120 c 0,18,19
 1479 -20 1479 -20 1164 -20 c 9,0,-1
724 -20 m 24,20,21
 459 -20 459 -20 319 120 c 0,22,23
 183 256 183 256 183 473 c 0,24,25
 183 510 183 510 187 549 c 0,26,27
 221 883 221 883 538 1100 c 1,28,-1
 938 1100 l 1,29,30
 734 964 734 964 618 832 c 0,31,32
 514 713 514 713 490 565 c 0,33,34
 485 533 485 533 485 505 c 0,35,36
 485 406 485 406 545 344 c 0,37,38
 627 260 627 260 763 260 c 24,39,40
 843 260 843 260 868 376 c 2,41,-1
 1022 1100 l 1,42,-1
 1322 1100 l 1,43,-1
 1160 338 l 2,44,45
 1084 -20 1084 -20 724 -20 c 24,20,21
1431 1563 m 0,46,47
 1508 1563 1508 1563 1547 1511 c 0,48,49
 1577 1471 1577 1471 1578 1419 c 0,50,51
 1578 1407 1578 1407 1576 1393 c 0,52,53
 1566 1318 1566 1318 1508.5 1271 c 128,-1,54
 1451 1224 1451 1224 1375.5 1224 c 128,-1,55
 1300 1224 1300 1224 1260 1278 c 0,56,57
 1230 1318 1230 1318 1229 1369 c 0,58,59
 1229 1381 1229 1381 1230 1394 c 0,60,61
 1240 1467 1240 1467 1298 1515 c 128,-1,62
 1356 1563 1356 1563 1431 1563 c 0,46,47
1024 1563 m 0,63,64
 1101 1563 1101 1563 1140 1511 c 0,65,66
 1170 1471 1170 1471 1171 1419 c 0,67,68
 1171 1407 1171 1407 1169 1393 c 0,69,70
 1159 1318 1159 1318 1101.5 1271 c 128,-1,71
 1044 1224 1044 1224 968.5 1224 c 128,-1,72
 893 1224 893 1224 853 1278 c 0,73,74
 823 1318 823 1318 822 1369 c 0,75,76
 822 1381 822 1381 823 1394 c 0,77,78
 833 1467 833 1467 891 1515 c 128,-1,79
 949 1563 949 1563 1024 1563 c 0,63,64
EndSplineSet
Validated: 1
EndChar

StartChar: Ygrave
Encoding: 7922 7922 177
Width: 1372
Flags: W
HStem: 0 21G<529 853.246> 1490 20G<375.5 686 1255 1623>
VStem: 360 299<1050.25 1505.86> 529 320<0 320> 647 325<369.188 690.739> 1303 320<1352.21 1510>
DStem2: 529 0 849 0 0.207912 0.978148<66.5317 584.462> 936 2010 760 1851 0.669106 -0.743167<0.400953 390.155>
LayerCount: 2
Fore
SplineSet
1303 1510 m 1,0,-1
 1623 1510 l 1,1,2
 1519 1022 1519 1022 1165 871 c 1,3,-1
 862 871 l 1,4,5
 1207 1058 1207 1058 1303 1510 c 1,0,-1
849 0 m 1,6,7
 529 0 l 1,8,-1
 643 537 l 2,9,10
 647 555 647 555 647 573 c 0,11,12
 647 657 647 657 561 735 c 0,13,14
 360 918 360 918 360 1237 c 0,15,16
 360 1363 360 1363 391 1510 c 1,17,-1
 686 1510 l 1,18,19
 659 1392 659 1392 659 1289 c 0,20,21
 659 999 659 999 874 823 c 0,22,23
 972 742 972 742 972 617 c 0,24,25
 972 579 972 579 963 537 c 2,26,-1
 849 0 l 1,6,7
936 2010 m 1,27,-1
 1197 1720 l 1,28,-1
 1022 1560 l 1,29,-1
 760 1851 l 1,30,-1
 936 2010 l 1,27,-1
EndSplineSet
Validated: 1
EndChar

StartChar: ygrave
Encoding: 7923 7923 178
Width: 1328
VWidth: 1638
Flags: W
HStem: -430 280<486 709.077> -20 21G<591.5 728.214> 1080 20G<379 938 1087.74 1392>
VStem: 183 302<362.802 691.178> 1092 300<800 1100>
DStem2: 848 1630 673 1471 0.667692 -0.744438<1.51957 390.155> 766.529 -430 1067.02 -430 0.207912 0.978148<398.229 1564.24>
LayerCount: 2
Fore
SplineSet
538 1100 m 1,0,-1
 938 1100 l 1,1,2
 734 964 734 964 618 832 c 0,3,4
 514 713 514 713 490 565 c 0,5,6
 485 533 485 533 485 505 c 0,7,8
 485 406 485 406 545 344 c 0,9,10
 627 260 627 260 783 260 c 1,11,-1
 724 -20 l 1,12,13
 459 -20 459 -20 319 120 c 0,14,15
 183 256 183 256 183 473 c 0,16,17
 183 510 183 510 187 549 c 0,18,19
 220 882 220 882 538 1100 c 1,0,-1
427 -430 m 9,20,-1
 486 -150 l 1,21,22
 660 -150 660 -150 758 -79.5 c 128,-1,23
 856 -9 856 -9 893 165 c 2,24,-1
 1092 1100 l 1,25,-1
 1392 1100 l 1,26,-1
 1192 158 l 2,27,28
 1129 -137 1129 -137 920 -284 c 0,29,30
 714 -430 714 -430 427 -430 c 9,20,-1
848 1630 m 1,31,-1
 1109 1340 l 1,32,-1
 934 1180 l 1,33,-1
 673 1471 l 1,34,-1
 848 1630 l 1,31,-1
EndSplineSet
Validated: 1
EndChar

StartChar: Eth
Encoding: 208 208 179
Width: 1678
Flags: W
HStem: -20 300<670 1097.22> 0 21G<170 494.251> 621 222<199 302 669 858> 1230 300<758.445 1273.81>
VStem: 170 320<0 320> 1456 320<640.043 1052.32>
DStem2: 165.749 -20 485.749 -20 0.207912 0.978148<86.9786 655.321 948.773 1337.24>
LayerCount: 2
Fore
SplineSet
170 0 m 1,0,-1
 302 621 l 1,1,-1
 152 621 l 1,2,-1
 199 843 l 1,3,-1
 349 843 l 1,4,-1
 416 1159 l 2,5,6
 495 1530 495 1530 915 1530 c 2,7,-1
 1102 1530 l 2,8,9
 1446 1530 1446 1530 1635 1287 c 0,10,11
 1776 1106 1776 1106 1776 869 c 0,12,13
 1776 812 1776 812 1768 753 c 0,14,15
 1722 414 1722 414 1458 196 c 0,16,17
 1195 -20 1195 -20 850 -20 c 2,18,-1
 606 -20 l 1,19,-1
 670 280 l 1,20,-1
 877 280 l 2,21,22
 1088 280 1088 280 1245 410 c 0,23,24
 1411 548 1411 548 1447 755 c 0,25,26
 1456 807 1456 807 1456 864 c 0,27,28
 1456 1007 1456 1007 1383 1098 c 0,29,30
 1278 1230 1278 1230 1077 1230 c 2,31,-1
 851 1230 l 2,32,33
 751 1230 751 1230 732 1139 c 2,34,-1
 669 843 l 1,35,-1
 905 843 l 1,36,-1
 858 621 l 1,37,-1
 622 621 l 1,38,-1
 490 0 l 1,39,-1
 170 0 l 1,0,-1
EndSplineSet
Validated: 1
EndChar

StartChar: Hbar
Encoding: 294 294 180
Width: 1631
Flags: W
HStem: 0 21G<170 494.263 1141 1465.25> 599 302<625.038 1148> 1180 222<368 421 788 1392 1759 1812> 1490 20G<486.741 811 1457.74 1782>
VStem: 170 320<0 320> 1141 320<0 320>
DStem2: 170 0 490 0 0.207912 0.978148<66.5317 669.679 1048.95 1206.4 1499.85 1543.74> 1141 0 1461 0 0.207912 0.978148<66.5317 1206.4 1499.85 1543.74>
LayerCount: 2
Fore
SplineSet
170 0 m 1,0,-1
 281 524 l 2,1,2
 361 901 361 901 782 901 c 2,3,-1
 1213 901 l 1,4,-1
 1148 599 l 1,5,-1
 717 599 l 2,6,7
 617 599 617 599 597 502 c 2,8,-1
 490 0 l 1,9,-1
 170 0 l 1,0,-1
1461 0 m 1,10,-1
 1141 0 l 1,11,-1
 1392 1180 l 1,12,-1
 741 1180 l 1,13,-1
 694 961 l 1,14,-1
 374 961 l 1,15,-1
 421 1180 l 1,16,-1
 321 1180 l 1,17,-1
 368 1402 l 1,18,-1
 468 1402 l 1,19,-1
 491 1510 l 1,20,-1
 811 1510 l 1,21,-1
 788 1402 l 1,22,-1
 1439 1402 l 1,23,-1
 1462 1510 l 1,24,-1
 1782 1510 l 1,25,-1
 1759 1402 l 1,26,-1
 1859 1402 l 1,27,-1
 1812 1180 l 1,28,-1
 1712 1180 l 1,29,-1
 1461 0 l 1,10,-1
EndSplineSet
Validated: 1
EndChar

StartChar: IJ
Encoding: 306 306 181
Width: 1749
Flags: W
HStem: -20 300<912.372 1226.75> 0 21G<170 494.252> 1210 300<1140 1516>
VStem: 170 320<0 320> 491 320<1190 1510>
DStem2: 165.749 -20 485.749 -20 0.207912 0.978148<86.9786 1564.19> 1254.56 -20 1574.47 -20 0.207912 0.978148<395.611 1257.48>
LayerCount: 2
Fore
SplineSet
998 -20 m 0,0,1
 736 -20 736 -20 567 193 c 1,2,-1
 818 415 l 1,3,4
 921 280 921 280 1055 280 c 0,5,6
 1191 280 1191 280 1279 361 c 0,7,8
 1349 425 1349 425 1380 570 c 2,9,-1
 1516 1210 l 1,10,-1
 1076 1210 l 1,11,-1
 1140 1510 l 1,12,-1
 1900 1510 l 1,13,-1
 1685 500 l 2,14,15
 1638 279 1638 279 1503 148 c 0,16,17
 1330 -20 1330 -20 998 -20 c 0,0,1
170 0 m 1,18,-1
 491 1510 l 1,19,-1
 811 1510 l 1,20,-1
 490 0 l 1,21,-1
 170 0 l 1,18,-1
EndSplineSet
Validated: 1
EndChar

StartChar: ae
Encoding: 230 230 182
Width: 1900
Flags: W
HStem: -20 280<586 709 1323.73 1653.78> 0 21G<833 1137.29> 430 240<1396 1711> 840 280<687.081 985.144 1425.38 1806.15>
VStem: 180 307<349.879 647.906> 992 252<482 766>
LayerCount: 2
Fore
SplineSet
1396 670 m 9,0,-1
 1762 670 l 1,1,-1
 1711 430 l 1,2,-1
 1345 430 l 17,3,4
 1396 670 l 9,0,-1
1133 0 m 1,5,-1
 833 0 l 1,6,-1
 989 736 l 2,7,8
 992 752 992 752 992 766 c 0,9,10
 992 840 992 840 892 840 c 0,11,12
 732 840 732 840 627 759 c 128,-1,13
 522 678 522 678 495 549 c 0,14,15
 487 512 487 512 487 480 c 0,16,17
 487 396 487 396 539 340 c 0,18,19
 614 260 614 260 768 260 c 1,20,-1
 709 -20 l 1,21,22
 448 -20 448 -20 307 142 c 0,23,24
 180 287 180 287 180 463 c 0,25,26
 180 518 180 518 192 575 c 0,27,28
 248 837 248 837 471 989 c 0,29,30
 664 1120 664 1120 951 1120 c 0,31,32
 1166 1120 1166 1120 1248 1009 c 1,33,34
 1422 1120 1422 1120 1632 1120 c 0,35,36
 1869 1120 1869 1120 2017 954 c 1,37,-1
 1794 761 l 1,38,39
 1734 840 1734 840 1603 840 c 0,40,41
 1475 840 1475 840 1379 764 c 0,42,43
 1274 680 1274 680 1250 550 c 0,44,45
 1244 514 1244 514 1244 482 c 0,46,47
 1244 397 1244 397 1288 339 c 0,48,49
 1348 260 1348 260 1479 260 c 0,50,51
 1603 260 1603 260 1703 336 c 1,52,-1
 1887 128 l 1,53,54
 1692 -20 1692 -20 1450 -20 c 0,55,56
 1274 -20 1274 -20 1148 70 c 1,57,-1
 1133 0 l 1,5,-1
EndSplineSet
Validated: 1
EndChar

StartChar: dcroat
Encoding: 273 273 183
Width: 1295
Flags: W
HStem: -20 280<575.937 876.33> 840 280<687.5 892> 1177 222<949 1083 1430 1468> 1490 20G<1149.68 1454>
VStem: 180 307<351.279 647.479>
DStem2: 828.378 -20 1129.05 -20 0.207912 0.978148<303.756 1223.78 1513.08 1564.27>
LayerCount: 2
Fore
SplineSet
709 -20 m 0,0,1
 448 -20 448 -20 307 142 c 0,2,3
 180 288 180 288 180 463 c 0,4,5
 180 520 180 520 192 575 c 0,6,7
 252 841 252 841 471 989 c 0,8,9
 664 1120 664 1120 951 1120 c 1,10,-1
 892 840 l 1,11,12
 734 840 734 840 627 759 c 0,13,14
 524 682 524 682 495 549 c 0,15,16
 487 512 487 512 487 480 c 0,17,18
 487 403 487 403 538 340 c 0,19,20
 603 260 603 260 709 260 c 0,21,22
 888 260 888 260 910 364 c 2,23,-1
 1083 1177 l 1,24,-1
 902 1177 l 1,25,-1
 949 1399 l 1,26,-1
 1130 1399 l 1,27,-1
 1154 1510 l 1,28,-1
 1454 1510 l 1,29,-1
 1430 1399 l 1,30,-1
 1515 1399 l 1,31,-1
 1468 1177 l 1,32,-1
 1383 1177 l 1,33,-1
 1206 342 l 2,34,35
 1129 -20 1129 -20 709 -20 c 0,0,1
EndSplineSet
Validated: 1
EndChar

StartChar: hbar
Encoding: 295 295 184
Width: 1318
Flags: W
HStem: 0 21G<170 474.248 614 1173> 1100 20G<823.786 960.5> 1177 222<367 420 767 893> 1490 20G<486.676 791>
VStem: 170 300<0 300> 1067 302<408.822 737.198>
DStem2: 170 0 470 0 0.207912 0.978148<62.3735 1203.26 1492.55 1543.74>
LayerCount: 2
Fore
SplineSet
1014 0 m 1,0,-1
 614 0 l 1,1,2
 818 136 818 136 934 268 c 0,3,4
 1038 387 1038 387 1062 535 c 0,5,6
 1067 567 1067 567 1067 595 c 0,7,8
 1067 694 1067 694 1007 756 c 0,9,10
 925 840 925 840 769 840 c 1,11,-1
 828 1120 l 1,12,13
 1093 1120 1093 1120 1233 980 c 0,14,15
 1369 844 1369 844 1369 627 c 0,16,17
 1369 590 1369 590 1365 551 c 0,18,19
 1332 218 1332 218 1014 0 c 1,0,-1
170 0 m 1,20,-1
 420 1177 l 1,21,-1
 320 1177 l 1,22,-1
 367 1399 l 1,23,-1
 467 1399 l 1,24,-1
 491 1510 l 1,25,-1
 791 1510 l 1,26,-1
 767 1399 l 1,27,-1
 940 1399 l 1,28,-1
 893 1177 l 1,29,-1
 720 1177 l 1,30,-1
 470 0 l 1,31,-1
 170 0 l 1,20,-1
EndSplineSet
Validated: 1
EndChar

StartChar: ij
Encoding: 307 307 185
Width: 1259
Flags: W
HStem: -430 21G<523.192 636> 0 21G<170 474.255> 1080 20G<399.745 704 1019.74 1324> 1182 368<505.541 716.4 1125.54 1336.4>
VStem: 170 300<0 300> 404 300<800 1100> 420 380<1264.06 1466.94> 1024 300<800 1100> 1040 380<1264.06 1466.94>
DStem2: 78.6007 -430 378.601 -430 0.207912 0.978148<501.98 1564.22> 698.403 -430 998.403 -430 0.207912 0.978148<399.055 1564.26>
LayerCount: 2
Fore
SplineSet
1260 1550 m 0,0,1
 1342 1550 1342 1550 1386 1493 c 0,2,3
 1419 1450 1419 1450 1420 1393 c 0,4,5
 1420 1380 1420 1380 1418 1365 c 0,6,7
 1407 1284 1407 1284 1344.5 1233 c 128,-1,8
 1282 1182 1282 1182 1200 1182 c 128,-1,9
 1118 1182 1118 1182 1074 1240 c 0,10,11
 1041 1283 1041 1283 1040 1339 c 0,12,13
 1040 1352 1040 1352 1042 1366 c 0,14,15
 1053 1447 1053 1447 1115 1498 c 0,16,17
 1179 1550 1179 1550 1260 1550 c 0,0,1
580 -139 m 1,18,19
 773 -79 773 -79 827 175 c 2,20,-1
 1024 1100 l 1,21,-1
 1324 1100 l 1,22,-1
 1127 175 l 2,23,24
 1061 -134 1061 -134 907 -262 c 128,-1,25
 753 -390 753 -390 519 -430 c 1,26,-1
 580 -139 l 1,18,19
640 1550 m 0,27,28
 722 1550 722 1550 766 1493 c 0,29,30
 799 1450 799 1450 800 1393 c 0,31,32
 800 1380 800 1380 798 1365 c 0,33,34
 787 1284 787 1284 724.5 1233 c 128,-1,35
 662 1182 662 1182 580 1182 c 128,-1,36
 498 1182 498 1182 454 1240 c 0,37,38
 421 1283 421 1283 420 1339 c 0,39,40
 420 1352 420 1352 422 1366 c 0,41,42
 433 1447 433 1447 495 1498 c 0,43,44
 559 1550 559 1550 640 1550 c 0,27,28
170 0 m 1,45,-1
 404 1100 l 1,46,-1
 704 1100 l 1,47,-1
 470 0 l 1,48,-1
 170 0 l 1,45,-1
EndSplineSet
Validated: 1
EndChar

StartChar: AE
Encoding: 198 198 186
Width: 2615
Flags: W
HStem: -20 300<1829.52 2259.07> 458 302<637.637 1159> 599 302<1814 2410> 1230 300<2012.82 2434.57> 1490 20G<1072.68 1382.95>
VStem: 5 332<0 332> 593 332<820 1152>
DStem2: 5 0 337 0 0.58246 0.81286<193.377 773.221 1202.41 1202.41>
LayerCount: 2
Fore
SplineSet
5 0 m 1,0,-1
 362 498 l 2,1,2
 550 760 550 760 840 760 c 2,3,-1
 1224 760 l 1,4,-1
 1159 458 l 1,5,-1
 788 458 l 2,6,7
 665 458 665 458 617 391 c 2,8,-1
 337 0 l 1,9,-1
 5 0 l 1,0,-1
1814 901 m 1,10,-1
 2475 901 l 1,11,-1
 2410 599 l 1,12,-1
 1749 599 l 1,13,-1
 1814 901 l 1,10,-1
1484 0 m 1,14,-1
 1155 1170 l 1,15,-1
 925 820 l 1,16,-1
 593 820 l 1,17,-1
 1087 1510 l 1,18,-1
 1377 1510 l 1,19,-1
 1488 1137 l 1,20,21
 1556 1234 1556 1234 1653 1314 c 0,22,23
 1916 1530 1916 1530 2261 1530 c 0,24,25
 2605 1530 2605 1530 2794 1287 c 1,26,-1
 2542 1098 l 1,27,28
 2437 1230 2437 1230 2236 1230 c 0,29,30
 2030 1230 2030 1230 1866 1100 c 0,31,32
 1700 967 1700 967 1664 755 c 0,33,34
 1655 702 1655 702 1655 645 c 0,35,36
 1655 512 1655 512 1728 412 c 0,37,38
 1824 280 1824 280 2036 280 c 0,39,40
 2247 280 2247 280 2404 410 c 1,41,-1
 2617 196 l 1,42,43
 2354 -20 2354 -20 2009 -20 c 0,44,45
 1910 -20 1910 -20 1824 -0 c 1,46,-1
 1484 0 l 1,14,-1
EndSplineSet
Validated: 1
EndChar

StartChar: kgreenlandic
Encoding: 312 312 187
Width: 1366
Flags: W
HStem: 0 21G<170 474.255 923.5 1266> 1080 20G<399.745 704 1107.5 1448>
VStem: 170 300<0 300> 404 300<800 1100> 1148 300<800 1100>
DStem2: 170 0 470 0 0.207912 0.978148<62.3735 1124.61>
LayerCount: 2
Fore
SplineSet
1266 0 m 1,0,1
 951 0 l 1,2,3
 896 219 896 219 651 285 c 1,4,-1
 719 605 l 1,5,6
 1067 722 1067 722 1148 1100 c 1,7,-1
 1448 1100 l 1,8,9
 1337 575 1337 575 976 440 c 1,10,11
 1199 352 1199 352 1266 0 c 1,0,1
170 0 m 1,12,-1
 404 1100 l 1,13,-1
 704 1100 l 1,14,-1
 470 0 l 1,15,-1
 170 0 l 1,12,-1
EndSplineSet
Validated: 1
EndChar

StartChar: Lslash
Encoding: 321 321 188
Width: 1078
Flags: W
HStem: 0 300<554 1068> 1080 20G<926.773 1252> 1490 20G<486.748 811>
VStem: 491 320<1190 1510>
DStem2: 170 0 490.233 0 0.207912 0.978148<373.282 1543.74>
LayerCount: 2
Fore
SplineSet
170 0 m 1,0,-1
 491 1510 l 1,1,-1
 811 1510 l 1,2,-1
 554 300 l 1,3,-1
 1132 300 l 1,4,-1
 1068 0 l 1,5,-1
 170 0 l 1,0,-1
1252 1100 m 1,6,-1
 676 500 l 1,7,-1
 760 897 l 1,8,-1
 945 1100 l 1,9,-1
 1252 1100 l 1,6,-1
EndSplineSet
Validated: 1
EndChar

StartChar: lslash
Encoding: 322 322 189
Width: 1003
Flags: W
HStem: 0 21G<170 474.252> 1080 20G<906.773 1232> 1490 20G<486.748 791>
VStem: 170 300<0 300> 491 300<1210 1510>
DStem2: 170 0 470 0 0.207912 0.978148<62.3735 1543.74>
LayerCount: 2
Fore
SplineSet
1232 1100 m 1,0,-1
 656 500 l 1,1,-1
 740 897 l 1,2,-1
 925 1100 l 1,3,-1
 1232 1100 l 1,0,-1
170 0 m 1,4,-1
 491 1510 l 1,5,-1
 791 1510 l 1,6,-1
 470 0 l 1,7,-1
 170 0 l 1,4,-1
EndSplineSet
Validated: 1
EndChar

StartChar: longs
Encoding: 383 383 190
Width: 1020
Flags: W
HStem: 0 21G<380 684.249> 820 280<284 536.988> 1250 280<945.23 1276>
VStem: 380 300<0 300> 538 311<591.328 971> 587 300<1160 1460>
DStem2: 380 0 680 0 0.207912 0.978148<62.3735 780.519>
LayerCount: 2
Fore
SplineSet
1335 1530 m 1,0,-1
 1276 1250 l 1,1,2
 906 1250 906 1250 887 1160 c 1,3,-1
 587 1160 l 1,4,5
 667 1530 667 1530 1335 1530 c 1,0,-1
380 0 m 1,6,-1
 532 717 l 2,7,8
 538 745 538 745 538 765 c 0,9,10
 538 820 538 820 494 820 c 2,11,-1
 224 820 l 1,12,-1
 284 1100 l 1,13,-1
 494 1100 l 2,14,15
 849 1100 849 1100 849 842 c 0,16,17
 849 795 849 795 837 739 c 2,18,-1
 680 0 l 1,19,-1
 380 0 l 1,6,-1
EndSplineSet
Validated: 1
EndChar

StartChar: Eng
Encoding: 330 330 191
Width: 1676
Flags: W
HStem: -430 280<974 1114.27> 0 21G<170 494.249> 1230 300<758.445 1162.27>
VStem: 170 320<0 320> 1353 323<596.055 1040.73>
DStem2: 78.6007 -430 398.601 -430 0.207912 0.978148<506.138 1756.4> 1094.69 -430 1414.9 -430 0.207912 0.978148<323.358 1305.76>
LayerCount: 2
Fore
SplineSet
170 0 m 1,0,-1
 416 1159 l 2,1,2
 495 1530 495 1530 915 1530 c 2,3,-1
 1041 1530 l 2,4,5
 1352 1530 1352 1530 1540 1275 c 0,6,7
 1676 1091 1676 1091 1676 875 c 0,8,9
 1676 799 1676 799 1659 719 c 2,10,-1
 1508 8 l 2,11,12
 1415 -430 1415 -430 915 -430 c 1,13,-1
 974 -150 l 1,14,15
 1154 -150 1154 -150 1188 9 c 2,16,-1
 1338 717 l 2,17,18
 1353 789 1353 789 1353 852 c 0,19,20
 1353 990 1353 990 1280 1087 c 0,21,22
 1171 1230 1171 1230 977 1230 c 2,23,-1
 851 1230 l 2,24,25
 751 1230 751 1230 732 1139 c 2,26,-1
 490 0 l 1,27,-1
 170 0 l 1,0,-1
EndSplineSet
Validated: 1
EndChar

StartChar: eng
Encoding: 331 331 192
Width: 1300
Flags: W
HStem: -430 280<668 812.328> 0 21G<170 474.239> 840 280<656.684 925.365>
VStem: 170 300<0 300> 1006 300<387 765.487>
DStem2: 78.6007 -430 378.601 -430 0.207912 0.978148<501.98 1353.2> 788.9 -430 1088.11 -430 0.207912 0.978148<318.614 1084.69>
LayerCount: 2
Fore
SplineSet
170 0 m 1,0,-1
 331 758 l 2,1,2
 408 1120 408 1120 828 1120 c 0,3,4
 1040 1120 1040 1120 1194 961 c 0,5,6
 1306 845 1306 845 1306 664 c 0,7,8
 1306 593 1306 593 1288 509 c 2,9,-1
 1181 7 l 2,10,11
 1088 -430 1088 -430 609 -430 c 1,12,-1
 668 -150 l 1,13,14
 849 -150 849 -150 882 8 c 2,15,-1
 997 552 l 2,16,17
 1006 595 1006 595 1006 634 c 0,18,19
 1006 720 1006 720 957 770 c 0,20,21
 887 840 887 840 768 840 c 0,22,23
 648 840 648 840 626 736 c 2,24,-1
 470 0 l 1,25,-1
 170 0 l 1,0,-1
EndSplineSet
Validated: 1
EndChar

StartChar: oe
Encoding: 339 339 193
Width: 1751
Flags: W
HStem: -20 280<558.678 831.571 1173.82 1504.78> 430 240<1247 1562> 840 280<663.502 908.163 1278.77 1657.15>
VStem: 184 296<339.012 654.433> 799 296<339.286 659.502>
CounterMasks: 1 e0
LayerCount: 2
Fore
SplineSet
1247 670 m 9,0,-1
 1613 670 l 1,1,-1
 1562 430 l 1,2,-1
 1196 430 l 17,3,4
 1247 670 l 9,0,-1
686 -20 m 0,5,6
 447 -20 447 -20 301 146 c 0,7,8
 184 279 184 279 184 477 c 0,9,10
 184 515 184 515 188 555 c 0,11,12
 217 809 217 809 431 972 c 0,13,14
 626 1120 626 1120 868 1120 c 0,15,16
 1032 1120 1032 1120 1153 1040 c 1,17,18
 1305 1120 1305 1120 1483 1120 c 0,19,20
 1720 1120 1720 1120 1868 954 c 1,21,-1
 1645 761 l 1,22,23
 1585 840 1585 840 1454 840 c 0,24,25
 1326 840 1326 840 1230 764 c 0,26,27
 1122 678 1122 678 1101 550 c 0,28,29
 1095 513 1095 513 1095 482 c 0,30,31
 1095 397 1095 397 1139 339 c 0,32,33
 1199 260 1199 260 1330 260 c 0,34,35
 1454 260 1454 260 1554 336 c 1,36,-1
 1738 128 l 1,37,38
 1543 -20 1543 -20 1301 -20 c 0,39,40
 1136 -20 1136 -20 1015 59 c 1,41,42
 863 -20 863 -20 686 -20 c 0,5,6
909 833 m 1,43,44
 877 840 877 840 839 840 c 0,45,46
 711 840 711 840 615 764 c 0,47,48
 510 680 510 680 486 550 c 0,49,50
 480 514 480 514 480 482 c 0,51,52
 480 397 480 397 524 339 c 0,53,54
 584 260 584 260 715 260 c 0,55,56
 778 260 778 260 834 279 c 1,57,58
 799 368 799 368 799 477 c 0,59,60
 799 515 799 515 803 555 c 0,61,62
 821 711 821 711 909 833 c 1,43,44
EndSplineSet
Validated: 1
EndChar

StartChar: OE
Encoding: 338 338 194
Width: 2367
Flags: W
HStem: -20 300<721.416 1149.72 1584 2011.07> 599 302<1566 2162> 1230 300<900.816 1285.75 1763.82 2186.57>
VStem: 223 320<457.68 879.785> 1087 320<457.565 880.455>
LayerCount: 2
Fore
SplineSet
1566 901 m 9,0,-1
 2227 901 l 1,1,-1
 2162 599 l 1,2,-1
 1501 599 l 17,3,4
 1566 901 l 9,0,-1
897 -20 m 0,5,6
 553 -20 553 -20 364 223 c 0,7,8
 223 404 223 404 223 641 c 0,9,10
 223 698 223 698 231 757 c 0,11,12
 277 1096 277 1096 541 1314 c 0,13,14
 804 1530 804 1530 1149 1530 c 0,15,16
 1387 1530 1387 1530 1551 1414 c 1,17,18
 1760 1530 1760 1530 2013 1530 c 0,19,20
 2357 1530 2357 1530 2546 1287 c 1,21,-1
 2294 1098 l 1,22,23
 2189 1230 2189 1230 1988 1230 c 0,24,25
 1782 1230 1782 1230 1618 1100 c 0,26,27
 1452 967 1452 967 1416 755 c 0,28,29
 1407 702 1407 702 1407 645 c 0,30,31
 1407 512 1407 512 1480 412 c 0,32,33
 1576 280 1576 280 1788 280 c 0,34,35
 1999 280 1999 280 2156 410 c 1,36,-1
 2369 196 l 1,37,38
 2106 -20 2106 -20 1761 -20 c 0,39,40
 1523 -20 1523 -20 1359 96 c 1,41,42
 1150 -20 1150 -20 897 -20 c 0,5,6
1290 1201 m 1,43,44
 1217 1230 1217 1230 1124 1230 c 0,45,46
 918 1230 918 1230 754 1100 c 0,47,48
 588 967 588 967 552 755 c 0,49,50
 543 702 543 702 543 645 c 0,51,52
 543 512 543 512 616 412 c 0,53,54
 712 280 712 280 924 280 c 0,55,56
 1052 280 1052 280 1160 328 c 1,57,58
 1087 470 1087 470 1087 641 c 0,59,60
 1087 698 1087 698 1095 757 c 0,61,62
 1130 1014 1130 1014 1290 1201 c 1,43,44
EndSplineSet
Validated: 1
EndChar

StartChar: eth
Encoding: 240 240 195
Width: 1332
Flags: W
HStem: -20 280<579.754 882.215> 840 280<670.158 840>
VStem: 184 296<356.775 654.801> 1095 296<487.068 851.306>
DStem2: 597 1316 703 1147 0.809719 0.586818<0 154.288 439.331 644.75> 1070 1412 839 1245 0.481807 -0.876277<35.0409 643.491>
LayerCount: 2
Fore
SplineSet
688 -20 m 0,0,1
 433 -20 433 -20 297 159 c 0,2,3
 184 307 184 307 184 492 c 0,4,5
 184 520 184 520 187 550 c 0,6,7
 210 809 210 809 441 981 c 0,8,9
 627 1120 627 1120 899 1120 c 1,10,-1
 840 840 l 1,11,12
 722 840 722 840 613 762 c 0,13,14
 519 694 519 694 487 550 c 0,15,16
 480 518 480 518 480 489 c 0,17,18
 480 409 480 409 533 345 c 0,19,20
 605 260 605 260 726 260 c 0,21,22
 857 260 857 260 967 369 c 0,23,24
 1060 462 1060 462 1088 592 c 0,25,26
 1095 626 1095 626 1095 662 c 0,27,28
 1095 776 1095 776 1023 908 c 2,29,-1
 839 1245 l 1,30,-1
 703 1147 l 1,31,-1
 597 1316 l 1,32,-1
 742 1421 l 1,33,-1
 692 1510 l 1,34,-1
 864 1510 l 1,35,-1
 1131 1703 l 1,36,-1
 1236 1533 l 1,37,-1
 1070 1412 l 1,38,-1
 1274 1064 l 2,39,40
 1391 864 1391 864 1391 664 c 0,41,42
 1391 627 1391 627 1387 589 c 0,43,44
 1358 313 1358 313 1133 131 c 0,45,46
 947 -20 947 -20 688 -20 c 0,0,1
EndSplineSet
Validated: 1
EndChar

StartChar: Thorn
Encoding: 222 222 196
Width: 1384
Flags: W
HStem: 0 21G<170 494.243> 154 303<707 947.489> 1052 300<774.048 1029.79> 1490 20G<486.748 811>
VStem: 170 320<0 320> 1155 324<643.285 940.259>
DStem2: 170 0 490 0 0.207912 0.978148<66.5317 1142.47 1427.29 1543.74>
LayerCount: 2
Fore
SplineSet
170 0 m 1,0,-1
 491 1510 l 1,1,-1
 811 1510 l 1,2,-1
 773 1331 l 1,3,4
 822 1352 822 1352 877 1352 c 0,5,6
 1162 1352 1162 1352 1324 1192 c 0,7,8
 1479 1039 1479 1039 1479 812 c 0,9,10
 1479 792 1479 792 1478 771 c 0,11,12
 1463 501 1463 501 1247 335 c 0,13,14
 1011 154 1011 154 643 154 c 1,15,-1
 707 457 l 1,16,17
 907 457 907 457 1016 542 c 0,18,19
 1124 625 1124 625 1147 733 c 0,20,21
 1155 770 1155 770 1155 803 c 0,22,23
 1155 903 1155 903 1089 967 c 0,24,25
 1002 1052 1002 1052 813 1052 c 0,26,27
 714 1052 714 1052 696 971 c 2,28,-1
 490 0 l 1,29,-1
 170 0 l 1,0,-1
EndSplineSet
Validated: 1
EndChar

StartChar: germandbls
Encoding: 223 223 197
Width: 1316
Flags: W
HStem: -20 266<789.41 988.89> 0 21G<170 474.258> 1260 270<746.441 993.508>
VStem: 170 300<0 300> 563 214<260.039 343> 1039 271<295.835 506.494 1090.22 1221.86>
DStem2: 165.749 -20 465.749 -20 0.207912 0.978148<82.8203 1362.28>
LayerCount: 2
Fore
SplineSet
170 0 m 1,0,-1
 418 1167 l 2,1,2
 495 1530 495 1530 915 1530 c 0,3,4
 1100 1530 1100 1530 1207 1416 c 0,5,6
 1302 1316 1302 1316 1302 1191 c 0,7,8
 1302 1166 1302 1166 1300 1153 c 0,9,10
 1284 1006 1284 1006 1105 891 c 0,11,12
 1021 837 1021 837 1021 809 c 0,13,14
 1021 789 1021 789 1052 771 c 2,15,-1
 1094 747 l 2,16,17
 1310 624 1310 624 1310 420 c 0,18,19
 1310 405 1310 405 1309 390 c 0,20,21
 1295 215 1295 215 1184 112 c 0,22,23
 1042 -20 1042 -20 852 -20 c 0,24,25
 563 -20 563 -20 563 269 c 0,26,27
 563 304 563 304 567 343 c 1,28,-1
 777 343 l 1,29,30
 777 246 777 246 866 246 c 0,31,32
 946 246 946 246 993 293 c 0,33,34
 1039 338 1039 338 1039 407 c 0,35,36
 1039 499 1039 499 919 560 c 0,37,38
 748 647 748 647 748 778 c 0,39,40
 748 800 748 800 753 824 c 0,41,42
 779 945 779 945 931 1041 c 0,43,44
 1017 1095 1017 1095 1026 1142 c 0,45,46
 1028 1153 1028 1153 1028 1160 c 0,47,48
 1028 1196 1028 1196 991 1225 c 0,49,50
 946 1260 946 1260 856 1260 c 0,51,52
 738 1260 738 1260 714 1146 c 2,53,-1
 470 0 l 1,54,-1
 170 0 l 1,0,-1
EndSplineSet
Validated: 1
EndChar

StartChar: thorn
Encoding: 254 254 198
Width: 1303
Flags: W
HStem: -20 280<645 849.5> 840 280<704.894 964.91> 1490 20G<486.75 791>
VStem: 83 300<-410 -110> 491 300<1210 1510> 1050 307<452.109 754.15>
DStem2: 83 -410 383 -410 0.207912 0.978148<62.3735 1323.09 1602 1962.87>
LayerCount: 2
Fore
SplineSet
586 -20 m 1,0,-1
 645 260 l 1,1,2
 803 260 803 260 910 341 c 0,3,4
 1012 417 1012 417 1042 551 c 0,5,6
 1050 588 1050 588 1050 620 c 0,7,8
 1050 702 1050 702 1000 762 c 0,9,10
 934 840 934 840 828 840 c 0,11,12
 649 840 649 840 627 736 c 2,13,-1
 383 -410 l 1,14,-1
 83 -410 l 1,15,-1
 491 1510 l 1,16,-1
 791 1510 l 1,17,-1
 703 1096 l 1,18,19
 763 1120 763 1120 828 1120 c 0,20,21
 1089 1120 1089 1120 1230 958 c 0,22,23
 1357 812 1357 812 1357 637 c 0,24,25
 1357 580 1357 580 1345 525 c 0,26,27
 1285 259 1285 259 1066 111 c 0,28,29
 873 -20 873 -20 586 -20 c 1,0,-1
EndSplineSet
Validated: 1
EndChar

StartChar: Tbar
Encoding: 358 358 199
Width: 1210
Flags: W
HStem: 0 21G<446 770.237> 590 222<425 571 939 1083> 1210 300<331 643 1030.08 1457>
VStem: 446 320<0 320>
DStem2: 446 0 766 0 0.207912 0.978148<66.5317 603.096 896.756 1292.97>
LayerCount: 2
Fore
SplineSet
446 0 m 1,0,-1
 571 590 l 1,1,-1
 377 590 l 1,2,-1
 425 812 l 1,3,-1
 619 812 l 1,4,-1
 687 1134 l 2,5,6
 766 1510 766 1510 1187 1510 c 2,7,-1
 1521 1510 l 1,8,-1
 1457 1209 l 1,9,-1
 1123 1209 l 2,10,11
 1022 1209 1022 1209 1002 1112 c 2,12,-1
 939 812 l 1,13,-1
 1131 812 l 1,14,-1
 1083 590 l 1,15,-1
 891 590 l 1,16,-1
 766 0 l 1,17,-1
 446 0 l 1,0,-1
331 1510 m 1,18,-1
 707 1510 l 1,19,-1
 643 1210 l 1,20,-1
 267 1210 l 1,21,-1
 331 1510 l 1,18,-1
EndSplineSet
Validated: 1
EndChar

StartChar: tbar
Encoding: 359 359 200
Width: 850
Flags: W
HStem: 0 21G<170 474.245> 490 222<172 274 621 747> 820 280<657.688 1014> 1160 350<491 717>
VStem: 170 300<0 300> 417 300<1160 1460> 491 300<1210 1510>
DStem2: 170 0 470 0 0.207912 0.978148<62.3735 500.915 790.209 893.726 1248.38 1543.74>
LayerCount: 2
Fore
SplineSet
170 0 m 1,0,-1
 274 490 l 1,1,-1
 124 490 l 1,2,-1
 172 712 l 1,3,-1
 321 712 l 1,4,-1
 327 739 l 2,5,6
 407 1100 407 1100 824 1100 c 2,7,-1
 1074 1100 l 1,8,-1
 1014 820 l 1,9,-1
 764 820 l 2,10,11
 643 820 643 820 622 717 c 2,12,-1
 621 712 l 1,13,-1
 794 712 l 1,14,-1
 747 490 l 1,15,-1
 574 490 l 1,16,-1
 470 0 l 1,17,-1
 170 0 l 1,0,-1
491 1510 m 1,18,-1
 791 1510 l 1,19,-1
 717 1160 l 1,20,-1
 417 1160 l 1,21,-1
 491 1510 l 1,18,-1
EndSplineSet
Validated: 1
EndChar

StartChar: circumflex
Encoding: 710 710 201
Width: 630
Flags: W
HStem: 1180 450
VStem: 308 582
LayerCount: 2
Fore
SplineSet
642 1630 m 1,0,-1
 890 1318 l 1,1,-1
 721 1180 l 1,2,-1
 605 1339 l 1,3,-1
 425 1180 l 1,4,-1
 308 1355 l 1,5,-1
 642 1630 l 1,0,-1
EndSplineSet
Validated: 1
EndChar

StartChar: caron
Encoding: 711 711 202
Width: 630
Flags: W
HStem: 1180 450
VStem: 337 582
LayerCount: 2
Fore
SplineSet
506 1630 m 1,0,-1
 622 1471 l 1,1,-1
 802 1630 l 1,2,-1
 919 1455 l 1,3,-1
 585 1180 l 1,4,-1
 337 1492 l 1,5,-1
 506 1630 l 1,0,-1
EndSplineSet
Validated: 1
EndChar

StartChar: uni02C9
Encoding: 713 713 203
Width: 663
Flags: W
HStem: 1287 222<341 917>
VStem: 294 670
LayerCount: 2
Fore
SplineSet
341 1509 m 1,0,-1
 964 1509 l 1,1,-1
 917 1287 l 1,2,-1
 294 1287 l 1,3,-1
 341 1509 l 1,0,-1
EndSplineSet
Validated: 1
EndChar

StartChar: breve
Encoding: 728 728 204
Width: 660
Flags: W
HStem: 1247 222<449.773 830.2>
VStem: 308 668
LayerCount: 2
Fore
SplineSet
356 1579 m 1,0,1
 475 1469 475 1469 637 1469 c 0,2,3
 801 1469 801 1469 976 1579 c 1,4,-1
 928 1353 l 1,5,6
 797 1247 797 1247 637 1247 c 0,7,8
 424 1247 424 1247 308 1353 c 1,9,-1
 356 1579 l 1,0,1
EndSplineSet
Validated: 1
EndChar

StartChar: dotaccent
Encoding: 729 729 205
Width: 416
Flags: W
HStem: 1162 368<389.541 600.4>
VStem: 304 380<1244.06 1446.94>
LayerCount: 2
Fore
SplineSet
524 1530 m 0,0,1
 606 1530 606 1530 650 1473 c 0,2,3
 683 1430 683 1430 684 1373 c 0,4,5
 684 1360 684 1360 682 1345 c 0,6,7
 671 1264 671 1264 608.5 1213 c 128,-1,8
 546 1162 546 1162 464 1162 c 128,-1,9
 382 1162 382 1162 338 1220 c 0,10,11
 305 1263 305 1263 304 1319 c 0,12,13
 304 1332 304 1332 306 1346 c 0,14,15
 317 1427 317 1427 379 1478 c 0,16,17
 443 1530 443 1530 524 1530 c 0,0,1
EndSplineSet
Validated: 1
EndChar

StartChar: ring
Encoding: 730 730 206
Width: 534
Flags: W
HStem: 1135 149<473.68 628.595> 1471 147<488.786 645.32>
VStem: 311 151<1312.63 1443.25> 656 152<1311.13 1443.4>
LayerCount: 2
Fore
SplineSet
590 1618 m 0,0,1
 692 1618 692 1618 759 1541 c 0,2,3
 808 1485 808 1485 808 1413 c 0,4,5
 808 1393 808 1393 806 1376 c 0,6,7
 792 1270 792 1270 712 1204 c 0,8,9
 629 1135 629 1135 529 1135 c 0,10,11
 427 1135 427 1135 360 1212 c 0,12,13
 311 1268 311 1268 311 1340 c 0,14,15
 311 1360 311 1360 313 1377 c 0,16,17
 327 1485 327 1485 407 1550 c 0,18,19
 492 1618 492 1618 590 1618 c 0,0,1
579 1471 m 128,-1,21
 539 1471 539 1471 505 1443 c 0,22,23
 473 1417 473 1417 464 1377 c 0,24,25
 462 1367 462 1367 462 1358 c 0,26,27
 463 1332 463 1332 478 1312 c 0,28,29
 500 1284 500 1284 540 1284 c 0,30,31
 579 1284 579 1284 613 1312 c 0,32,33
 646 1341 646 1341 654 1379 c 0,34,35
 656 1389 656 1389 656 1399 c 0,36,37
 656 1425 656 1425 641 1444 c 0,38,20
 619 1471 619 1471 579 1471 c 128,-1,21
EndSplineSet
Validated: 1
EndChar

StartChar: tilde
Encoding: 732 732 207
Width: 732
Flags: W
HStem: 1161 226<723.263 835.902> 1294 226<466.028 577.906>
LayerCount: 2
Fore
SplineSet
873 1499 m 1,0,-1
 1012 1411 l 1,1,2
 911 1161 911 1161 742 1161 c 0,3,4
 658 1161 658 1161 597 1228 c 2,5,-1
 550 1280 l 2,6,7
 537 1294 537 1294 525 1294 c 0,8,9
 480 1294 480 1294 429 1182 c 1,10,-1
 290 1270 l 1,11,12
 391 1520 391 1520 560 1520 c 0,13,14
 643 1520 643 1520 705 1451 c 2,15,-1
 752 1399 l 2,16,17
 763 1387 763 1387 776 1387 c 0,18,19
 822 1387 822 1387 873 1499 c 1,0,-1
EndSplineSet
Validated: 1
EndChar

StartChar: hungarumlaut
Encoding: 733 733 208
Width: 903
Flags: W
HStem: 1216 450
DStem2: 316 1391 459 1216 0.752133 0.659012<0 411.037> 742 1391 885 1216 0.752133 0.659012<0 411.037>
LayerCount: 2
Fore
SplineSet
1054 1666 m 1,0,-1
 1200 1492 l 1,1,-1
 885 1216 l 1,2,-1
 742 1391 l 1,3,-1
 1054 1666 l 1,0,-1
628 1666 m 1,4,-1
 774 1492 l 1,5,-1
 459 1216 l 1,6,-1
 316 1391 l 1,7,-1
 628 1666 l 1,4,-1
EndSplineSet
Validated: 1
EndChar

StartChar: ogonek
Encoding: 731 731 209
Width: 421
Flags: W
HStem: -430 652
VStem: -4 265<-249.474 -8.08777>
LayerCount: 2
Fore
SplineSet
278 222 m 1,0,1
 377 44 l 1,2,3
 278 -8 278 -8 264 -87 c 0,4,5
 262 -99 262 -99 261 -110 c 0,6,7
 261 -184 261 -184 351 -234 c 1,8,-1
 169 -430 l 1,9,10
 -4 -306 -4 -306 -4 -145 c 0,11,12
 -4 -103 -4 -103 8 -58 c 0,13,14
 57 128 57 128 278 222 c 1,0,1
EndSplineSet
Validated: 1
EndChar

StartChar: integral
Encoding: 8747 8747 210
Width: 920
Flags: W
HStem: -420 280<-20 145.209> 1250 280<1006.48 1176>
DStem2: 220.891 -420 520.804 -420 0.207912 0.978148<421.892 1636.75>
LayerCount: 2
Fore
SplineSet
1235 1530 m 1,0,1
 1176 1250 l 1,2,3
 1051 1250 1051 1250 947 1168 c 0,4,5
 841 1085 841 1085 808 932 c 2,6,-1
 646 169 l 2,7,8
 586 -114 586 -114 377 -268 c 0,9,10
 170 -420 170 -420 -79 -420 c 1,11,-1
 -20 -140 l 1,12,13
 99 -140 99 -140 204 -59 c 0,14,15
 316 27 316 27 348 178 c 2,16,-1
 510 941 l 2,17,18
 571 1230 571 1230 773 1378 c 0,19,20
 980 1530 980 1530 1235 1530 c 1,0,1
EndSplineSet
Validated: 1
EndChar

StartChar: afii61352
Encoding: 8470 8470 211
Width: 2411
Flags: W
HStem: 0 174<1657 2270> 215 221<1956.77 2138.25> 674 219<1983.36 2166.73> 1230 300<752.984 1167.77>
VStem: 170 320<0 320> 1355 318<642.665 1043.91> 1713 224<461.16 628.002> 2185 226<482.382 639.248>
DStem2: 170 0 490 0 0.207912 0.978148<66.5317 1316.62>
LayerCount: 2
Fore
SplineSet
170 0 m 1,0,-1
 416 1159 l 2,1,2
 495 1530 495 1530 890 1530 c 2,3,-1
 1016 1530 l 2,4,5
 1359 1530 1359 1530 1538 1293 c 0,6,7
 1673 1113 1673 1113 1673 888 c 0,8,9
 1673 823 1673 823 1662 755 c 0,10,11
 1597 352 1597 352 1235 0 c 1,12,-1
 814 0 l 1,13,14
 1015 164 1015 164 1151 338 c 0,15,16
 1292 519 1292 519 1342 755 c 0,17,18
 1355 815 1355 815 1355 869 c 0,19,20
 1355 1000 1355 1000 1278 1096 c 0,21,22
 1170 1230 1170 1230 974 1230 c 2,23,-1
 851 1230 l 2,24,25
 751 1230 751 1230 732 1139 c 2,26,-1
 490 0 l 1,27,-1
 170 0 l 1,0,-1
2019 215 m 0,28,29
 1876 215 1876 215 1782 323 c 0,30,31
 1713 401 1713 401 1713 503 c 0,32,33
 1713 531 1713 531 1716 555 c 0,34,35
 1736 707 1736 707 1848 797 c 0,36,37
 1968 893 1968 893 2105 893 c 0,38,39
 2248 893 2248 893 2342 785 c 0,40,41
 2411 707 2411 707 2411 605 c 0,42,43
 2411 577 2411 577 2408 553 c 0,44,45
 2388 404 2388 404 2276 311 c 24,46,47
 2161 215 2161 215 2019 215 c 0,28,29
2086 674 m 128,-1,49
 2035 674 2035 674 1992.5 639 c 128,-1,50
 1950 604 1950 604 1940 555 c 0,51,52
 1937 542 1937 542 1937 530 c 0,53,54
 1938 497 1938 497 1958 471 c 0,55,56
 1986 436 1986 436 2036.5 436 c 128,-1,57
 2087 436 2087 436 2129.5 472 c 128,-1,58
 2172 508 2172 508 2182 557 c 0,59,60
 2185 570 2185 570 2185 583 c 0,61,62
 2185 616 2185 616 2165 640 c 0,63,48
 2137 674 2137 674 2086 674 c 128,-1,49
1657 174 m 1,64,-1
 2307 174 l 1,65,-1
 2270 0 l 1,66,-1
 1620 0 l 1,67,-1
 1657 174 l 1,64,-1
EndSplineSet
Validated: 1
EndChar

StartChar: uni2117
Encoding: 8471 8471 212
Width: 1420
Flags: W
HStem: 191 68<609.619 996.259> 526 181<788 929.451> 961 201<818.293 982.645> 1263 68<748.461 1133.03>
VStem: 279 72<514.529 901.074> 995 212<770.24 944.033> 1395 72<631.139 1006.69>
DStem2: 449.952 191 660.179 191 0.207912 0.978148<191.948 836.786>
LayerCount: 2
Fore
SplineSet
781 191 m 0,0,1
 543 191 543 191 397 357 c 0,2,3
 279 490 279 490 279 688 c 0,4,5
 279 726 279 726 283 766 c 0,6,7
 313 1020 313 1020 527 1183 c 0,8,9
 721 1331 721 1331 963 1331 c 0,10,11
 1201 1331 1201 1331 1349 1165 c 0,12,13
 1467 1033 1467 1033 1467 837 c 0,14,15
 1467 798 1467 798 1461 756 c 0,16,17
 1431 501 1431 501 1219 339 c 0,18,19
 1023 191 1023 191 781 191 c 0,0,1
792 259 m 0,20,21
 1005 259 1005 259 1177 390 c 0,22,23
 1364 533 1364 533 1391 757 c 0,24,25
 1395 794 1395 794 1395 828 c 0,26,27
 1395 1000 1395 1000 1291 1117 c 0,28,29
 1161 1263 1161 1263 953 1263 c 0,30,31
 740 1263 740 1263 568 1132 c 0,32,33
 373 984 373 984 354 765 c 0,34,35
 351 732 351 732 351 697 c 0,36,37
 351 523 351 523 454 405 c 0,38,39
 470 386 470 386 488 370 c 1,40,-1
 612 948 l 2,41,42
 658 1162 658 1162 888 1162 c 0,43,44
 1034 1162 1034 1162 1122 1078 c 0,45,46
 1194 1009 1194 1009 1205 910 c 0,47,48
 1207 892 1207 892 1207 874 c 0,49,50
 1207 830 1207 830 1194 784 c 0,51,52
 1153 639 1153 639 988 566 c 0,53,54
 898 526 898 526 750 526 c 1,55,-1
 788 707 l 1,56,-1
 803 707 l 2,57,58
 878 707 878 707 931 752 c 0,59,60
 982 796 982 796 991 841 c 0,61,62
 995 861 995 861 995 877 c 0,63,64
 995 961 995 961 853 961 c 0,65,66
 825 961 825 961 820 939 c 2,67,-1
 691 336 l 1,68,-1
 530 336 l 1,69,70
 639 259 639 259 792 259 c 0,20,21
EndSplineSet
Validated: 1
EndChar

StartChar: uni203D
Encoding: 8253 8253 213
Width: 1273
Flags: W
HStem: -20 368<556.541 767.4> 1510 20G<738.5 1008.5>
VStem: 471 380<62.0605 264.939> 1057 322<963.258 1185.05>
DStem2: 491.302 -20 678.926 -20 0.207912 0.978148<924.356 1242.14>
LayerCount: 2
Fore
SplineSet
887 1530 m 0,0,1
 1130 1530 1130 1530 1264 1383 c 0,2,3
 1379 1257 1379 1257 1379 1089 c 0,4,5
 1379 1079 1379 1079 1378 1060 c 0,6,7
 1366 831 1366 831 1064 674 c 0,8,9
 881 580 881 580 858 476 c 1,10,-1
 578 476 l 1,11,12
 594 547 594 547 625 609 c 1,13,-1
 726 1200 l 1,14,15
 634 1159 634 1159 564 1063 c 1,16,-1
 353 1236 l 1,17,18
 590 1530 590 1530 887 1530 c 0,0,1
631 -20 m 128,-1,20
 549 -20 549 -20 505 38 c 0,21,22
 472 81 472 81 471 137 c 0,23,24
 471 150 471 150 473 164 c 0,25,26
 484 245 484 245 546 296 c 0,27,28
 610 348 610 348 691 348 c 0,29,30
 773 348 773 348 817 291 c 0,31,32
 850 248 850 248 851 191 c 0,33,34
 851 178 851 178 849 163 c 0,35,36
 838 82 838 82 775.5 31 c 128,-1,19
 713 -20 713 -20 631 -20 c 128,-1,20
958 1217 m 1,37,-1
 863 846 l 1,38,39
 873 852 873 852 883 857 c 0,40,41
 1028 933 1028 933 1052 1042 c 0,42,43
 1057 1065 1057 1065 1057 1085 c 0,44,45
 1057 1140 1057 1140 1021 1177 c 0,46,47
 995 1204 995 1204 958 1217 c 1,37,-1
EndSplineSet
Validated: 1
EndChar

StartChar: uni1E02
Encoding: 7682 7682 214
Width: 1300
Flags: W
HStem: -20 300<670 893.75> 0 21G<170 494.257> 684 275<820 955.74> 1246 284<757.513 1007.98> 1605 368<829.541 1040.4>
VStem: 170 320<0 320> 744 380<1687.06 1889.94> 1028 307<399.766 627.428> 1028 283<1029.57 1220.34>
DStem2: 165.749 -20 485.749 -20 0.207912 0.978148<86.9786 1356.37>
LayerCount: 2
Fore
SplineSet
964 1973 m 0,0,1
 1046 1973 1046 1973 1090 1916 c 0,2,3
 1123 1873 1123 1873 1124 1816 c 0,4,5
 1124 1803 1124 1803 1122 1788 c 0,6,7
 1111 1707 1111 1707 1048.5 1656 c 128,-1,8
 986 1605 986 1605 904 1605 c 128,-1,9
 822 1605 822 1605 778 1663 c 0,10,11
 745 1706 745 1706 744 1762 c 0,12,13
 744 1775 744 1775 746 1789 c 0,14,15
 757 1870 757 1870 819 1921 c 0,16,17
 883 1973 883 1973 964 1973 c 0,0,1
170 0 m 1,18,-1
 416 1159 l 2,19,20
 495 1530 495 1530 915 1530 c 0,21,22
 1112 1530 1112 1530 1231 1395 c 0,23,24
 1311 1305 1311 1305 1311 1183 c 0,25,26
 1311 1157 1311 1157 1307 1129 c 0,27,28
 1284 961 1284 961 1098 850 c 1,29,30
 1213 817 1213 817 1269 740 c 0,31,32
 1335 649 1335 649 1335 536 c 0,33,34
 1335 495 1335 495 1326 450 c 0,35,36
 1285 244 1285 244 1115 119 c 0,37,38
 927 -20 927 -20 606 -20 c 1,39,-1
 670 280 l 1,40,41
 844 280 844 280 925 342 c 128,-1,42
 1006 404 1006 404 1023 484 c 0,43,44
 1028 509 1028 509 1028 530 c 0,45,46
 1028 684 1028 684 761 684 c 1,47,-1
 820 959 l 1,48,49
 890 959 890 959 954 1002 c 0,50,51
 1010 1039 1010 1039 1024 1105 c 0,52,53
 1028 1124 1028 1124 1028 1141 c 0,54,55
 1028 1246 1028 1246 868 1246 c 0,56,57
 755 1246 755 1246 735 1151 c 2,58,-1
 490 0 l 1,59,-1
 170 0 l 1,18,-1
EndSplineSet
Validated: 1
EndChar

StartChar: uni1E03
Encoding: 7683 7683 215
Width: 1303
Flags: W
HStem: -20 280<552.408 849.919> 1100 20G<823.786 958.5> 1490 20G<486.758 791> 1605 368<586.541 797.4>
VStem: 240 305<123.5 524.172> 491 300<1210 1510> 501 380<1687.06 1889.94> 1050 307<452.094 750.121>
DStem2: 166.301 -20 466.378 -20 0.207912 0.978148<425.489 1564.07>
LayerCount: 2
Fore
SplineSet
721 1973 m 0,0,1
 803 1973 803 1973 847 1916 c 0,2,3
 880 1873 880 1873 881 1816 c 0,4,5
 881 1803 881 1803 879 1788 c 0,6,7
 868 1707 868 1707 805.5 1656 c 128,-1,8
 743 1605 743 1605 661 1605 c 128,-1,9
 579 1605 579 1605 535 1663 c 0,10,11
 502 1706 502 1706 501 1762 c 0,12,13
 501 1775 501 1775 503 1789 c 0,14,15
 514 1870 514 1870 576 1921 c 0,16,17
 640 1973 640 1973 721 1973 c 0,0,1
491 1510 m 1,18,-1
 791 1510 l 1,19,-1
 548 364 l 2,20,21
 545 350 545 350 545 334 c 0,22,23
 545 260 545 260 645 260 c 0,24,25
 805 260 805 260 910 341 c 128,-1,26
 1015 422 1015 422 1042 551 c 0,27,28
 1050 588 1050 588 1050 620 c 0,29,30
 1050 704 1050 704 998 760 c 0,31,32
 923 840 923 840 769 840 c 1,33,-1
 828 1120 l 1,34,35
 1089 1120 1089 1120 1230 958 c 0,36,37
 1357 813 1357 813 1357 637 c 0,38,39
 1357 582 1357 582 1345 525 c 0,40,41
 1289 263 1289 263 1066 111 c 0,42,43
 873 -20 873 -20 586 -20 c 0,44,45
 240 -20 240 -20 240 267 c 0,46,47
 240 327 240 327 256 402 c 2,48,-1
 491 1510 l 1,18,-1
EndSplineSet
Validated: 1
EndChar

StartChar: uni1E0A
Encoding: 7690 7690 216
Width: 1678
Flags: W
HStem: -20 300<670 1097.22> 0 21G<170 494.249> 1230 300<758.445 1273.81> 1605 368<999.541 1210.4>
VStem: 170 320<0 320> 914 380<1687.06 1889.94> 1456 320<640.043 1052.32>
DStem2: 165.749 -20 485.749 -20 0.207912 0.978148<86.9786 1337.24>
LayerCount: 2
Fore
SplineSet
1134 1973 m 0,0,1
 1216 1973 1216 1973 1260 1916 c 0,2,3
 1293 1873 1293 1873 1294 1816 c 0,4,5
 1294 1803 1294 1803 1292 1788 c 0,6,7
 1281 1707 1281 1707 1218.5 1656 c 128,-1,8
 1156 1605 1156 1605 1074 1605 c 128,-1,9
 992 1605 992 1605 948 1663 c 0,10,11
 915 1706 915 1706 914 1762 c 0,12,13
 914 1775 914 1775 916 1789 c 0,14,15
 927 1870 927 1870 989 1921 c 0,16,17
 1053 1973 1053 1973 1134 1973 c 0,0,1
170 0 m 1,18,-1
 416 1159 l 2,19,20
 495 1530 495 1530 915 1530 c 2,21,-1
 1102 1530 l 2,22,23
 1446 1530 1446 1530 1635 1287 c 0,24,25
 1776 1106 1776 1106 1776 869 c 0,26,27
 1776 812 1776 812 1768 753 c 0,28,29
 1722 414 1722 414 1458 196 c 0,30,31
 1195 -20 1195 -20 850 -20 c 2,32,-1
 606 -20 l 1,33,-1
 670 280 l 1,34,-1
 877 280 l 2,35,36
 1088 280 1088 280 1245 410 c 0,37,38
 1411 548 1411 548 1447 755 c 0,39,40
 1456 807 1456 807 1456 864 c 0,41,42
 1456 1007 1456 1007 1383 1098 c 0,43,44
 1278 1230 1278 1230 1077 1230 c 2,45,-1
 851 1230 l 2,46,47
 751 1230 751 1230 732 1139 c 2,48,-1
 490 0 l 1,49,-1
 170 0 l 1,18,-1
EndSplineSet
Validated: 1
EndChar

StartChar: uni1E0B
Encoding: 7691 7691 217
Width: 1303
Flags: W
HStem: -20 280<575.937 876.33> 840 280<687.5 892> 1490 20G<1149.74 1454> 1605 368<1242.54 1453.4>
VStem: 180 307<351.279 647.479> 1154 300<1210 1510> 1157 380<1687.06 1889.94>
DStem2: 828.378 -20 1129.05 -20 0.207912 0.978148<303.756 1564.27>
LayerCount: 2
Fore
SplineSet
1377 1973 m 0,0,1
 1459 1973 1459 1973 1503 1916 c 0,2,3
 1536 1873 1536 1873 1537 1816 c 0,4,5
 1537 1803 1537 1803 1535 1788 c 0,6,7
 1524 1707 1524 1707 1461.5 1656 c 128,-1,8
 1399 1605 1399 1605 1317 1605 c 128,-1,9
 1235 1605 1235 1605 1191 1663 c 0,10,11
 1158 1706 1158 1706 1157 1762 c 0,12,13
 1157 1775 1157 1775 1159 1789 c 0,14,15
 1170 1870 1170 1870 1232 1921 c 0,16,17
 1296 1973 1296 1973 1377 1973 c 0,0,1
709 -20 m 0,18,19
 448 -20 448 -20 307 142 c 0,20,21
 180 288 180 288 180 463 c 0,22,23
 180 520 180 520 192 575 c 0,24,25
 252 841 252 841 471 989 c 0,26,27
 664 1120 664 1120 951 1120 c 1,28,-1
 892 840 l 1,29,30
 734 840 734 840 627 759 c 0,31,32
 524 682 524 682 495 549 c 0,33,34
 487 512 487 512 487 480 c 0,35,36
 487 403 487 403 538 340 c 0,37,38
 603 260 603 260 709 260 c 0,39,40
 888 260 888 260 910 364 c 2,41,-1
 1154 1510 l 1,42,-1
 1454 1510 l 1,43,-1
 1206 342 l 2,44,45
 1129 -20 1129 -20 709 -20 c 0,18,19
EndSplineSet
Validated: 1
EndChar

StartChar: uni1E1E
Encoding: 7710 7710 218
Width: 1151
Flags: W
HStem: 0 21G<170 494.24> 599 302<625.038 1108> 1209 301<754.403 1238> 1605 368<854.541 1065.4>
VStem: 170 320<0 320> 769 380<1687.06 1889.94>
DStem2: 170 0 490 0 0.207912 0.978148<66.5317 669.033 1048.95 1293.04>
LayerCount: 2
Fore
SplineSet
989 1973 m 0,0,1
 1071 1973 1071 1973 1115 1916 c 0,2,3
 1148 1873 1148 1873 1149 1816 c 0,4,5
 1149 1803 1149 1803 1147 1788 c 0,6,7
 1136 1707 1136 1707 1073.5 1656 c 128,-1,8
 1011 1605 1011 1605 929 1605 c 128,-1,9
 847 1605 847 1605 803 1663 c 0,10,11
 770 1706 770 1706 769 1762 c 0,12,13
 769 1775 769 1775 771 1789 c 0,14,15
 782 1870 782 1870 844 1921 c 0,16,17
 908 1973 908 1973 989 1973 c 0,0,1
1302 1510 m 1,18,-1
 1238 1209 l 1,19,-1
 847 1209 l 2,20,21
 747 1209 747 1209 726 1112 c 2,22,-1
 694 961 l 1,23,-1
 374 961 l 1,24,-1
 411 1134 l 2,25,26
 491 1510 491 1510 911 1510 c 2,27,-1
 1302 1510 l 1,18,-1
170 0 m 1,28,-1
 281 523 l 2,29,30
 361 901 361 901 782 901 c 2,31,-1
 1173 901 l 1,32,-1
 1108 599 l 1,33,-1
 717 599 l 2,34,35
 617 599 617 599 596 500 c 2,36,-1
 490 0 l 1,37,-1
 170 0 l 1,28,-1
EndSplineSet
Validated: 1
EndChar

StartChar: uni1E1F
Encoding: 7711 7711 219
Width: 850
Flags: W
HStem: 0 21G<170 474.24> 820 280<656.663 1014> 1250 280<775.23 1106> 1605 368<756.541 967.4>
VStem: 170 300<0 300> 417 300<1160 1460> 671 380<1687.06 1889.94>
DStem2: 170 0 470 0 0.207912 0.978148<62.3735 893.822 1248.38 1309.05>
LayerCount: 2
Fore
SplineSet
891 1973 m 0,0,1
 973 1973 973 1973 1017 1916 c 0,2,3
 1050 1873 1050 1873 1051 1816 c 0,4,5
 1051 1803 1051 1803 1049 1788 c 0,6,7
 1038 1707 1038 1707 975.5 1656 c 128,-1,8
 913 1605 913 1605 831 1605 c 128,-1,9
 749 1605 749 1605 705 1663 c 0,10,11
 672 1706 672 1706 671 1762 c 0,12,13
 671 1775 671 1775 673 1789 c 0,14,15
 684 1870 684 1870 746 1921 c 0,16,17
 810 1973 810 1973 891 1973 c 0,0,1
170 0 m 1,18,-1
 327 739 l 2,19,20
 404 1100 404 1100 824 1100 c 2,21,-1
 1074 1100 l 1,22,-1
 1014 820 l 1,23,-1
 764 820 l 2,24,25
 644 820 644 820 622 717 c 2,26,-1
 470 0 l 1,27,-1
 170 0 l 1,18,-1
1165 1530 m 1,28,-1
 1106 1250 l 1,29,30
 736 1250 736 1250 717 1160 c 1,31,-1
 417 1160 l 1,32,33
 497 1530 497 1530 1165 1530 c 1,28,-1
EndSplineSet
Validated: 1
EndChar

StartChar: uni1E40
Encoding: 7744 7744 220
Width: 2241
Flags: W
HStem: 0 21G<302 758 960 1284.25 1483 2085> 1090 20G<1191.75 1516> 1230 300<907.08 1833.45> 1605 368<1389.54 1600.4>
VStem: 217 311<318.38 834.853> 960 320<0 320> 1196 320<790 1110> 1304 380<1687.06 1889.94> 2024 318<642.665 1043.91>
DStem2: 960 0 1280 0 0.207912 0.978148<66.5317 1134.81>
LayerCount: 2
Fore
SplineSet
387 0 m 1,0,1
 217 263 217 263 217 575 c 0,2,3
 217 663 217 663 230 755 c 0,4,5
 277 1076 277 1076 534 1293 c 0,6,7
 813 1530 813 1530 1181 1530 c 2,8,-1
 1710 1530 l 2,9,10
 2028 1530 2028 1530 2207 1293 c 0,11,12
 2342 1113 2342 1113 2342 888 c 0,13,14
 2342 823 2342 823 2331 755 c 0,15,16
 2266 352 2266 352 1904 0 c 1,17,-1
 1483 0 l 1,18,19
 1684 164 1684 164 1820 338 c 0,20,21
 1959 517 1959 517 2011 755 c 0,22,23
 2024 815 2024 815 2024 869 c 0,24,25
 2024 1000 2024 1000 1947 1096 c 0,26,27
 1839 1230 1839 1230 1643 1230 c 2,28,-1
 1120 1230 l 2,29,30
 923 1230 923 1230 759 1096 c 0,31,32
 594 962 594 962 550 755 c 0,33,34
 528 652 528 652 528 560 c 0,35,36
 528 440 528 440 565 338 c 0,37,38
 627 164 627 164 758 0 c 1,39,-1
 387 0 l 1,0,1
1280 0 m 1,40,-1
 960 0 l 1,41,-1
 1196 1110 l 1,42,-1
 1516 1110 l 1,43,-1
 1280 0 l 1,40,-1
1524 1973 m 0,44,45
 1606 1973 1606 1973 1650 1916 c 0,46,47
 1683 1873 1683 1873 1684 1816 c 0,48,49
 1684 1803 1684 1803 1682 1788 c 0,50,51
 1671 1707 1671 1707 1608.5 1656 c 128,-1,52
 1546 1605 1546 1605 1464 1605 c 128,-1,53
 1382 1605 1382 1605 1338 1663 c 0,54,55
 1305 1706 1305 1706 1304 1762 c 0,56,57
 1304 1775 1304 1775 1306 1789 c 0,58,59
 1317 1870 1317 1870 1379 1921 c 0,60,61
 1443 1973 1443 1973 1524 1973 c 0,44,45
EndSplineSet
Validated: 1
EndChar

StartChar: uni1E41
Encoding: 7745 7745 221
Width: 1778
Flags: W
HStem: 0 21G<266.5 704 739 1043.26 1074 1632.5> 840 280<704.143 1412.69> 1182 368<1042.54 1253.4>
VStem: 179 294<249.389 624.984> 739 300<0 300> 888 300<400 700> 957 380<1264.06 1466.94> 1527 302<410.474 736.566>
DStem2: 739 0 1039 0 0.207912 0.978148<62.3735 715.682>
LayerCount: 2
Fore
SplineSet
354 0 m 1,0,1
 179 182 179 182 179 437 c 0,2,3
 179 492 179 492 187 551 c 0,4,5
 225 822 225 822 451 980 c 0,6,7
 651 1120 651 1120 966 1120 c 2,8,-1
 1288 1120 l 2,9,10
 1553 1120 1553 1120 1693 980 c 0,11,12
 1829 844 1829 844 1829 627 c 0,13,14
 1829 590 1829 590 1825 551 c 0,15,16
 1791 217 1791 217 1474 0 c 1,17,-1
 1074 0 l 1,18,19
 1278 136 1278 136 1394 268 c 0,20,21
 1498 387 1498 387 1522 535 c 0,22,23
 1527 567 1527 567 1527 595 c 0,24,25
 1527 694 1527 694 1467 756 c 0,26,27
 1385 840 1385 840 1229 840 c 2,28,-1
 907 840 l 2,29,30
 751 840 751 840 633 756 c 0,31,32
 512 670 512 670 484 535 c 0,33,34
 473 484 473 484 473 436 c 0,35,36
 473 350 473 350 507 272 c 0,37,38
 558 153 558 153 704 0 c 1,39,-1
 354 0 l 1,0,1
1039 0 m 1,40,-1
 739 0 l 1,41,-1
 888 700 l 1,42,-1
 1188 700 l 1,43,-1
 1039 0 l 1,40,-1
1177 1550 m 0,44,45
 1259 1550 1259 1550 1303 1493 c 0,46,47
 1336 1450 1336 1450 1337 1393 c 0,48,49
 1337 1380 1337 1380 1335 1365 c 0,50,51
 1324 1284 1324 1284 1261.5 1233 c 128,-1,52
 1199 1182 1199 1182 1117 1182 c 128,-1,53
 1035 1182 1035 1182 991 1240 c 0,54,55
 958 1283 958 1283 957 1339 c 0,56,57
 957 1352 957 1352 959 1366 c 0,58,59
 970 1447 970 1447 1032 1498 c 0,60,61
 1096 1550 1096 1550 1177 1550 c 0,44,45
EndSplineSet
Validated: 1
EndChar

StartChar: uni1E56
Encoding: 7766 7766 222
Width: 1384
Flags: W
HStem: 0 21G<170 494.249> 332 303<745 985.489> 1230 300<754.432 1067.79> 1605 368<879.541 1090.4>
VStem: 170 320<0 320> 794 380<1687.06 1889.94> 1193 324<821.285 1118.26>
DStem2: 170 0 490 0 0.207912 0.978148<66.5317 1316.8>
LayerCount: 2
Fore
SplineSet
1014 1973 m 0,0,1
 1096 1973 1096 1973 1140 1916 c 0,2,3
 1173 1873 1173 1873 1174 1816 c 0,4,5
 1174 1803 1174 1803 1172 1788 c 0,6,7
 1161 1707 1161 1707 1098.5 1656 c 128,-1,8
 1036 1605 1036 1605 954 1605 c 128,-1,9
 872 1605 872 1605 828 1663 c 0,10,11
 795 1706 795 1706 794 1762 c 0,12,13
 794 1775 794 1775 796 1789 c 0,14,15
 807 1870 807 1870 869 1921 c 0,16,17
 933 1973 933 1973 1014 1973 c 0,0,1
170 0 m 1,18,-1
 416 1159 l 2,19,20
 495 1530 495 1530 915 1530 c 0,21,22
 1200 1530 1200 1530 1362 1370 c 0,23,24
 1517 1217 1517 1217 1517 990 c 0,25,26
 1517 970 1517 970 1516 949 c 0,27,28
 1501 679 1501 679 1285 513 c 0,29,30
 1049 332 1049 332 681 332 c 1,31,-1
 745 635 l 1,32,33
 945 635 945 635 1054 720 c 0,34,35
 1162 803 1162 803 1185 911 c 0,36,37
 1193 948 1193 948 1193 981 c 0,38,39
 1193 1081 1193 1081 1127 1145 c 0,40,41
 1040 1230 1040 1230 851 1230 c 0,42,43
 751 1230 751 1230 732 1139 c 2,44,-1
 490 0 l 1,45,-1
 170 0 l 1,18,-1
EndSplineSet
Validated: 1
EndChar

StartChar: uni1E57
Encoding: 7767 7767 223
Width: 1303
Flags: W
HStem: -20 280<645 849.5> 840 280<660.67 964.91> 1182 368<788.541 999.4>
VStem: 83 300<-410 -110> 703 380<1264.06 1466.94> 1050 307<452.521 753.886>
DStem2: 83 -410 383 -410 0.207912 0.978148<62.3735 1322.88>
LayerCount: 2
Fore
SplineSet
923 1550 m 0,0,1
 1005 1550 1005 1550 1049 1493 c 0,2,3
 1082 1450 1082 1450 1083 1393 c 0,4,5
 1083 1380 1083 1380 1081 1365 c 0,6,7
 1070 1284 1070 1284 1007.5 1233 c 128,-1,8
 945 1182 945 1182 863 1182 c 128,-1,9
 781 1182 781 1182 737 1240 c 0,10,11
 704 1283 704 1283 703 1339 c 0,12,13
 703 1352 703 1352 705 1366 c 0,14,15
 716 1447 716 1447 778 1498 c 0,16,17
 842 1550 842 1550 923 1550 c 0,0,1
828 1120 m 0,18,19
 1089 1120 1089 1120 1230 958 c 0,20,21
 1357 812 1357 812 1357 637 c 0,22,23
 1357 580 1357 580 1345 525 c 0,24,25
 1285 259 1285 259 1066 111 c 0,26,27
 873 -20 873 -20 586 -20 c 1,28,-1
 645 260 l 1,29,30
 803 260 803 260 910 341 c 0,31,32
 1012 417 1012 417 1042 551 c 0,33,34
 1050 588 1050 588 1050 620 c 0,35,36
 1050 702 1050 702 1000 762 c 0,37,38
 934 840 934 840 828 840 c 0,39,40
 649 840 649 840 627 736 c 2,41,-1
 383 -410 l 1,42,-1
 83 -410 l 1,43,-1
 331 758 l 2,44,45
 408 1120 408 1120 828 1120 c 0,18,19
EndSplineSet
Validated: 1
EndChar

StartChar: uni1E60
Encoding: 7776 7776 224
Width: 1338
Flags: W
HStem: -20 300<534.121 887.249> 1245 285<840.664 1096.75> 1605 368<946.541 1157.4>
VStem: 492 316<1037.92 1209.83> 861 380<1687.06 1889.94> 1024 329<399.817 624.511>
LayerCount: 2
Fore
SplineSet
1081 1973 m 0,0,1
 1163 1973 1163 1973 1207 1916 c 0,2,3
 1240 1873 1240 1873 1241 1816 c 0,4,5
 1241 1803 1241 1803 1239 1788 c 0,6,7
 1228 1707 1228 1707 1165.5 1656 c 128,-1,8
 1103 1605 1103 1605 1021 1605 c 128,-1,9
 939 1605 939 1605 895 1663 c 0,10,11
 862 1706 862 1706 861 1762 c 0,12,13
 861 1775 861 1775 863 1789 c 0,14,15
 874 1870 874 1870 936 1921 c 0,16,17
 1000 1973 1000 1973 1081 1973 c 0,0,1
646 -20 m 0,18,19
 283 -20 283 -20 128 274 c 1,20,-1
 409 447 l 1,21,22
 512 280 512 280 708 280 c 0,23,24
 831 280 831 280 917 342 c 0,25,26
 1006 405 1006 405 1021 487 c 0,27,28
 1024 503 1024 503 1024 518 c 0,29,30
 1024 616 1024 616 923 661 c 2,31,-1
 783 724 l 2,32,33
 492 855 492 855 492 1089 c 0,34,35
 492 1123 492 1123 498 1159 c 0,36,37
 527 1341 527 1341 700 1454 c 0,38,39
 816 1530 816 1530 992 1530 c 0,40,41
 1257 1530 1257 1530 1406 1323 c 1,42,-1
 1146 1141 l 1,43,44
 1085 1245 1085 1245 978 1245 c 0,45,46
 841 1245 841 1245 813 1153 c 0,47,48
 808 1137 808 1137 808 1117 c 0,49,50
 808 1045 808 1045 932 988 c 2,51,-1
 1090 916 l 2,52,53
 1353 796 1353 796 1353 552 c 0,54,55
 1353 505 1353 505 1344 454 c 0,56,57
 1313 274 1313 274 1149 140 c 0,58,59
 953 -20 953 -20 646 -20 c 0,18,19
EndSplineSet
Validated: 1
EndChar

StartChar: uni1E61
Encoding: 7777 7777 225
Width: 1053
Flags: W
HStem: -20 260<413.989 718.775> 876 244<630.644 843.908> 1182 368<698.541 909.4>
VStem: 346 278<742.647 865.331> 613 380<1264.06 1466.94> 772 291<287.719 437.141>
LayerCount: 2
Fore
SplineSet
833 1550 m 0,0,1
 915 1550 915 1550 959 1493 c 0,2,3
 992 1450 992 1450 993 1393 c 0,4,5
 993 1380 993 1380 991 1365 c 0,6,7
 980 1284 980 1284 917.5 1233 c 128,-1,8
 855 1182 855 1182 773 1182 c 128,-1,9
 691 1182 691 1182 647 1240 c 0,10,11
 614 1283 614 1283 613 1339 c 0,12,13
 613 1352 613 1352 615 1366 c 0,14,15
 626 1447 626 1447 688 1498 c 0,16,17
 752 1550 752 1550 833 1550 c 0,0,1
520 -20 m 0,18,19
 218 -20 218 -20 88 177 c 1,20,-1
 339 368 l 1,21,22
 416 240 416 240 556 240 c 0,23,24
 661 240 661 240 715 278 c 0,25,26
 758 308 758 308 770 356 c 0,27,28
 772 364 772 364 772 371 c 0,29,30
 772 427 772 427 685 458 c 2,31,-1
 585 494 l 2,32,33
 346 580 346 580 346 766 c 0,34,35
 346 786 346 786 349 808 c 0,36,37
 368 955 368 955 506 1048 c 0,38,39
 613 1120 613 1120 758 1120 c 0,40,41
 1014 1120 1014 1120 1118 933 c 1,42,-1
 889 755 l 1,43,44
 849 876 849 876 734 876 c 0,45,46
 624 876 624 876 624 799 c 0,47,48
 624 753 624 753 721 718 c 2,49,-1
 849 672 l 2,50,51
 1063 595 1063 595 1063 407 c 0,52,53
 1063 385 1063 385 1060 362 c 0,54,55
 1041 197 1041 197 889 86 c 0,56,57
 744 -20 744 -20 520 -20 c 0,18,19
EndSplineSet
Validated: 1
EndChar

StartChar: uni1E6A
Encoding: 7786 7786 226
Width: 1210
Flags: W
HStem: 0 21G<446 770.245> 1210 300<331 643 1030.4 1457> 1605 368<891.541 1102.4>
VStem: 446 320<0 320> 806 380<1687.06 1889.94>
DStem2: 446 0 766 0 0.207912 0.978148<66.5317 1293.04>
LayerCount: 2
Fore
SplineSet
1026 1973 m 0,0,1
 1108 1973 1108 1973 1152 1916 c 0,2,3
 1185 1873 1185 1873 1186 1816 c 0,4,5
 1186 1803 1186 1803 1184 1788 c 0,6,7
 1173 1707 1173 1707 1110.5 1656 c 128,-1,8
 1048 1605 1048 1605 966 1605 c 128,-1,9
 884 1605 884 1605 840 1663 c 0,10,11
 807 1706 807 1706 806 1762 c 0,12,13
 806 1775 806 1775 808 1789 c 0,14,15
 819 1870 819 1870 881 1921 c 0,16,17
 945 1973 945 1973 1026 1973 c 0,0,1
446 0 m 1,18,-1
 687 1134 l 2,19,20
 767 1510 767 1510 1187 1510 c 2,21,-1
 1521 1510 l 1,22,-1
 1457 1209 l 1,23,-1
 1123 1209 l 2,24,25
 1023 1209 1023 1209 1002 1112 c 2,26,-1
 766 0 l 1,27,-1
 446 0 l 1,18,-1
331 1510 m 1,28,-1
 707 1510 l 1,29,-1
 643 1210 l 1,30,-1
 267 1210 l 1,31,-1
 331 1510 l 1,28,-1
EndSplineSet
Validated: 1
EndChar

StartChar: uni1E6B
Encoding: 7787 7787 227
Width: 850
Flags: W
HStem: 0 21G<170 474.24> 820 280<656.663 1014> 1160 350<491 717> 1605 368<586.541 797.4>
VStem: 170 300<0 300> 417 300<1160 1460> 491 300<1210 1510> 501 380<1687.06 1889.94>
DStem2: 170 0 470 0 0.207912 0.978148<62.3735 893.822 1248.38 1543.74>
LayerCount: 2
Fore
SplineSet
721 1973 m 0,0,1
 803 1973 803 1973 847 1916 c 0,2,3
 880 1873 880 1873 881 1816 c 0,4,5
 881 1803 881 1803 879 1788 c 0,6,7
 868 1707 868 1707 805.5 1656 c 128,-1,8
 743 1605 743 1605 661 1605 c 128,-1,9
 579 1605 579 1605 535 1663 c 0,10,11
 502 1706 502 1706 501 1762 c 0,12,13
 501 1775 501 1775 503 1789 c 0,14,15
 514 1870 514 1870 576 1921 c 0,16,17
 640 1973 640 1973 721 1973 c 0,0,1
170 0 m 1,18,-1
 327 739 l 2,19,20
 404 1100 404 1100 824 1100 c 2,21,-1
 1074 1100 l 1,22,-1
 1014 820 l 1,23,-1
 764 820 l 2,24,25
 644 820 644 820 622 717 c 2,26,-1
 470 0 l 1,27,-1
 170 0 l 1,18,-1
491 1510 m 1,28,-1
 791 1510 l 1,29,-1
 717 1160 l 1,30,-1
 417 1160 l 1,31,-1
 491 1510 l 1,28,-1
EndSplineSet
Validated: 1
EndChar

StartChar: uni1E9E
Encoding: 7838 7838 228
Width: 1444
Flags: W
HStem: -20 282<893.595 1109.35> 0 21G<170 484.258> 1253 277<756.419 1035.48>
VStem: 170 310<0 310> 586 287<132 391> 788 275<774.5 974.606> 1175 292<330.946 558.129>
DStem2: 165.749 -20 475.749 -20 0.207912 0.978148<84.8994 1354.13>
LayerCount: 2
Fore
SplineSet
170 0 m 1,0,-1
 415 1154 l 2,1,2
 495 1530 495 1530 915 1530 c 0,3,4
 1150 1530 1150 1530 1294 1376 c 0,5,6
 1443 1216 1443 1216 1443 1027 c 1,7,8
 1238 1027 1238 1027 1168 1002 c 0,9,10
 1063 965 1063 965 1063 919 c 0,11,12
 1063 877 1063 877 1165 843 c 0,13,14
 1467 740 1467 740 1467 481 c 0,15,16
 1467 454 1467 454 1464 426 c 0,17,18
 1444 249 1444 249 1329 129 c 0,19,20
 1187 -20 1187 -20 966 -20 c 0,21,22
 586 -20 586 -20 586 284 c 0,23,24
 586 334 586 334 596 391 c 1,25,-1
 877 391 l 1,26,27
 873 373 873 373 873 358 c 0,28,29
 873 330 873 330 886 311 c 0,30,31
 918 262 918 262 996 262 c 128,-1,32
 1074 262 1074 262 1130 326 c 0,33,34
 1163 363 1163 363 1173 424 c 0,35,36
 1175 439 1175 439 1175 454 c 0,37,38
 1175 581 1175 581 985 638 c 0,39,40
 788 697 788 697 788 852 c 0,41,42
 788 883 788 883 796 917 c 0,43,44
 837 1095 837 1095 1085 1164 c 1,45,46
 1019 1253 1019 1253 859 1253 c 0,47,48
 747 1253 747 1253 721 1132 c 2,49,-1
 480 0 l 1,50,-1
 170 0 l 1,0,-1
EndSplineSet
Validated: 1
EndChar

